<svg width="645" height="496" viewBox="0 0 645 496" fill="none" xmlns="http://www.w3.org/2000/svg">
<path fill-rule="evenodd" clip-rule="evenodd" d="M542.666 411.353L397.332 494.855L252 411.352L397.332 327.85L542.666 411.353Z" stroke="#C1C1C1" stroke-width="2" stroke-linejoin="round" stroke-dasharray="4 4"/>
<path fill-rule="evenodd" clip-rule="evenodd" d="M724.665 106.987L579.331 190.489L434 106.987L579.331 23.4843L724.665 106.987Z" stroke="#C1C1C1" stroke-width="2" stroke-linejoin="round" stroke-dasharray="4 4"/>
<path fill-rule="evenodd" clip-rule="evenodd" d="M537.666 212.767L392.332 296.269L247 212.767L392.332 129.264L537.666 212.767Z" stroke="#C1C1C1" stroke-width="2" stroke-linejoin="round" stroke-dasharray="4 4"/>
<path fill-rule="evenodd" clip-rule="evenodd" d="M1.99976 279.921L62.6223 245.023L123.245 279.921L62.6223 314.819L1.99976 279.921Z" fill="white" stroke="#005DF2" stroke-width="3" stroke-linejoin="round"/>
<path fill-rule="evenodd" clip-rule="evenodd" d="M63.0913 384.805L123.714 349.907V280.11L63.0913 315.008V384.805" fill="white"/>
<path d="M63.0913 384.805L123.714 349.907V280.11L63.0913 315.008V384.805" stroke="#005DF2" stroke-width="3" stroke-linejoin="round"/>
<path fill-rule="evenodd" clip-rule="evenodd" d="M62.622 384.617V314.82L1.99951 279.921V349.718L62.622 384.617" fill="white"/>
<path d="M62.622 384.617V314.82L1.99951 279.921V349.718L62.622 384.617" stroke="#005DF2" stroke-width="3" stroke-linejoin="round"/>
<path d="M202.938 234.757L123.937 279.9" stroke="#005DF2" stroke-width="3" stroke-linejoin="round"/>
<g filter="url(#filter0_d_1403_4624)">
<mask id="path-10-outside-1_1403_4624" maskUnits="userSpaceOnUse" x="197.632" y="15" width="254" height="292" fill="black">
<rect fill="white" x="197.632" y="15" width="254" height="292"/>
<path fill-rule="evenodd" clip-rule="evenodd" d="M324.936 19L448.632 87.952L448.632 234.048L324.936 303L201.241 234.048L201.241 87.952L324.936 19Z"/>
</mask>
<path fill-rule="evenodd" clip-rule="evenodd" d="M324.936 19L448.632 87.952L448.632 234.048L324.936 303L201.241 234.048L201.241 87.952L324.936 19Z" fill="white"/>
<path d="M324.936 19L326.397 16.3796L324.936 15.5654L323.476 16.3796L324.936 19ZM448.632 87.952L451.632 87.952L451.632 86.1897L450.092 85.3316L448.632 87.952ZM448.632 234.048L450.092 236.669L451.632 235.811L451.632 234.048L448.632 234.048ZM324.936 303L323.475 305.621L324.936 306.435L326.397 305.621L324.936 303ZM201.241 234.048L198.241 234.048L198.241 235.811L199.78 236.669L201.241 234.048ZM201.241 87.952L199.78 85.3316L198.241 86.1897L198.241 87.952L201.241 87.952ZM323.476 21.6204L447.171 90.5724L450.092 85.3316L326.397 16.3796L323.476 21.6204ZM445.632 87.952L445.632 234.048L451.632 234.048L451.632 87.952L445.632 87.952ZM447.171 231.428L323.475 300.38L326.397 305.621L450.092 236.669L447.171 231.428ZM326.397 300.38L202.701 231.428L199.78 236.669L323.475 305.621L326.397 300.38ZM204.241 234.048L204.241 87.952L198.241 87.952L198.241 234.048L204.241 234.048ZM202.701 90.5724L326.397 21.6204L323.476 16.3796L199.78 85.3316L202.701 90.5724Z" fill="#005DF2" mask="url(#path-10-outside-1_1403_4624)"/>
</g>
<path d="M244.437 197.744V172.818H247.735V197.744H244.437ZM252.445 189.736L255.556 189.464C255.703 190.71 256.043 191.736 256.576 192.541C257.12 193.334 257.959 193.98 259.093 194.479C260.226 194.967 261.501 195.21 262.918 195.21C264.176 195.21 265.287 195.023 266.25 194.649C267.214 194.275 267.928 193.765 268.393 193.119C268.869 192.462 269.107 191.748 269.107 190.977C269.107 190.195 268.88 189.515 268.427 188.937C267.973 188.347 267.225 187.854 266.182 187.457C265.514 187.197 264.034 186.794 261.745 186.25C259.455 185.695 257.851 185.173 256.933 184.686C255.743 184.063 254.853 183.292 254.264 182.374C253.686 181.444 253.397 180.407 253.397 179.262C253.397 178.004 253.754 176.831 254.468 175.743C255.182 174.643 256.225 173.81 257.596 173.243C258.968 172.677 260.492 172.393 262.17 172.393C264.017 172.393 265.644 172.694 267.05 173.294C268.466 173.884 269.555 174.757 270.314 175.913C271.073 177.069 271.481 178.378 271.538 179.84L268.376 180.078C268.206 178.503 267.628 177.313 266.641 176.508C265.667 175.703 264.222 175.301 262.306 175.301C260.311 175.301 258.854 175.669 257.936 176.406C257.03 177.131 256.576 178.01 256.576 179.041C256.576 179.937 256.899 180.673 257.545 181.252C258.18 181.83 259.835 182.425 262.51 183.037C265.196 183.637 267.038 184.165 268.036 184.618C269.487 185.287 270.558 186.137 271.249 187.168C271.941 188.188 272.286 189.367 272.286 190.705C272.286 192.031 271.907 193.283 271.147 194.462C270.388 195.63 269.294 196.542 267.866 197.2C266.449 197.846 264.851 198.169 263.071 198.169C260.815 198.169 258.922 197.84 257.392 197.183C255.873 196.525 254.678 195.539 253.805 194.224C252.943 192.898 252.49 191.402 252.445 189.736ZM275.789 185.604C275.789 181.467 276.899 178.231 279.121 175.896C281.343 173.55 284.21 172.376 287.724 172.376C290.025 172.376 292.099 172.926 293.947 174.026C295.795 175.125 297.2 176.661 298.164 178.633C299.138 180.594 299.626 182.821 299.626 185.315C299.626 187.843 299.116 190.104 298.096 192.099C297.075 194.094 295.63 195.607 293.76 196.639C291.89 197.659 289.872 198.169 287.707 198.169C285.361 198.169 283.264 197.602 281.416 196.468C279.569 195.335 278.169 193.788 277.217 191.827C276.265 189.866 275.789 187.792 275.789 185.604ZM279.189 185.655C279.189 188.659 279.994 191.028 281.603 192.762C283.224 194.485 285.253 195.346 287.69 195.346C290.173 195.346 292.213 194.474 293.811 192.728C295.421 190.982 296.225 188.506 296.225 185.298C296.225 183.269 295.88 181.501 295.188 179.993C294.508 178.474 293.505 177.301 292.179 176.474C290.864 175.635 289.385 175.216 287.741 175.216C285.406 175.216 283.394 176.021 281.705 177.63C280.028 179.228 279.189 181.903 279.189 185.655ZM328.428 194.802V197.744H311.952C311.93 197.007 312.049 196.298 312.309 195.618C312.729 194.496 313.398 193.391 314.316 192.303C315.245 191.215 316.583 189.957 318.328 188.528C321.037 186.307 322.868 184.55 323.82 183.258C324.772 181.954 325.248 180.724 325.248 179.568C325.248 178.355 324.812 177.335 323.939 176.508C323.077 175.669 321.95 175.25 320.555 175.25C319.082 175.25 317.903 175.692 317.019 176.576C316.135 177.46 315.687 178.684 315.676 180.248L312.53 179.925C312.746 177.579 313.556 175.794 314.962 174.57C316.367 173.334 318.255 172.716 320.623 172.716C323.015 172.716 324.908 173.379 326.302 174.706C327.696 176.032 328.393 177.675 328.393 179.636C328.393 180.634 328.189 181.614 327.781 182.578C327.373 183.541 326.693 184.556 325.741 185.621C324.8 186.687 323.23 188.149 321.032 190.008C319.195 191.549 318.016 192.598 317.495 193.153C316.974 193.697 316.543 194.247 316.203 194.802H328.428ZM331.726 185.451C331.726 182.504 332.026 180.135 332.627 178.344C333.239 176.542 334.14 175.153 335.33 174.179C336.532 173.204 338.039 172.716 339.853 172.716C341.19 172.716 342.364 172.988 343.372 173.533C344.381 174.065 345.214 174.842 345.872 175.862C346.529 176.871 347.045 178.106 347.419 179.568C347.793 181.019 347.98 182.98 347.98 185.451C347.98 188.375 347.68 190.739 347.079 192.541C346.478 194.332 345.577 195.72 344.376 196.707C343.185 197.681 341.678 198.169 339.853 198.169C337.45 198.169 335.563 197.307 334.191 195.584C332.548 193.51 331.726 190.132 331.726 185.451ZM334.871 185.451C334.871 189.543 335.347 192.269 336.3 193.629C337.263 194.978 338.447 195.652 339.853 195.652C341.259 195.652 342.437 194.972 343.389 193.612C344.353 192.252 344.835 189.532 344.835 185.451C344.835 181.348 344.353 178.622 343.389 177.273C342.437 175.924 341.247 175.25 339.819 175.25C338.413 175.25 337.291 175.845 336.453 177.035C335.398 178.554 334.871 181.359 334.871 185.451ZM351.108 185.451C351.108 182.504 351.409 180.135 352.01 178.344C352.622 176.542 353.523 175.153 354.713 174.179C355.914 173.204 357.422 172.716 359.236 172.716C360.573 172.716 361.746 172.988 362.755 173.533C363.764 174.065 364.597 174.842 365.254 175.862C365.912 176.871 366.427 178.106 366.801 179.568C367.176 181.019 367.363 182.98 367.363 185.451C367.363 188.375 367.062 190.739 366.461 192.541C365.861 194.332 364.96 195.72 363.758 196.707C362.568 197.681 361.06 198.169 359.236 198.169C356.833 198.169 354.945 197.307 353.574 195.584C351.93 193.51 351.108 190.132 351.108 185.451ZM354.254 185.451C354.254 189.543 354.73 192.269 355.682 193.629C356.646 194.978 357.83 195.652 359.236 195.652C360.641 195.652 361.82 194.972 362.772 193.612C363.735 192.252 364.217 189.532 364.217 185.451C364.217 181.348 363.735 178.622 362.772 177.273C361.82 175.924 360.63 175.25 359.201 175.25C357.796 175.25 356.674 175.845 355.835 177.035C354.781 178.554 354.254 181.359 354.254 185.451ZM386.575 194.802V197.744H370.1C370.077 197.007 370.196 196.298 370.457 195.618C370.876 194.496 371.545 193.391 372.463 192.303C373.393 191.215 374.73 189.957 376.476 188.528C379.185 186.307 381.015 184.55 381.967 183.258C382.92 181.954 383.396 180.724 383.396 179.568C383.396 178.355 382.959 177.335 382.086 176.508C381.225 175.669 380.097 175.25 378.703 175.25C377.23 175.25 376.051 175.692 375.167 176.576C374.282 177.46 373.835 178.684 373.823 180.248L370.678 179.925C370.893 177.579 371.704 175.794 373.109 174.57C374.515 173.334 376.402 172.716 378.771 172.716C381.163 172.716 383.056 173.379 384.45 174.706C385.844 176.032 386.541 177.675 386.541 179.636C386.541 180.634 386.337 181.614 385.929 182.578C385.521 183.541 384.841 184.556 383.889 185.621C382.948 186.687 381.378 188.149 379.179 190.008C377.343 191.549 376.164 192.598 375.643 193.153C375.121 193.697 374.691 194.247 374.35 194.802H386.575ZM405.958 194.802V197.744H389.482C389.46 197.007 389.579 196.298 389.839 195.618C390.259 194.496 390.928 193.391 391.846 192.303C392.775 191.215 394.113 189.957 395.858 188.528C398.567 186.307 400.398 184.55 401.35 183.258C402.302 181.954 402.778 180.724 402.778 179.568C402.778 178.355 402.342 177.335 401.469 176.508C400.608 175.669 399.48 175.25 398.086 175.25C396.612 175.25 395.433 175.692 394.549 176.576C393.665 177.46 393.217 178.684 393.206 180.248L390.06 179.925C390.276 177.579 391.086 175.794 392.492 174.57C393.897 173.334 395.785 172.716 398.154 172.716C400.545 172.716 402.438 173.379 403.832 174.706C405.226 176.032 405.924 177.675 405.924 179.636C405.924 180.634 405.72 181.614 405.311 182.578C404.903 183.541 404.223 184.556 403.271 185.621C402.33 186.687 400.761 188.149 398.562 190.008C396.725 191.549 395.547 192.598 395.025 193.153C394.504 193.697 394.073 194.247 393.733 194.802H405.958Z" fill="#005DF2"/>
<path d="M402.723 155.248L402.724 155.247C404.705 153.341 406.21 151.099 407.202 148.554L407.202 148.553C408.123 146.181 408.6 143.671 408.6 141C408.6 138.329 408.123 135.819 407.202 133.447C406.21 130.874 404.705 128.632 402.724 126.726L402.723 126.725C400.505 124.599 397.847 123.003 394.726 121.932C391.777 120.918 388.534 120.4 385 120.4C381.466 120.4 378.223 120.918 375.274 121.932C372.153 123.003 369.495 124.599 367.277 126.725L367.276 126.726C365.295 128.632 363.789 130.874 362.797 133.448C361.877 135.82 361.4 138.33 361.4 141C361.4 143.671 361.877 146.181 362.798 148.553L362.798 148.554C363.79 151.099 365.295 153.341 367.276 155.247L367.277 155.248C369.493 157.372 372.15 158.996 375.274 160.068C378.223 161.082 381.466 161.6 385 161.6C388.534 161.6 391.777 161.082 394.726 160.068C397.85 158.996 400.507 157.372 402.723 155.248ZM374.796 149.442L374.796 149.441C372.852 147.209 371.866 144.41 371.866 141C371.866 137.593 372.851 134.793 374.795 132.533C377.209 129.821 380.573 128.427 385 128.427C389.427 128.427 392.791 129.821 395.205 132.533C397.149 134.793 398.134 137.619 398.134 141C398.134 144.381 397.149 147.182 395.202 149.443C392.824 152.177 389.463 153.573 385 153.573C380.536 153.573 377.175 152.177 374.796 149.442Z" fill="#002C72" stroke="white" stroke-width="1.19955"/>
<path d="M355.319 122.241L355.319 122.241L355.312 122.25L341.501 139.932L327.722 122.251L327.722 122.251L327.714 122.241C327.257 121.68 326.616 121.4 325.833 121.4H319.679C318.56 121.4 317.4 122.141 317.4 123.347V159.626C317.4 160.819 318.544 161.6 319.679 161.6H325.438C326.573 161.6 327.717 160.819 327.717 159.626V136.841L339.641 152.207C339.641 152.207 339.642 152.208 339.642 152.209C340.097 152.802 340.741 153.089 341.5 153.089C342.285 153.089 342.933 152.806 343.39 152.209C343.391 152.208 343.391 152.207 343.392 152.207L355.316 136.841V159.626C355.316 160.819 356.46 161.6 357.595 161.6H363.321C364.456 161.6 365.6 160.819 365.6 159.626V123.347C365.6 122.141 364.44 121.4 363.321 121.4H357.2C356.416 121.4 355.776 121.68 355.319 122.241Z" fill="#002C72" stroke="white" stroke-width="1.19955"/>
<path d="M315.343 161.6C316.474 161.6 317.6 160.812 317.6 159.626V155.371C317.6 154.185 316.474 153.397 315.343 153.397H295.698V145.44H313.426C314.597 145.44 315.683 144.645 315.683 143.466V139.211C315.683 138.032 314.597 137.237 313.426 137.237H295.698V129.576H315.343C316.474 129.576 317.6 128.788 317.6 127.602V123.347C317.6 122.147 316.457 121.4 315.343 121.4H287.657C286.543 121.4 285.4 122.147 285.4 123.347V159.626C285.4 160.812 286.526 161.6 287.657 161.6H315.343Z" fill="#002C72" stroke="white" stroke-width="1.19955"/>
<path d="M286.207 148.913L286.208 148.911C287.125 146.578 287.6 144.106 287.6 141.5C287.6 138.868 287.125 136.395 286.208 134.087L286.207 134.087C285.22 131.608 283.721 129.406 281.715 127.542C277.364 123.427 271.474 121.4 264.119 121.4H248.679C247.561 121.4 246.4 122.141 246.4 123.347V159.626C246.4 160.819 247.544 161.6 248.679 161.6H264.119C271.505 161.6 277.397 159.574 281.716 155.43C283.72 153.567 285.219 151.394 286.207 148.913ZM256.818 153.397V129.576H264.119C266.26 129.576 268.162 129.915 269.865 130.56C273.159 131.818 275.365 134.057 276.524 137.306C276.961 138.612 277.182 140.027 277.182 141.5C277.182 144.708 276.206 147.361 274.307 149.475C271.979 152.065 268.604 153.397 264.119 153.397H256.818Z" fill="#002C72" stroke="white" stroke-width="1.19955"/>
<defs>
<filter id="filter0_d_1403_4624" x="183.241" y="0.56543" width="283.391" height="320.87" filterUnits="userSpaceOnUse" color-interpolation-filters="sRGB">
<feFlood flood-opacity="0" result="BackgroundImageFix"/>
<feColorMatrix in="SourceAlpha" type="matrix" values="0 0 0 0 0 0 0 0 0 0 0 0 0 0 0 0 0 0 127 0" result="hardAlpha"/>
<feOffset/>
<feGaussianBlur stdDeviation="7.5"/>
<feComposite in2="hardAlpha" operator="out"/>
<feColorMatrix type="matrix" values="0 0 0 0 0 0 0 0 0 0.364706 0 0 0 0 0.94902 0 0 0 1 0"/>
<feBlend mode="normal" in2="BackgroundImageFix" result="effect1_dropShadow_1403_4624"/>
<feBlend mode="normal" in="SourceGraphic" in2="effect1_dropShadow_1403_4624" result="shape"/>
</filter>
</defs>
</svg>
