<svg width="333" height="145" viewBox="0 0 333 145" fill="none" xmlns="http://www.w3.org/2000/svg">
<path d="M55.1269 78.3706C63.517 62.6836 72.64 46.7197 82.3408 31.6903C98.1345 26.8575 114.194 22.9487 130.439 19.9834C131.457 21.1515 132.94 22.6484 133.802 22.5186C135.199 22.3023 154.342 18.1923 154.342 18.1923C155.325 18.0193 151.755 3.20618 149.789 0.437372C149.565 0.125881 149.367 -0.0298642 149.203 0.00474588C149.203 0.00474588 73.7265 7.79201 0.466306 41.0523C0.431671 41.0673 0.399649 41.0877 0.371454 41.1128C-1.59457 42.9299 4.76914 68.6971 7.16631 67.4857L42.9083 52.5342C42.9772 52.5342 42.9859 52.4303 42.9083 52.3265C42.7465 52.0705 42.5205 51.8616 42.2529 51.7208C41.6643 51.3675 40.9782 51.2129 40.2955 51.2795L29.5859 52.5428L25.9298 52.9668C30.6379 50.7604 43.486 44.9892 61.6027 38.5257C53.8421 50.5873 43.805 66.6464 33.6904 84.2197L33.2334 84.3581C22.4892 87.5163 11.3398 91.1763 1.44932 95.1738C1.40759 95.1926 1.3718 95.2225 1.34584 95.2603C-0.120052 96.7658 3.01006 112.565 5.02782 111.7C5.02782 111.7 11.4174 108.594 22.6013 104.129C18.9452 110.895 15.3839 117.748 12.0124 124.558C8.68394 130.113 21.4976 146.094 22.2995 144.043C29.0685 130.087 37.1223 113.258 46.2195 95.4593C54.2301 92.7597 63.1807 89.9649 72.8901 87.3086C72.8901 87.3086 80.5386 75.4979 79.5211 73.2223C79.3832 72.9195 79.0814 72.781 78.5812 72.8762C78.5812 72.8762 70.8206 74.5116 59.4901 77.3236L56.1358 78.1889L55.1269 78.3706Z" fill="#C1C1C1"/>
<path d="M261.508 126.755C261.18 126.582 261.025 126.15 261.025 125.492C261.025 111.709 275.891 83.7177 287.514 63.938C299.164 61.8874 312.443 59.6637 321.187 58.5562C321.609 59.3263 322.644 60.9529 323.774 60.7626L332.112 59.0321C332.776 58.6081 331.017 49.6008 328.059 45.8802C327.197 44.816 326.266 44.1497 325.257 44.3055C323.722 44.4958 314.961 45.6985 300.88 49.0125L297 49.9556L295.87 50.2325C299.06 45.1102 301.13 41.9607 301.13 41.9607C301.673 41.0262 298.465 34.6579 295.741 31.3527C294.49 29.8385 293.343 28.9732 292.705 29.5529C292.639 29.6112 292.581 29.6782 292.533 29.752C292.533 29.752 285.1 40.8445 276.33 55.6143L275.882 55.7528C272.554 56.7565 269.104 57.8438 265.535 59.0148L262.525 60.0098L261.542 60.3386C262.913 57.5784 265.448 52.3177 265.284 51.1842C265.284 51.0458 265.207 50.9679 265.095 50.9679C264.917 50.9965 264.748 51.0677 264.603 51.1756C262.715 52.3783 257.498 58.4437 257.705 59.8281C257.877 61.3596 261.801 68.6623 263.224 68.42L269.449 67.252C258.076 83.6917 241.916 102.347 234.69 110.515C238.812 101.75 247.961 82.688 256.61 67.5029C257.041 66.6376 254.187 61.8528 251.436 58.5562C249.599 56.3584 247.814 54.8269 247.073 55.5451C245.633 57.0074 228.499 76.4323 215.444 92.2491L230.275 63.566C230.922 62.3979 228.672 58.6081 226.18 55.597C224.015 53.0013 221.67 50.9852 220.859 51.7813C220.807 51.8332 220.76 51.8913 220.721 51.9543L220.488 52.4562C211.46 70.9812 177.615 111.925 166.595 117.229C166.043 117.518 165.445 117.709 164.828 117.791H164.621C164.389 117.801 164.159 117.737 163.965 117.61C163.746 117.384 163.58 117.11 163.481 116.81C163.383 116.51 163.354 116.192 163.396 115.879C163.396 111.639 165.888 104.631 169.536 97.0339C170.053 101.36 171.941 104.051 172.873 104.051C180.47 104.051 201.432 74.1826 201.259 62.744C201.259 61.5759 199.423 58.7206 197.189 56.0469C194.697 53.0791 191.697 50.3276 190.067 50.3536C189.118 50.4163 188.2 50.7135 187.394 51.2188C183.651 53.2349 178.624 58.8936 173.45 65.9541L173.494 65.8502C173.356 66.0493 173.218 66.2656 173.08 66.4732C171.976 68.0047 170.872 69.5881 169.786 71.2235C161.491 82.913 147.953 100.374 139.666 110.964C145.504 99.3268 155.032 80.4817 162.508 66.3002C163.008 65.4349 161.232 62.545 159.059 59.9406C157.093 57.5698 154.808 55.4586 153.635 55.4326C153.534 55.424 153.432 55.4391 153.338 55.4766C153.244 55.5142 153.159 55.5732 153.092 55.6489C144.65 68.3508 120.204 99.8979 110.676 112.124C114.453 104.042 123.869 84.3234 136.217 61.8355C136.708 60.9097 134.828 57.8553 132.664 55.2596C130.5 52.6638 128.137 50.5872 127.49 51.3746C127.461 51.4123 127.435 51.4529 127.413 51.4957C118.005 66.205 91.1189 101.075 81.0474 114.027C88.6528 98.7038 104.683 66.7761 118.454 41.8655C118.911 41.0002 115.737 35.5664 112.883 32.14C112.229 31.3083 111.482 30.5536 110.658 29.8904C109.943 29.3539 109.356 29.1636 109.011 29.5097C108.938 29.5841 108.879 29.6723 108.839 29.7693L63.2066 118.769C62.4909 120.5 73.6403 134.525 74.7268 133.106C75.9081 131.557 95.5425 104.691 110.503 84.2282L96.7066 110.982C95.6805 113.266 106.485 129.152 107.684 127.136C108.494 125.795 127.999 98.8423 140.83 81.1479C135.906 91.1156 130.155 102.528 124.826 112.47C123.532 115.299 133.802 128.996 135.277 127.179C135.751 126.582 145.711 112.202 154.454 99.5518C152.971 103.342 152.109 106.474 152.135 108.611C152.247 117.757 159.809 129.282 163.439 129.282C172.148 129.178 193.059 101.326 205.916 82.9649C201.251 92.0674 195.775 102.208 189.877 111.977C188.532 114.131 197.086 128.936 198.5 127.084C210.685 107.84 224.394 89.6105 239.493 72.5733C234.32 81.9266 223.42 101.758 218.29 113.95C217.548 116.043 228.12 129.637 229.43 128.244C233.293 124.134 246.314 106.405 257.162 91.3925C251.764 103.16 248.047 113.976 248.358 120.967C248.59 126.21 261.378 141.257 267.371 140.971C279.288 140.426 312.072 111.293 312.072 96.9387C312.072 92.699 310.149 88.6583 307.502 85.4655C304.053 81.2863 299.328 78.5435 296.042 78.6992C295.177 78.693 294.322 78.8948 293.55 79.2876C293.265 79.4294 293.037 79.6644 292.904 79.9539C292.904 79.9539 300.802 81.52 300.802 87.9574C301.233 97.5877 278.495 119.193 266.69 125.241C265.378 125.971 263.961 126.493 262.491 126.79L261.982 126.842C261.819 126.867 261.651 126.837 261.508 126.755V126.755ZM175.279 94.0055C175.063 94.1007 174.856 94.1872 174.658 94.2565C174.346 94.3621 174.02 94.4175 173.692 94.4209C173.475 94.4253 173.264 94.3516 173.097 94.2132C172.433 93.694 172.235 92.275 172.812 90.6916C179.771 77.8686 188.972 65.184 194.292 63.0814C197.327 65.9714 182.677 90.4926 175.27 94.0055H175.279Z" fill="#C1C1C1"/>
</svg>
