<svg width="700" height="642" viewBox="0 0 700 642" fill="none" xmlns="http://www.w3.org/2000/svg">
<path fill-rule="evenodd" clip-rule="evenodd" d="M292.333 554.388L147.001 638.064L1.66707 554.388L147.001 470.711L292.333 554.388Z" stroke="#C1C1C1" stroke-width="2" stroke-linejoin="round" stroke-dasharray="4 4"/>
<path fill-rule="evenodd" clip-rule="evenodd" d="M484.801 448.854L338.734 533.999L192.667 448.854L338.734 363.71L484.801 448.854Z" stroke="#C1C1C1" stroke-width="2" stroke-linejoin="round" stroke-dasharray="4 4"/>
<path fill-rule="evenodd" clip-rule="evenodd" d="M483.801 259.854L337.734 344.999L191.667 259.854L337.734 174.71L483.801 259.854Z" stroke="#C1C1C1" stroke-width="2" stroke-linejoin="round" stroke-dasharray="4 4"/>
<path fill-rule="evenodd" clip-rule="evenodd" d="M664.8 555.856L518.734 641L372.667 555.856L518.734 470.711L664.8 555.856Z" stroke="#C1C1C1" stroke-width="2" stroke-linejoin="round" stroke-dasharray="4 4"/>
<path fill-rule="evenodd" clip-rule="evenodd" d="M247.103 176.438V97.3322L172.155 140.569V227.04L240.719 187.488" fill="white"/>
<path d="M247.103 176.438V97.3322L172.155 140.569V227.04L240.719 187.488" stroke="#002C72" stroke-linejoin="round"/>
<g filter="url(#filter0_d_1662_5849)">
<path d="M207.076 167.323L288.052 213.595L289.154 202.027L214.237 158.509C211.13 156.737 207.228 157.237 205.434 160.309C204.322 162.366 203.969 165.549 207.076 167.323Z" fill="white"/>
<path d="M207.076 167.323L288.052 213.595L289.154 202.027L214.237 158.509C211.13 156.737 207.228 157.237 205.434 160.309C204.322 162.366 203.969 165.549 207.076 167.323Z" stroke="#002C72" stroke-linejoin="round"/>
</g>
<path fill-rule="evenodd" clip-rule="evenodd" d="M412.26 264.373L412.26 189.167L337.489 232.456L337.489 315.037L407.955 274.275" fill="#D9ECFF"/>
<path d="M412.26 264.373L412.26 189.167L337.489 232.456L337.489 315.037L407.955 274.275" stroke="#002C72" stroke-linejoin="round"/>
<path fill-rule="evenodd" clip-rule="evenodd" d="M269.087 275.437L337.489 315.037V232.167L262.718 188.878V264.205" fill="#D9ECFF"/>
<path d="M269.087 275.437L337.489 315.037V232.167L262.718 188.878V264.205" stroke="#002C72" stroke-linejoin="round"/>
<g filter="url(#filter1_d_1662_5849)">
<path fill-rule="evenodd" clip-rule="evenodd" d="M216.181 290.425L293.742 245.681C296.798 243.921 300.701 244.965 302.465 248.017C304.227 251.067 303.181 254.969 300.127 256.731L222.565 301.474" fill="white"/>
<path d="M293.742 245.681L293.493 245.247L293.492 245.248L293.742 245.681ZM302.465 248.017L302.897 247.766L302.897 247.766L302.465 248.017ZM300.127 256.731L299.877 256.298L299.877 256.298L300.127 256.731ZM216.431 290.858L293.992 246.114L293.492 245.248L215.931 289.991L216.431 290.858ZM293.992 246.114C296.809 244.492 300.406 245.455 302.032 248.267L302.897 247.766C300.995 244.476 296.787 243.35 293.493 245.247L293.992 246.114ZM302.032 248.267C303.655 251.077 302.692 254.674 299.877 256.298L300.377 257.164C303.67 255.264 304.798 251.056 302.897 247.766L302.032 248.267ZM299.877 256.298L222.315 301.041L222.815 301.908L300.377 257.164L299.877 256.298Z" fill="#002C72"/>
</g>
<path fill-rule="evenodd" clip-rule="evenodd" d="M72.6672 294.108L147.617 250.873L222.566 294.108L147.617 337.344L72.6672 294.108Z" fill="white" stroke="#002C72" stroke-linejoin="round"/>
<path fill-rule="evenodd" clip-rule="evenodd" d="M148.196 424.049L223.146 380.814V294.342L148.196 337.578V424.049" fill="white"/>
<path d="M148.196 424.049L223.146 380.814V294.342L148.196 337.578V424.049" stroke="#002C72" stroke-linejoin="round"/>
<path fill-rule="evenodd" clip-rule="evenodd" d="M147.616 423.816V337.344L72.667 294.108V380.58L147.616 423.816" fill="white"/>
<path d="M147.616 423.816V337.344L72.667 294.108V380.58L147.616 423.816" stroke="#002C72" stroke-linejoin="round"/>
<path fill-rule="evenodd" clip-rule="evenodd" d="M262.804 189.173L337.17 145.655L412.362 189.723L337.629 233.155L262.804 189.173Z" fill="#D9ECFF" stroke="#002C72" stroke-linejoin="round"/>
<g filter="url(#filter2_d_1662_5849)">
<path fill-rule="evenodd" clip-rule="evenodd" d="M294.754 146.968C321.466 162.433 369.438 190.002 369.438 190.002V49.5351L294.667 10.6528V139.17" fill="white"/>
<path fill-rule="evenodd" clip-rule="evenodd" d="M294.754 146.968C321.466 162.433 369.438 190.002 369.438 190.002V49.5351L294.667 10.6528V139.17" stroke="#002C72" stroke-linejoin="round"/>
</g>
<path fill-rule="evenodd" clip-rule="evenodd" d="M362.917 84.4503V75.0983L301.188 40.6765V50.0285L362.917 84.4503Z" fill="#005DF2"/>
<path fill-rule="evenodd" clip-rule="evenodd" d="M362.917 99.9133V90.5613L301.188 56.1395V65.4915L362.917 99.9133Z" fill="#005DF2"/>
<path fill-rule="evenodd" clip-rule="evenodd" d="M362.917 114.786V105.434L301.188 71.0126V80.3646L362.917 114.786Z" fill="#005DF2"/>
<path fill-rule="evenodd" clip-rule="evenodd" d="M339.373 115.888V106.536L301.188 85.6103V94.9623L339.373 115.888Z" fill="#005DF2"/>
<path fill-rule="evenodd" clip-rule="evenodd" d="M97.2057 97.3318L172.155 54.0963L247.103 97.3318L172.155 140.567L97.2057 97.3318Z" fill="white" stroke="#002C72" stroke-linejoin="round"/>
<path fill-rule="evenodd" clip-rule="evenodd" d="M97.2057 97.3322V183.804L172.155 227.04V140.568L97.2057 97.3322Z" fill="white" stroke="#002C72" stroke-linejoin="round"/>
<path fill-rule="evenodd" clip-rule="evenodd" d="M450.811 74.4911L526.074 30.7107L601.337 74.4911L526.074 118.272L450.811 74.4911Z" fill="white" stroke="#002C72" stroke-linejoin="round"/>
<path fill-rule="evenodd" clip-rule="evenodd" d="M600.353 154.185V74.9832L525.582 118.272V204.849L593.595 165.473" fill="white"/>
<path d="M600.353 154.185V74.9832L525.582 118.272V204.849L593.595 165.473" stroke="#002C72" stroke-linejoin="round"/>
<path fill-rule="evenodd" clip-rule="evenodd" d="M450.811 161.559L525.582 204.849V118.272L450.811 74.9832V161.559Z" fill="white" stroke="#002C72" stroke-linejoin="round"/>
<path fill-rule="evenodd" clip-rule="evenodd" d="M638.102 191.448L559.96 146.37C556.907 144.61 555.86 140.707 557.623 137.656C559.386 134.606 563.292 133.56 566.344 135.321L644.486 180.399" fill="white"/>
<path d="M638.102 191.448L559.96 146.37C556.907 144.61 555.86 140.707 557.623 137.656C559.386 134.606 563.292 133.56 566.344 135.321L644.486 180.399" stroke="#002C72" stroke-linejoin="round"/>
<path fill-rule="evenodd" clip-rule="evenodd" d="M638.102 184.082L713.051 140.847L788 184.082L713.051 227.318L638.102 184.082Z" fill="white" stroke="#002C72" stroke-linejoin="round"/>
<path fill-rule="evenodd" clip-rule="evenodd" d="M644.487 274.237L645.146 274.617L713.051 313.789V227.318L638.102 184.082V263.187" fill="white"/>
<path d="M644.487 274.237L645.146 274.617L713.051 313.789V227.318L638.102 184.082V263.187" stroke="#002C72" stroke-linejoin="round"/>
<g filter="url(#filter3_d_1662_5849)">
<g filter="url(#filter4_d_1662_5849)">
<path fill-rule="evenodd" clip-rule="evenodd" d="M450.883 299.528L373.419 255.439C370.273 253.648 369.196 249.683 371.012 246.583C372.829 243.482 376.849 242.421 379.995 244.21L458.267 288.758" fill="white"/>
<path d="M450.883 299.528L373.419 255.439C370.273 253.648 369.196 249.683 371.012 246.583C372.829 243.482 376.849 242.421 379.995 244.21L458.267 288.758" stroke="#002C72" stroke-linejoin="round"/>
</g>
</g>
<path fill-rule="evenodd" clip-rule="evenodd" d="M594.241 288.488L671.803 243.745C674.859 241.985 678.761 243.029 680.525 246.08C682.287 249.131 681.241 253.033 678.188 254.795L600.626 299.538" fill="white"/>
<path d="M594.241 288.488L671.803 243.745C674.859 241.985 678.761 243.029 680.525 246.08C682.287 249.131 681.241 253.033 678.188 254.795L600.626 299.538" stroke="#002C72" stroke-linejoin="round"/>
<path fill-rule="evenodd" clip-rule="evenodd" d="M450.538 292.362L525.801 248.582L601.064 292.362L525.801 336.143L450.538 292.362Z" fill="white" stroke="#002C72" stroke-linejoin="round"/>
<path fill-rule="evenodd" clip-rule="evenodd" d="M450.538 379.43C477.25 394.895 525.309 422.72 525.309 422.72V336.144L450.538 292.854V379.43Z" fill="white" stroke="#002C72" stroke-linejoin="round"/>
<path fill-rule="evenodd" clip-rule="evenodd" d="M600.08 372.056V292.854L525.309 336.144V422.72L593.321 383.344" fill="white"/>
<path d="M600.08 372.056V292.854L525.309 336.144V422.72L593.321 383.344" stroke="#002C72" stroke-linejoin="round"/>
<path fill-rule="evenodd" clip-rule="evenodd" d="M637.829 409.32L559.686 364.242C556.634 362.481 555.586 358.579 557.35 355.528C559.113 352.477 563.018 351.431 566.071 353.193L644.213 398.271" fill="white"/>
<path d="M637.829 409.32L559.686 364.242C556.634 362.481 555.586 358.579 557.35 355.528C559.113 352.477 563.018 351.431 566.071 353.193L644.213 398.271" stroke="#002C72" stroke-linejoin="round"/>
<path fill-rule="evenodd" clip-rule="evenodd" d="M637.379 402.005L712.328 358.77L787.277 402.005L712.328 445.241L637.379 402.005Z" fill="white" stroke="#002C72" stroke-linejoin="round"/>
<path fill-rule="evenodd" clip-rule="evenodd" d="M637.379 402.005V488.477L712.328 531.713V445.241L637.379 402.005Z" fill="white" stroke="#002C72" stroke-linejoin="round"/>
<path opacity="0.3" fill-rule="evenodd" clip-rule="evenodd" d="M123.346 96.2626L170.169 69.2706L216.991 96.2626L170.169 123.255L123.346 96.2626Z" stroke="#C1C1C1" stroke-width="2" stroke-linejoin="round"/>
<path opacity="0.3" fill-rule="evenodd" clip-rule="evenodd" d="M101.312 293.469L148.134 266.477L194.957 293.469L148.134 320.461L101.312 293.469Z" stroke="#C1C1C1" stroke-width="2" stroke-linejoin="round"/>
<path opacity="0.7" fill-rule="evenodd" clip-rule="evenodd" d="M165.244 201.182V158.778L103.515 123.255V165.658L165.244 201.182Z" fill="#D9ECFF"/>
<path opacity="0.3" fill-rule="evenodd" clip-rule="evenodd" d="M479.199 74.2284L526.022 47.2365L572.845 74.2284L526.022 101.22L479.199 74.2284Z" stroke="#C1C1C1" stroke-width="2" stroke-linejoin="round"/>
<g opacity="0.7">
<path fill-rule="evenodd" clip-rule="evenodd" d="M518.894 147.197V137.846L457.165 102.322V111.674L518.894 147.197Z" fill="#D9ECFF"/>
<path fill-rule="evenodd" clip-rule="evenodd" d="M518.894 162.661V153.309L457.165 117.785V127.137L518.894 162.661Z" fill="#D9ECFF"/>
<path fill-rule="evenodd" clip-rule="evenodd" d="M518.894 177.534V168.182L457.165 132.658V142.01L518.894 177.534Z" fill="#D9ECFF"/>
</g>
<g opacity="0.7">
<path fill-rule="evenodd" clip-rule="evenodd" d="M141.006 367.54V358.188L79.2772 322.665V332.017L141.006 367.54Z" fill="#D9ECFF"/>
<path fill-rule="evenodd" clip-rule="evenodd" d="M141.006 383.003V373.651L79.2772 338.128V347.48L141.006 383.003Z" fill="#D9ECFF"/>
<path fill-rule="evenodd" clip-rule="evenodd" d="M141.006 397.876V388.524L79.2772 353.001V362.353L141.006 397.876Z" fill="#D9ECFF"/>
</g>
<path opacity="0.3" fill-rule="evenodd" clip-rule="evenodd" d="M665.389 183.298L712.211 156.306L759.034 183.298L712.211 210.29L665.389 183.298Z" stroke="#C1C1C1" stroke-width="2" stroke-linejoin="round"/>
<path opacity="0.3" fill-rule="evenodd" clip-rule="evenodd" d="M479.199 291.266L526.022 264.274L572.845 291.266L526.022 318.258L479.199 291.266Z" stroke="#C1C1C1" stroke-width="2" stroke-linejoin="round"/>
<g opacity="0.7">
<path fill-rule="evenodd" clip-rule="evenodd" d="M518.894 365.337V355.985L457.165 320.461V329.813L518.894 365.337Z" fill="#D9ECFF"/>
<path fill-rule="evenodd" clip-rule="evenodd" d="M518.894 380.8V371.448L457.165 335.924V345.276L518.894 380.8Z" fill="#D9ECFF"/>
<path fill-rule="evenodd" clip-rule="evenodd" d="M518.894 395.673V386.321L457.165 350.797V360.149L518.894 395.673Z" fill="#D9ECFF"/>
</g>
<path opacity="0.3" fill-rule="evenodd" clip-rule="evenodd" d="M665.389 401.437L712.211 374.445L759.034 401.437L712.211 428.429L665.389 401.437Z" stroke="#C1C1C1" stroke-width="2" stroke-linejoin="round"/>
<path opacity="0.7" fill-rule="evenodd" clip-rule="evenodd" d="M706.185 508.559V466.156L644.456 430.633V473.036L706.185 508.559Z" fill="#D9ECFF"/>
<defs>
<filter id="filter0_d_1662_5849" x="196.135" y="148.992" width="101.519" height="73.1038" filterUnits="userSpaceOnUse" color-interpolation-filters="sRGB">
<feFlood flood-opacity="0" result="BackgroundImageFix"/>
<feColorMatrix in="SourceAlpha" type="matrix" values="0 0 0 0 0 0 0 0 0 0 0 0 0 0 0 0 0 0 127 0" result="hardAlpha"/>
<feOffset/>
<feGaussianBlur stdDeviation="4"/>
<feComposite in2="hardAlpha" operator="out"/>
<feColorMatrix type="matrix" values="0 0 0 0 0 0 0 0 0 0.364706 0 0 0 0 0.94902 0 0 0 0.5 0"/>
<feBlend mode="normal" in2="BackgroundImageFix" result="effect1_dropShadow_1662_5849"/>
<feBlend mode="normal" in="SourceGraphic" in2="effect1_dropShadow_1662_5849" result="shape"/>
</filter>
<filter id="filter1_d_1662_5849" x="207.931" y="236.326" width="103.89" height="73.5817" filterUnits="userSpaceOnUse" color-interpolation-filters="sRGB">
<feFlood flood-opacity="0" result="BackgroundImageFix"/>
<feColorMatrix in="SourceAlpha" type="matrix" values="0 0 0 0 0 0 0 0 0 0 0 0 0 0 0 0 0 0 127 0" result="hardAlpha"/>
<feOffset/>
<feGaussianBlur stdDeviation="4"/>
<feComposite in2="hardAlpha" operator="out"/>
<feColorMatrix type="matrix" values="0 0 0 0 0 0 0 0 0 0.364706 0 0 0 0 0.94902 0 0 0 0.5 0"/>
<feBlend mode="normal" in2="BackgroundImageFix" result="effect1_dropShadow_1662_5849"/>
<feBlend mode="normal" in="SourceGraphic" in2="effect1_dropShadow_1662_5849" result="shape"/>
</filter>
<filter id="filter2_d_1662_5849" x="284.167" y="0.152832" width="95.771" height="200.349" filterUnits="userSpaceOnUse" color-interpolation-filters="sRGB">
<feFlood flood-opacity="0" result="BackgroundImageFix"/>
<feColorMatrix in="SourceAlpha" type="matrix" values="0 0 0 0 0 0 0 0 0 0 0 0 0 0 0 0 0 0 127 0" result="hardAlpha"/>
<feOffset/>
<feGaussianBlur stdDeviation="5"/>
<feComposite in2="hardAlpha" operator="out"/>
<feColorMatrix type="matrix" values="0 0 0 0 0 0 0 0 0 0.364706 0 0 0 0 0.94902 0 0 0 0.3 0"/>
<feBlend mode="normal" in2="BackgroundImageFix" result="effect1_dropShadow_1662_5849"/>
<feBlend mode="normal" in="SourceGraphic" in2="effect1_dropShadow_1662_5849" result="shape"/>
</filter>
<filter id="filter3_d_1662_5849" x="365.629" y="238.841" width="96.8846" height="65.1219" filterUnits="userSpaceOnUse" color-interpolation-filters="sRGB">
<feFlood flood-opacity="0" result="BackgroundImageFix"/>
<feColorMatrix in="SourceAlpha" type="matrix" values="0 0 0 0 0 0 0 0 0 0 0 0 0 0 0 0 0 0 127 0" result="hardAlpha"/>
<feOffset/>
<feGaussianBlur stdDeviation="2"/>
<feComposite in2="hardAlpha" operator="out"/>
<feColorMatrix type="matrix" values="0 0 0 0 0 0 0 0 0 0.364706 0 0 0 0 0.94902 0 0 0 0.5 0"/>
<feBlend mode="normal" in2="BackgroundImageFix" result="effect1_dropShadow_1662_5849"/>
<feBlend mode="normal" in="SourceGraphic" in2="effect1_dropShadow_1662_5849" result="shape"/>
</filter>
<filter id="filter4_d_1662_5849" x="361.629" y="234.841" width="104.885" height="73.1219" filterUnits="userSpaceOnUse" color-interpolation-filters="sRGB">
<feFlood flood-opacity="0" result="BackgroundImageFix"/>
<feColorMatrix in="SourceAlpha" type="matrix" values="0 0 0 0 0 0 0 0 0 0 0 0 0 0 0 0 0 0 127 0" result="hardAlpha"/>
<feOffset/>
<feGaussianBlur stdDeviation="4"/>
<feComposite in2="hardAlpha" operator="out"/>
<feColorMatrix type="matrix" values="0 0 0 0 0 0 0 0 0 0.364706 0 0 0 0 0.94902 0 0 0 0.5 0"/>
<feBlend mode="normal" in2="BackgroundImageFix" result="effect1_dropShadow_1662_5849"/>
<feBlend mode="normal" in="SourceGraphic" in2="effect1_dropShadow_1662_5849" result="shape"/>
</filter>
</defs>
</svg>
