<svg width="364" height="461" viewBox="0 0 364 461" fill="none" xmlns="http://www.w3.org/2000/svg">
<path d="M28.8027 457L28.8027 336L206 232.805" stroke="#005DF2" stroke-width="3" stroke-linejoin="round"/>
<path fill-rule="evenodd" clip-rule="evenodd" d="M27.6887 459.637C28.2773 460.24 29.2469 460.24 29.8355 459.637L37.5666 451.717C38.0996 451.171 38.0996 450.3 37.5666 449.754C37.0152 449.189 36.1068 449.189 35.5554 449.754L28.7627 456.712L21.97 449.754C21.4185 449.189 20.5101 449.189 19.9586 449.754C19.4255 450.3 19.4254 451.171 19.9584 451.717L27.6887 459.637Z" fill="#005DF2"/>
<path d="M411.446 289.839L381.475 318.544L185.593 201.356L186.112 157.819L201.297 157.819L388.889 272.875L411.446 289.839Z" fill="url(#paint0_linear_274_341)"/>
<path d="M4.64122 86.4984L34.6123 57.7934L230.494 174.981L229.975 218.518L214.79 218.518L27.1979 103.463L4.64122 86.4984Z" fill="url(#paint1_linear_274_341)"/>
<path d="M408.834 66.7496L418.116 107.69L221.102 222.868L184.554 200.64L192.147 187.169L383.213 78.2782L408.834 66.7496Z" fill="url(#paint2_linear_274_341)"/>
<path d="M33.5219 325.967L24.2395 285.026L221.254 169.848L257.802 192.077L250.209 205.548L59.1422 314.438L33.5219 325.967Z" fill="url(#paint3_linear_274_341)"/>
<path fill-rule="evenodd" clip-rule="evenodd" d="M507.478 193.055L424.484 242.003L341.492 193.055L424.484 144.107L507.478 193.055Z" stroke="#C1C1C1" stroke-width="1.14211" stroke-linejoin="round" stroke-dasharray="2.28 2.28"/>
<path fill-rule="evenodd" clip-rule="evenodd" d="M201.392 377.906L118.399 426.854L35.4057 377.906L118.399 328.958L201.392 377.906Z" stroke="#C1C1C1" stroke-width="1.14211" stroke-linejoin="round" stroke-dasharray="2.28 2.28"/>
<path fill-rule="evenodd" clip-rule="evenodd" d="M311.302 316.172L227.889 365.979L144.477 316.172L227.889 266.365L311.302 316.172Z" stroke="#C1C1C1" stroke-width="1.14211" stroke-linejoin="round" stroke-dasharray="2.28 2.28"/>
<path fill-rule="evenodd" clip-rule="evenodd" d="M206.799 253.581L123.386 303.388L39.9741 253.581L123.386 203.774L206.799 253.581Z" fill="white" stroke="#005DF2" stroke-width="3" stroke-linejoin="round"/>
<path fill-rule="evenodd" clip-rule="evenodd" d="M414.092 378.765L330.68 428.572L247.268 378.765L330.68 328.958L414.092 378.765Z" stroke="#C1C1C1" stroke-width="1.14211" stroke-linejoin="round" stroke-dasharray="2.28 2.28"/>
<path fill-rule="evenodd" clip-rule="evenodd" d="M85.8145 95.8301L124.663 72.8735L163.512 95.8301L124.663 118.787L85.8145 95.8301Z" fill="white" stroke="#005DF2" stroke-width="1.14211" stroke-linejoin="round"/>
<path fill-rule="evenodd" clip-rule="evenodd" d="M85.8145 95.8303V141.744L124.663 164.7V118.787L85.8145 95.8303Z" fill="white" stroke="#005DF2" stroke-width="1.14211" stroke-linejoin="round"/>
<path fill-rule="evenodd" clip-rule="evenodd" d="M163.512 137.833V95.8303L124.664 118.787V164.7L160.203 143.7" fill="white"/>
<path d="M163.512 137.833V95.8303L124.664 118.787V164.7L160.203 143.7" stroke="#005DF2" stroke-width="1.14211" stroke-linejoin="round"/>
<g filter="url(#filter0_d_274_341)">
<path d="M142.765 132.993L184.737 157.562L185.308 151.419L146.476 128.313C144.866 127.372 142.843 127.637 141.913 129.268C141.337 130.36 141.154 132.051 142.765 132.993Z" fill="#005DF2"/>
</g>
<path fill-rule="evenodd" clip-rule="evenodd" d="M280.522 94.8169L319.533 71.571L358.545 94.8169L319.533 118.063L280.522 94.8169Z" fill="white" stroke="#002C72" stroke-width="0.571056" stroke-linejoin="round"/>
<path fill-rule="evenodd" clip-rule="evenodd" d="M358.035 137.132V95.0781L319.278 118.063V164.032L354.531 143.125" fill="white"/>
<path d="M358.035 137.132V95.0781L319.278 118.063V164.032L354.531 143.125" stroke="#002C72" stroke-width="0.571056" stroke-linejoin="round"/>
<path fill-rule="evenodd" clip-rule="evenodd" d="M280.522 141.047L319.278 164.032V118.063L280.522 95.0781V141.047Z" fill="white" stroke="#002C72" stroke-width="0.571056" stroke-linejoin="round"/>
<path d="M280.338 329.991L279.928 329.749" stroke="#002C72" stroke-width="1.14211" stroke-linejoin="round"/>
<path d="M283.238 323.883L283.648 324.125" stroke="#002C72" stroke-width="1.14211" stroke-linejoin="round"/>
<path fill-rule="evenodd" clip-rule="evenodd" d="M260.54 195.638V153.584L221.783 176.569V222.538L257.036 201.631" fill="white"/>
<path d="M260.54 195.638V153.584L221.783 176.569V222.538L257.036 201.631" stroke="#005DF2" stroke-width="1.14211" stroke-linejoin="round"/>
<path fill-rule="evenodd" clip-rule="evenodd" d="M186.328 201.512L221.783 222.538V176.569L183.026 153.584V195.549" fill="white"/>
<path d="M186.328 201.512L221.783 222.538V176.569L183.026 153.584V195.549" stroke="#005DF2" stroke-width="1.14211" stroke-linejoin="round"/>
<g filter="url(#filter1_d_274_341)">
<path fill-rule="evenodd" clip-rule="evenodd" d="M158.905 209.47L199.108 185.713C200.691 184.778 202.714 185.333 203.629 186.953C204.542 188.572 204 190.644 202.417 191.58L162.214 215.337" fill="#005DF2"/>
<path d="M199.108 185.713L198.817 185.221L198.817 185.221L199.108 185.713ZM203.629 186.953L204.126 186.672L204.126 186.672L203.629 186.953ZM202.417 191.58L202.127 191.088V191.088L202.417 191.58ZM159.195 209.962L199.398 186.204L198.817 185.221L158.614 208.978L159.195 209.962ZM199.398 186.204C200.701 185.436 202.371 185.886 203.131 187.233L204.126 186.672C203.058 184.779 200.682 184.121 198.817 185.221L199.398 186.204ZM203.131 187.233C203.895 188.587 203.436 190.314 202.127 191.088L202.708 192.071C204.563 190.975 205.189 188.557 204.126 186.672L203.131 187.233ZM202.127 191.088L161.924 214.845L162.505 215.829L202.708 192.071L202.127 191.088Z" fill="#005DF2"/>
</g>
<g filter="url(#filter2_d_274_341)">
<path fill-rule="evenodd" clip-rule="evenodd" d="M84.5166 211.426L123.365 188.469L162.214 211.426L123.365 234.382L84.5166 211.426Z" fill="white"/>
<path fill-rule="evenodd" clip-rule="evenodd" d="M84.5166 211.426L123.365 188.469L162.214 211.426L123.365 234.382L84.5166 211.426Z" stroke="#005DF2" stroke-width="1.14211" stroke-linejoin="round"/>
</g>
<g filter="url(#filter3_d_274_341)">
<path fill-rule="evenodd" clip-rule="evenodd" d="M123.666 280.42L162.515 257.464V211.55L123.666 234.507V280.42Z" fill="white"/>
<path d="M123.666 280.42L162.515 257.464V211.55L123.666 234.507V280.42" stroke="#005DF2" stroke-width="1.14211" stroke-linejoin="round"/>
</g>
<g filter="url(#filter4_d_274_341)">
<path fill-rule="evenodd" clip-rule="evenodd" d="M123.365 280.296V234.383L84.5166 211.426V257.34L123.365 280.296Z" fill="white"/>
<path d="M123.365 280.296V234.383L84.5166 211.426V257.34L123.365 280.296" stroke="#005DF2" stroke-width="1.14211" stroke-linejoin="round"/>
</g>
<path fill-rule="evenodd" clip-rule="evenodd" d="M183.31 153.174L221.856 130.068L260.402 153.174L221.856 176.281L183.31 153.174Z" fill="white" stroke="#005DF2" stroke-width="1.14211" stroke-linejoin="round"/>
<g filter="url(#filter5_d_274_341)">
<path fill-rule="evenodd" clip-rule="evenodd" d="M377.601 156.917L337.097 132.982C335.515 132.047 334.972 129.975 335.886 128.355C336.8 126.736 338.824 126.18 340.406 127.115L380.91 151.05" fill="white"/>
<path d="M377.601 156.917L337.097 132.982C335.515 132.047 334.972 129.975 335.886 128.355C336.8 126.736 338.824 126.18 340.406 127.115L380.91 151.05" stroke="#002C72" stroke-width="1.14211" stroke-linejoin="round"/>
</g>
<g filter="url(#filter6_d_274_341)">
<path fill-rule="evenodd" clip-rule="evenodd" d="M280.559 214.304L240.407 190.894C238.776 189.943 238.218 187.838 239.159 186.191C240.101 184.545 242.185 183.982 243.816 184.931L284.386 208.585" fill="white"/>
<path d="M280.559 214.304L240.407 190.894C238.776 189.943 238.218 187.838 239.159 186.191C240.101 184.545 242.185 183.982 243.816 184.931L284.386 208.585" stroke="#002C72" stroke-width="1.14211" stroke-linejoin="round"/>
</g>
<g filter="url(#filter7_d_274_341)">
<path fill-rule="evenodd" clip-rule="evenodd" d="M354.867 208.442L395.07 184.685C396.653 183.75 398.676 184.305 399.591 185.925C400.504 187.544 399.962 189.616 398.379 190.552L358.176 214.309" fill="white"/>
<path d="M354.867 208.442L395.07 184.685C396.653 183.75 398.676 184.305 399.591 185.925C400.504 187.544 399.962 189.616 398.379 190.552L358.176 214.309" stroke="#002C72" stroke-width="1.14211" stroke-linejoin="round"/>
</g>
<path fill-rule="evenodd" clip-rule="evenodd" d="M280.38 210.499L319.391 187.253L358.403 210.499L319.391 233.745L280.38 210.499Z" fill="white" stroke="#002C72" stroke-width="0.571056" stroke-linejoin="round"/>
<path fill-rule="evenodd" clip-rule="evenodd" d="M280.38 256.729C294.226 264.94 319.136 279.714 319.136 279.714V233.745L280.38 210.76V256.729Z" fill="white" stroke="#002C72" stroke-width="0.571056" stroke-linejoin="round"/>
<path fill-rule="evenodd" clip-rule="evenodd" d="M357.893 252.813V210.76L319.137 233.745V279.714L354.39 258.807" fill="white"/>
<path d="M357.893 252.813V210.76L319.137 233.745V279.714L354.39 258.807" stroke="#002C72" stroke-width="0.571056" stroke-linejoin="round"/>
<g filter="url(#filter8_d_274_341)">
<path fill-rule="evenodd" clip-rule="evenodd" d="M377.459 272.599L336.955 248.664C335.373 247.729 334.83 245.657 335.744 244.037C336.658 242.418 338.682 241.862 340.265 242.798L380.768 266.732" fill="white"/>
<path d="M377.459 272.599L336.955 248.664C335.373 247.729 334.83 245.657 335.744 244.037C336.658 242.418 338.682 241.862 340.265 242.798L380.768 266.732" stroke="#002C72" stroke-width="1.14211" stroke-linejoin="round"/>
</g>
<path opacity="0.3" fill-rule="evenodd" clip-rule="evenodd" d="M99.3638 95.262L123.634 80.9302L147.904 95.262L123.634 109.594L99.3638 95.262Z" stroke="#C1C1C1" stroke-width="1.14211" stroke-linejoin="round"/>
<path opacity="0.3" fill-rule="evenodd" clip-rule="evenodd" d="M99.3638 211.086L123.634 196.754L147.904 211.086L123.634 225.418L99.3638 211.086Z" stroke="#C1C1C1" stroke-width="1.14211" stroke-linejoin="round"/>
<path opacity="0.7" fill-rule="evenodd" clip-rule="evenodd" d="M121.081 150.97V128.456L89.085 109.594V132.109L121.081 150.97Z" fill="#D9ECFF"/>
<path opacity="0.3" fill-rule="evenodd" clip-rule="evenodd" d="M295.236 94.6772L319.506 80.3455L343.776 94.6772L319.506 109.009L295.236 94.6772Z" stroke="#C1C1C1" stroke-width="1.14211" stroke-linejoin="round"/>
<g opacity="0.2">
<path fill-rule="evenodd" clip-rule="evenodd" d="M315.811 133.421V128.456L283.815 109.594V114.56L315.811 133.421Z" fill="#005DF2"/>
<path fill-rule="evenodd" clip-rule="evenodd" d="M315.811 141.632V136.666L283.815 117.804V122.77L315.811 141.632Z" fill="#005DF2"/>
<path fill-rule="evenodd" clip-rule="evenodd" d="M315.811 149.529V144.563L283.815 125.701V130.667L315.811 149.529Z" fill="#005DF2"/>
</g>
<g opacity="0.7">
<path fill-rule="evenodd" clip-rule="evenodd" d="M119.939 250.415V245.45L87.9429 226.588V231.553L119.939 250.415Z" fill="#D9ECFF"/>
<path fill-rule="evenodd" clip-rule="evenodd" d="M119.939 258.625V253.66L87.9429 234.798V239.764L119.939 258.625Z" fill="#D9ECFF"/>
<path fill-rule="evenodd" clip-rule="evenodd" d="M119.939 266.523V261.557L87.9429 242.695V247.661L119.939 266.523Z" fill="#D9ECFF"/>
</g>
<path opacity="0.3" fill-rule="evenodd" clip-rule="evenodd" d="M197.015 152.589L221.285 138.257L245.554 152.589L221.285 166.921L197.015 152.589Z" stroke="#005DF2" stroke-width="1.71317" stroke-linejoin="round"/>
<path opacity="0.3" fill-rule="evenodd" clip-rule="evenodd" d="M295.236 209.916L319.506 195.585L343.776 209.916L319.506 224.248L295.236 209.916Z" stroke="#C1C1C1" stroke-width="1.14211" stroke-linejoin="round"/>
<g opacity="0.7">
<path fill-rule="evenodd" clip-rule="evenodd" d="M315.811 249.245V244.28L283.815 225.418V230.384L315.811 249.245Z" fill="#D9ECFF"/>
<path fill-rule="evenodd" clip-rule="evenodd" d="M315.811 257.456V252.49L283.815 233.628V238.594L315.811 257.456Z" fill="#D9ECFF"/>
<path fill-rule="evenodd" clip-rule="evenodd" d="M315.811 265.353V260.387L283.815 241.525V246.491L315.811 265.353Z" fill="#D9ECFF"/>
</g>
<defs>
<filter id="filter0_d_274_341" x="136.931" y="123.203" width="52.946" height="38.9269" filterUnits="userSpaceOnUse" color-interpolation-filters="sRGB">
<feFlood flood-opacity="0" result="BackgroundImageFix"/>
<feColorMatrix in="SourceAlpha" type="matrix" values="0 0 0 0 0 0 0 0 0 0 0 0 0 0 0 0 0 0 127 0" result="hardAlpha"/>
<feOffset/>
<feGaussianBlur stdDeviation="2.28423"/>
<feComposite in2="hardAlpha" operator="out"/>
<feColorMatrix type="matrix" values="0 0 0 0 0 0 0 0 0 0.364706 0 0 0 0 0.94902 0 0 0 0.5 0"/>
<feBlend mode="normal" in2="BackgroundImageFix" result="effect1_dropShadow_274_341"/>
<feBlend mode="normal" in="SourceGraphic" in2="effect1_dropShadow_274_341" result="shape"/>
</filter>
<filter id="filter1_d_274_341" x="154.046" y="180.119" width="55.1657" height="40.278" filterUnits="userSpaceOnUse" color-interpolation-filters="sRGB">
<feFlood flood-opacity="0" result="BackgroundImageFix"/>
<feColorMatrix in="SourceAlpha" type="matrix" values="0 0 0 0 0 0 0 0 0 0 0 0 0 0 0 0 0 0 127 0" result="hardAlpha"/>
<feOffset/>
<feGaussianBlur stdDeviation="2.28423"/>
<feComposite in2="hardAlpha" operator="out"/>
<feColorMatrix type="matrix" values="0 0 0 0 0 0 0 0 0 0.364706 0 0 0 0 0.94902 0 0 0 0.5 0"/>
<feBlend mode="normal" in2="BackgroundImageFix" result="effect1_dropShadow_274_341"/>
<feBlend mode="normal" in="SourceGraphic" in2="effect1_dropShadow_274_341" result="shape"/>
</filter>
<filter id="filter2_d_274_341" x="78.2347" y="182.188" width="90.261" height="58.4763" filterUnits="userSpaceOnUse" color-interpolation-filters="sRGB">
<feFlood flood-opacity="0" result="BackgroundImageFix"/>
<feColorMatrix in="SourceAlpha" type="matrix" values="0 0 0 0 0 0 0 0 0 0 0 0 0 0 0 0 0 0 127 0" result="hardAlpha"/>
<feOffset/>
<feGaussianBlur stdDeviation="2.85528"/>
<feComposite in2="hardAlpha" operator="out"/>
<feColorMatrix type="matrix" values="0 0 0 0 0 0 0 0 0 0.364706 0 0 0 0 0.94902 0 0 0 0.3 0"/>
<feBlend mode="normal" in2="BackgroundImageFix" result="effect1_dropShadow_274_341"/>
<feBlend mode="normal" in="SourceGraphic" in2="effect1_dropShadow_274_341" result="shape"/>
</filter>
<filter id="filter3_d_274_341" x="117.384" y="205.268" width="51.4123" height="81.3537" filterUnits="userSpaceOnUse" color-interpolation-filters="sRGB">
<feFlood flood-opacity="0" result="BackgroundImageFix"/>
<feColorMatrix in="SourceAlpha" type="matrix" values="0 0 0 0 0 0 0 0 0 0 0 0 0 0 0 0 0 0 127 0" result="hardAlpha"/>
<feOffset/>
<feGaussianBlur stdDeviation="2.85528"/>
<feComposite in2="hardAlpha" operator="out"/>
<feColorMatrix type="matrix" values="0 0 0 0 0 0 0 0 0 0.364706 0 0 0 0 0.94902 0 0 0 0.3 0"/>
<feBlend mode="normal" in2="BackgroundImageFix" result="effect1_dropShadow_274_341"/>
<feBlend mode="normal" in="SourceGraphic" in2="effect1_dropShadow_274_341" result="shape"/>
</filter>
<filter id="filter4_d_274_341" x="78.2347" y="205.144" width="51.4123" height="81.3537" filterUnits="userSpaceOnUse" color-interpolation-filters="sRGB">
<feFlood flood-opacity="0" result="BackgroundImageFix"/>
<feColorMatrix in="SourceAlpha" type="matrix" values="0 0 0 0 0 0 0 0 0 0 0 0 0 0 0 0 0 0 127 0" result="hardAlpha"/>
<feOffset/>
<feGaussianBlur stdDeviation="2.85528"/>
<feComposite in2="hardAlpha" operator="out"/>
<feColorMatrix type="matrix" values="0 0 0 0 0 0 0 0 0 0.364706 0 0 0 0 0.94902 0 0 0 0.3 0"/>
<feBlend mode="normal" in2="BackgroundImageFix" result="effect1_dropShadow_274_341"/>
<feBlend mode="normal" in="SourceGraphic" in2="effect1_dropShadow_274_341" result="shape"/>
</filter>
<filter id="filter5_d_274_341" x="332.587" y="123.806" width="50.8976" height="35.8873" filterUnits="userSpaceOnUse" color-interpolation-filters="sRGB">
<feFlood flood-opacity="0" result="BackgroundImageFix"/>
<feColorMatrix in="SourceAlpha" type="matrix" values="0 0 0 0 0 0 0 0 0 0 0 0 0 0 0 0 0 0 127 0" result="hardAlpha"/>
<feOffset/>
<feGaussianBlur stdDeviation="1.14211"/>
<feComposite in2="hardAlpha" operator="out"/>
<feColorMatrix type="matrix" values="0 0 0 0 0 0 0 0 0 0.364706 0 0 0 0 0.94902 0 0 0 0.5 0"/>
<feBlend mode="normal" in2="BackgroundImageFix" result="effect1_dropShadow_274_341"/>
<feBlend mode="normal" in="SourceGraphic" in2="effect1_dropShadow_274_341" result="shape"/>
</filter>
<filter id="filter6_d_274_341" x="235.846" y="181.614" width="51.1119" height="35.4666" filterUnits="userSpaceOnUse" color-interpolation-filters="sRGB">
<feFlood flood-opacity="0" result="BackgroundImageFix"/>
<feColorMatrix in="SourceAlpha" type="matrix" values="0 0 0 0 0 0 0 0 0 0 0 0 0 0 0 0 0 0 127 0" result="hardAlpha"/>
<feOffset/>
<feGaussianBlur stdDeviation="1.14211"/>
<feComposite in2="hardAlpha" operator="out"/>
<feColorMatrix type="matrix" values="0 0 0 0 0 0 0 0 0 0.364706 0 0 0 0 0.94902 0 0 0 0.5 0"/>
<feBlend mode="normal" in2="BackgroundImageFix" result="effect1_dropShadow_274_341"/>
<feBlend mode="normal" in="SourceGraphic" in2="effect1_dropShadow_274_341" result="shape"/>
</filter>
<filter id="filter7_d_274_341" x="352.292" y="181.375" width="50.5977" height="35.7096" filterUnits="userSpaceOnUse" color-interpolation-filters="sRGB">
<feFlood flood-opacity="0" result="BackgroundImageFix"/>
<feColorMatrix in="SourceAlpha" type="matrix" values="0 0 0 0 0 0 0 0 0 0 0 0 0 0 0 0 0 0 127 0" result="hardAlpha"/>
<feOffset/>
<feGaussianBlur stdDeviation="1.14211"/>
<feComposite in2="hardAlpha" operator="out"/>
<feColorMatrix type="matrix" values="0 0 0 0 0 0 0 0 0 0.364706 0 0 0 0 0.94902 0 0 0 0.5 0"/>
<feBlend mode="normal" in2="BackgroundImageFix" result="effect1_dropShadow_274_341"/>
<feBlend mode="normal" in="SourceGraphic" in2="effect1_dropShadow_274_341" result="shape"/>
</filter>
<filter id="filter8_d_274_341" x="332.445" y="239.488" width="50.8976" height="35.8871" filterUnits="userSpaceOnUse" color-interpolation-filters="sRGB">
<feFlood flood-opacity="0" result="BackgroundImageFix"/>
<feColorMatrix in="SourceAlpha" type="matrix" values="0 0 0 0 0 0 0 0 0 0 0 0 0 0 0 0 0 0 127 0" result="hardAlpha"/>
<feOffset/>
<feGaussianBlur stdDeviation="1.14211"/>
<feComposite in2="hardAlpha" operator="out"/>
<feColorMatrix type="matrix" values="0 0 0 0 0 0 0 0 0 0.364706 0 0 0 0 0.94902 0 0 0 0.5 0"/>
<feBlend mode="normal" in2="BackgroundImageFix" result="effect1_dropShadow_274_341"/>
<feBlend mode="normal" in="SourceGraphic" in2="effect1_dropShadow_274_341" result="shape"/>
</filter>
<linearGradient id="paint0_linear_274_341" x1="244.983" y1="243.845" x2="224.906" y2="213.869" gradientUnits="userSpaceOnUse">
<stop stop-color="#C1C1C1" stop-opacity="0"/>
<stop offset="0.953125" stop-color="#C1C1C1" stop-opacity="0.35"/>
</linearGradient>
<linearGradient id="paint1_linear_274_341" x1="150.546" y1="162.034" x2="217.451" y2="204.939" gradientUnits="userSpaceOnUse">
<stop stop-color="#C1C1C1" stop-opacity="0"/>
<stop offset="0.953125" stop-color="#C1C1C1" stop-opacity="0.35"/>
</linearGradient>
<linearGradient id="paint2_linear_274_341" x1="276.391" y1="155.807" x2="231.725" y2="229.153" gradientUnits="userSpaceOnUse">
<stop stop-color="#C1C1C1" stop-opacity="0"/>
<stop offset="0.953125" stop-color="#C1C1C1" stop-opacity="0.35"/>
</linearGradient>
<linearGradient id="paint3_linear_274_341" x1="206.722" y1="252.327" x2="234.855" y2="203.181" gradientUnits="userSpaceOnUse">
<stop stop-color="#C1C1C1" stop-opacity="0"/>
<stop offset="1" stop-color="#C1C1C1" stop-opacity="0.35"/>
</linearGradient>
</defs>
</svg>
