<svg width="348" height="292" viewBox="0 0 348 292" fill="none" xmlns="http://www.w3.org/2000/svg">
<path fill-rule="evenodd" clip-rule="evenodd" d="M96.2149 97.0926V53.8344L55.23 77.4778V124.764L92.7235 103.135" fill="white"/>
<path d="M96.2149 97.0926V53.8344L55.23 77.4778V124.764L92.7235 103.135" stroke="#002C72" stroke-width="0.546842" stroke-linejoin="round"/>
<g filter="url(#filter0_d_1662_5930)">
<path d="M74.3263 92.1085L118.607 117.412L119.21 111.086L78.2423 87.2885C76.5432 86.3196 74.4096 86.5929 73.4284 88.2726C72.8202 89.3974 72.6272 91.1382 74.3263 92.1085Z" fill="white"/>
<path d="M74.3263 92.1085L118.607 117.412L119.21 111.086L78.2423 87.2885C76.5432 86.3196 74.4096 86.5929 73.4284 88.2726C72.8202 89.3974 72.6272 91.1382 74.3263 92.1085Z" stroke="#002C72" stroke-width="0.546842" stroke-linejoin="round"/>
</g>
<path fill-rule="evenodd" clip-rule="evenodd" d="M186.53 145.179L186.53 104.054L145.642 127.726L145.642 172.884L184.175 150.594" fill="#D9ECFF"/>
<path d="M186.53 145.179L186.53 104.054L145.642 127.726L145.642 172.884L184.175 150.594" stroke="#002C72" stroke-width="0.546842" stroke-linejoin="round"/>
<path fill-rule="evenodd" clip-rule="evenodd" d="M108.237 151.229L145.641 172.885V127.568L104.753 103.896V145.088" fill="#D9ECFF"/>
<path d="M108.237 151.229L145.641 172.885V127.568L104.753 103.896V145.088" stroke="#002C72" stroke-width="0.546842" stroke-linejoin="round"/>
<g filter="url(#filter1_d_1662_5930)">
<path fill-rule="evenodd" clip-rule="evenodd" d="M79.3052 159.426L121.719 134.958C123.39 133.996 125.524 134.567 126.489 136.235C127.452 137.903 126.88 140.037 125.21 141L82.7966 165.468" fill="white"/>
<path d="M121.719 134.958L121.583 134.721L121.582 134.721L121.719 134.958ZM126.489 136.235L126.726 136.098L126.726 136.098L126.489 136.235ZM125.21 141L125.074 140.764L125.21 141ZM79.4418 159.662L121.856 135.195L121.582 134.721L79.1685 159.189L79.4418 159.662ZM121.856 135.195C123.396 134.308 125.363 134.834 126.252 136.372L126.726 136.098C125.685 134.299 123.384 133.683 121.583 134.721L121.856 135.195ZM126.252 136.372C127.14 137.909 126.613 139.876 125.074 140.764L125.347 141.237C127.148 140.199 127.765 137.897 126.726 136.098L126.252 136.372ZM125.074 140.764L82.6599 165.231L82.9332 165.705L125.347 141.237L125.074 140.764Z" fill="#002C72"/>
</g>
<path fill-rule="evenodd" clip-rule="evenodd" d="M0.826172 161.44L41.8116 137.797L82.7971 161.44L41.8116 185.083L0.826172 161.44Z" fill="white" stroke="#002C72" stroke-width="0.546842" stroke-linejoin="round"/>
<path fill-rule="evenodd" clip-rule="evenodd" d="M42.1284 232.497L83.1139 208.854V161.568L42.1284 185.211V232.497Z" fill="white"/>
<path d="M42.1284 232.497L83.1139 208.854V161.568L42.1284 185.211V232.497" stroke="#002C72" stroke-width="0.546842" stroke-linejoin="round"/>
<path fill-rule="evenodd" clip-rule="evenodd" d="M41.8114 232.369V185.083L0.825928 161.44V208.726L41.8114 232.369Z" fill="white"/>
<path d="M41.8114 232.369V185.083L0.825928 161.44V208.726L41.8114 232.369" stroke="#002C72" stroke-width="0.546842" stroke-linejoin="round"/>
<path fill-rule="evenodd" clip-rule="evenodd" d="M104.801 104.057L145.467 80.2594L186.585 104.358L145.718 128.108L104.801 104.057Z" fill="#D9ECFF" stroke="#002C72" stroke-width="0.546842" stroke-linejoin="round"/>
<g filter="url(#filter2_d_1662_5930)">
<path fill-rule="evenodd" clip-rule="evenodd" d="M122.272 80.9773C136.88 89.4341 163.113 104.51 163.113 104.51V27.697L122.225 6.43457V76.7132" fill="white"/>
<path d="M122.272 80.9773C136.88 89.4341 163.113 104.51 163.113 104.51V27.697L122.225 6.43457V76.7132L122.272 80.9773Z" stroke="#002C72" stroke-width="0.546842" stroke-linejoin="round"/>
</g>
<path fill-rule="evenodd" clip-rule="evenodd" d="M159.547 46.79V41.6759L125.791 22.8527V27.9667L159.547 46.79Z" fill="#005DF2"/>
<path fill-rule="evenodd" clip-rule="evenodd" d="M159.547 55.2458V50.1318L125.791 31.3085V36.4225L159.547 55.2458Z" fill="#005DF2"/>
<path fill-rule="evenodd" clip-rule="evenodd" d="M159.547 63.3791V58.265L125.791 39.4417V44.5558L159.547 63.3791Z" fill="#005DF2"/>
<path fill-rule="evenodd" clip-rule="evenodd" d="M146.672 63.9815V58.8674L125.791 47.4244V52.5384L146.672 63.9815Z" fill="#005DF2"/>
<path fill-rule="evenodd" clip-rule="evenodd" d="M14.2449 53.8343L55.2303 30.1913L96.2153 53.8343L55.2303 77.4773L14.2449 53.8343Z" fill="white" stroke="#002C72" stroke-width="0.546842" stroke-linejoin="round"/>
<path fill-rule="evenodd" clip-rule="evenodd" d="M14.2449 53.8344V101.121L55.2303 124.764V77.4773L14.2449 53.8344Z" fill="white" stroke="#002C72" stroke-width="0.546842" stroke-linejoin="round"/>
<path fill-rule="evenodd" clip-rule="evenodd" d="M207.611 41.3439L248.768 17.403L289.925 41.3439L248.768 65.2849L207.611 41.3439Z" fill="white" stroke="#002C72" stroke-width="0.546842" stroke-linejoin="round"/>
<path fill-rule="evenodd" clip-rule="evenodd" d="M289.387 84.924V41.613L248.499 65.2853V112.629L285.691 91.0967" fill="white"/>
<path d="M289.387 84.924V41.613L248.499 65.2853V112.629L285.691 91.0967" stroke="#002C72" stroke-width="0.546842" stroke-linejoin="round"/>
<path fill-rule="evenodd" clip-rule="evenodd" d="M207.611 88.9562L248.499 112.629V65.2853L207.611 41.613V88.9562Z" fill="white" stroke="#002C72" stroke-width="0.546842" stroke-linejoin="round"/>
<path fill-rule="evenodd" clip-rule="evenodd" d="M310.03 105.301L267.298 80.6505C265.629 79.6877 265.056 77.5538 266.02 75.8853C266.984 74.2173 269.12 73.6452 270.789 74.6085L313.521 99.2591" fill="white"/>
<path d="M310.03 105.301L267.298 80.6505C265.629 79.6877 265.056 77.5538 266.02 75.8853C266.984 74.2173 269.12 73.6452 270.789 74.6085L313.521 99.2591" stroke="#002C72" stroke-width="0.546842" stroke-linejoin="round"/>
<path fill-rule="evenodd" clip-rule="evenodd" d="M310.03 101.273L351.015 77.6301L392 101.273L351.015 124.916L310.03 101.273Z" fill="white" stroke="#002C72" stroke-width="0.546842" stroke-linejoin="round"/>
<path fill-rule="evenodd" clip-rule="evenodd" d="M313.521 150.574L313.882 150.781L351.015 172.202V124.916L310.03 101.273V144.531" fill="white"/>
<path d="M313.521 150.574L313.882 150.781L351.015 172.202V124.916L310.03 101.273V144.531" stroke="#002C72" stroke-width="0.546842" stroke-linejoin="round"/>
<g filter="url(#filter3_d_1662_5930)">
<g filter="url(#filter4_d_1662_5930)">
<path fill-rule="evenodd" clip-rule="evenodd" d="M207.65 164.404L165.29 140.294C163.569 139.315 162.98 137.146 163.974 135.451C164.967 133.755 167.166 133.175 168.886 134.153L211.688 158.514" fill="white"/>
<path d="M207.65 164.404L165.29 140.294C163.569 139.315 162.98 137.146 163.974 135.451C164.967 133.755 167.166 133.175 168.886 134.153L211.688 158.514" stroke="#002C72" stroke-width="0.546842" stroke-linejoin="round"/>
</g>
</g>
<path fill-rule="evenodd" clip-rule="evenodd" d="M286.045 158.367L328.459 133.899C330.129 132.937 332.264 133.508 333.228 135.176C334.192 136.844 333.62 138.978 331.95 139.941L289.536 164.409" fill="white"/>
<path d="M286.045 158.367L328.459 133.899C330.129 132.937 332.264 133.508 333.228 135.176C334.192 136.844 333.62 138.978 331.95 139.941L289.536 164.409" stroke="#002C72" stroke-width="0.546842" stroke-linejoin="round"/>
<path fill-rule="evenodd" clip-rule="evenodd" d="M207.462 160.485L248.619 136.544L289.776 160.485L248.619 184.426L207.462 160.485Z" fill="white" stroke="#002C72" stroke-width="0.546842" stroke-linejoin="round"/>
<path fill-rule="evenodd" clip-rule="evenodd" d="M207.462 208.097C222.069 216.554 248.35 231.77 248.35 231.77V184.427L207.462 160.754V208.097Z" fill="white" stroke="#002C72" stroke-width="0.546842" stroke-linejoin="round"/>
<path fill-rule="evenodd" clip-rule="evenodd" d="M289.238 204.065V160.754L248.35 184.427V231.77L285.542 210.238" fill="white"/>
<path d="M289.238 204.065V160.754L248.35 184.427V231.77L285.542 210.238" stroke="#002C72" stroke-width="0.546842" stroke-linejoin="round"/>
<path fill-rule="evenodd" clip-rule="evenodd" d="M309.88 224.443L267.149 199.792C265.479 198.829 264.907 196.695 265.871 195.027C266.835 193.359 268.971 192.787 270.64 193.75L313.371 218.401" fill="white"/>
<path d="M309.88 224.443L267.149 199.792C265.479 198.829 264.907 196.695 265.871 195.027C266.835 193.359 268.971 192.787 270.64 193.75L313.371 218.401" stroke="#002C72" stroke-width="0.546842" stroke-linejoin="round"/>
<path fill-rule="evenodd" clip-rule="evenodd" d="M309.634 220.443L350.619 196.8L391.604 220.443L350.619 244.086L309.634 220.443Z" fill="white" stroke="#002C72" stroke-width="0.546842" stroke-linejoin="round"/>
<path fill-rule="evenodd" clip-rule="evenodd" d="M309.635 220.443V267.729L350.62 291.372V244.085L309.635 220.443Z" fill="white" stroke="#002C72" stroke-width="0.546842" stroke-linejoin="round"/>
<path opacity="0.3" fill-rule="evenodd" clip-rule="evenodd" d="M28.5393 53.2496L54.144 38.4893L79.7487 53.2496L54.144 68.0099L28.5393 53.2496Z" stroke="#C1C1C1" stroke-width="1.09368" stroke-linejoin="round"/>
<path opacity="0.3" fill-rule="evenodd" clip-rule="evenodd" d="M16.49 161.09L42.0947 146.33L67.6993 161.09L42.0947 175.851L16.49 161.09Z" stroke="#C1C1C1" stroke-width="1.09368" stroke-linejoin="round"/>
<path opacity="0.7" fill-rule="evenodd" clip-rule="evenodd" d="M51.4507 110.624V87.4356L17.6948 68.0099V91.1978L51.4507 110.624Z" fill="#D9ECFF"/>
<path opacity="0.3" fill-rule="evenodd" clip-rule="evenodd" d="M223.135 41.2003L248.739 26.4399L274.344 41.2003L248.739 55.9606L223.135 41.2003Z" stroke="#C1C1C1" stroke-width="1.09368" stroke-linejoin="round"/>
<g opacity="0.7">
<path fill-rule="evenodd" clip-rule="evenodd" d="M244.841 81.1029V75.9889L211.085 56.5631V61.6772L244.841 81.1029Z" fill="#D9ECFF"/>
<path fill-rule="evenodd" clip-rule="evenodd" d="M244.841 89.5587V84.4447L211.085 65.0189V70.133L244.841 89.5587Z" fill="#D9ECFF"/>
<path fill-rule="evenodd" clip-rule="evenodd" d="M244.841 97.692V92.5779L211.085 73.1522V78.2662L244.841 97.692Z" fill="#D9ECFF"/>
</g>
<g opacity="0.7">
<path fill-rule="evenodd" clip-rule="evenodd" d="M38.1966 201.596V196.482L4.44067 177.056V182.17L38.1966 201.596Z" fill="#D9ECFF"/>
<path fill-rule="evenodd" clip-rule="evenodd" d="M38.1966 210.051V204.937L4.44067 185.512V190.626L38.1966 210.051Z" fill="#D9ECFF"/>
<path fill-rule="evenodd" clip-rule="evenodd" d="M38.1966 218.185V213.071L4.44067 193.645V198.759L38.1966 218.185Z" fill="#D9ECFF"/>
</g>
<path opacity="0.3" fill-rule="evenodd" clip-rule="evenodd" d="M324.951 100.844L350.556 86.0839L376.16 100.844L350.556 115.605L324.951 100.844Z" stroke="#C1C1C1" stroke-width="1.09368" stroke-linejoin="round"/>
<path opacity="0.3" fill-rule="evenodd" clip-rule="evenodd" d="M223.135 159.886L248.739 145.125L274.344 159.886L248.739 174.646L223.135 159.886Z" stroke="#C1C1C1" stroke-width="1.09368" stroke-linejoin="round"/>
<g opacity="0.7">
<path fill-rule="evenodd" clip-rule="evenodd" d="M244.841 200.391V195.276L211.085 175.851V180.965L244.841 200.391Z" fill="#D9ECFF"/>
<path fill-rule="evenodd" clip-rule="evenodd" d="M244.841 208.846V203.732L211.085 184.307V189.421L244.841 208.846Z" fill="#D9ECFF"/>
<path fill-rule="evenodd" clip-rule="evenodd" d="M244.841 216.98V211.866L211.085 192.44V197.554L244.841 216.98Z" fill="#D9ECFF"/>
</g>
<path opacity="0.3" fill-rule="evenodd" clip-rule="evenodd" d="M324.951 220.132L350.556 205.372L376.16 220.132L350.556 234.892L324.951 220.132Z" stroke="#C1C1C1" stroke-width="1.09368" stroke-linejoin="round"/>
<path opacity="0.7" fill-rule="evenodd" clip-rule="evenodd" d="M347.26 278.711V255.523L313.504 236.097V259.285L347.26 278.711Z" fill="#D9ECFF"/>
<defs>
<filter id="filter0_d_1662_5930" x="68.343" y="82.0839" width="55.5149" height="39.9763" filterUnits="userSpaceOnUse" color-interpolation-filters="sRGB">
<feFlood flood-opacity="0" result="BackgroundImageFix"/>
<feColorMatrix in="SourceAlpha" type="matrix" values="0 0 0 0 0 0 0 0 0 0 0 0 0 0 0 0 0 0 127 0" result="hardAlpha"/>
<feOffset/>
<feGaussianBlur stdDeviation="2.18737"/>
<feComposite in2="hardAlpha" operator="out"/>
<feColorMatrix type="matrix" values="0 0 0 0 0 0 0 0 0 0.364706 0 0 0 0 0.94902 0 0 0 0.5 0"/>
<feBlend mode="normal" in2="BackgroundImageFix" result="effect1_dropShadow_1662_5930"/>
<feBlend mode="normal" in="SourceGraphic" in2="effect1_dropShadow_1662_5930" result="shape"/>
</filter>
<filter id="filter1_d_1662_5930" x="74.7937" y="129.842" width="56.8112" height="40.2375" filterUnits="userSpaceOnUse" color-interpolation-filters="sRGB">
<feFlood flood-opacity="0" result="BackgroundImageFix"/>
<feColorMatrix in="SourceAlpha" type="matrix" values="0 0 0 0 0 0 0 0 0 0 0 0 0 0 0 0 0 0 127 0" result="hardAlpha"/>
<feOffset/>
<feGaussianBlur stdDeviation="2.18737"/>
<feComposite in2="hardAlpha" operator="out"/>
<feColorMatrix type="matrix" values="0 0 0 0 0 0 0 0 0 0.364706 0 0 0 0 0.94902 0 0 0 0.5 0"/>
<feBlend mode="normal" in2="BackgroundImageFix" result="effect1_dropShadow_1662_5930"/>
<feBlend mode="normal" in="SourceGraphic" in2="effect1_dropShadow_1662_5930" result="shape"/>
</filter>
<filter id="filter2_d_1662_5930" x="116.483" y="0.692711" width="52.3717" height="109.559" filterUnits="userSpaceOnUse" color-interpolation-filters="sRGB">
<feFlood flood-opacity="0" result="BackgroundImageFix"/>
<feColorMatrix in="SourceAlpha" type="matrix" values="0 0 0 0 0 0 0 0 0 0 0 0 0 0 0 0 0 0 127 0" result="hardAlpha"/>
<feOffset/>
<feGaussianBlur stdDeviation="2.73421"/>
<feComposite in2="hardAlpha" operator="out"/>
<feColorMatrix type="matrix" values="0 0 0 0 0 0 0 0 0 0.364706 0 0 0 0 0.94902 0 0 0 0.3 0"/>
<feBlend mode="normal" in2="BackgroundImageFix" result="effect1_dropShadow_1662_5930"/>
<feBlend mode="normal" in="SourceGraphic" in2="effect1_dropShadow_1662_5930" result="shape"/>
</filter>
<filter id="filter3_d_1662_5930" x="161.03" y="131.217" width="52.9804" height="35.6114" filterUnits="userSpaceOnUse" color-interpolation-filters="sRGB">
<feFlood flood-opacity="0" result="BackgroundImageFix"/>
<feColorMatrix in="SourceAlpha" type="matrix" values="0 0 0 0 0 0 0 0 0 0 0 0 0 0 0 0 0 0 127 0" result="hardAlpha"/>
<feOffset/>
<feGaussianBlur stdDeviation="1.09368"/>
<feComposite in2="hardAlpha" operator="out"/>
<feColorMatrix type="matrix" values="0 0 0 0 0 0 0 0 0 0.364706 0 0 0 0 0.94902 0 0 0 0.5 0"/>
<feBlend mode="normal" in2="BackgroundImageFix" result="effect1_dropShadow_1662_5930"/>
<feBlend mode="normal" in="SourceGraphic" in2="effect1_dropShadow_1662_5930" result="shape"/>
</filter>
<filter id="filter4_d_1662_5930" x="158.843" y="129.03" width="57.3552" height="39.9862" filterUnits="userSpaceOnUse" color-interpolation-filters="sRGB">
<feFlood flood-opacity="0" result="BackgroundImageFix"/>
<feColorMatrix in="SourceAlpha" type="matrix" values="0 0 0 0 0 0 0 0 0 0 0 0 0 0 0 0 0 0 127 0" result="hardAlpha"/>
<feOffset/>
<feGaussianBlur stdDeviation="2.18737"/>
<feComposite in2="hardAlpha" operator="out"/>
<feColorMatrix type="matrix" values="0 0 0 0 0 0 0 0 0 0.364706 0 0 0 0 0.94902 0 0 0 0.5 0"/>
<feBlend mode="normal" in2="BackgroundImageFix" result="effect1_dropShadow_1662_5930"/>
<feBlend mode="normal" in="SourceGraphic" in2="effect1_dropShadow_1662_5930" result="shape"/>
</filter>
</defs>
</svg>
