<svg width="90" height="76" viewBox="0 0 90 76" fill="none" xmlns="http://www.w3.org/2000/svg">
<g opacity="0.4" filter="url(#filter0_f_1901_7296)">
<path d="M46.8229 25.2852L77.7969 42.6434C79.7917 43.7638 79.8189 46.6102 77.8423 47.7668L47.6117 65.4864C46.4511 66.1641 45.0094 66.1731 43.8397 65.5044L11.9952 47.2698C9.97319 46.1132 10.0095 43.1946 12.0587 42.0922L43.1869 25.2491C44.3203 24.6346 45.6895 24.6437 46.8138 25.2762L46.8229 25.2852Z" fill="#C1C1C1"/>
<path d="M46.5185 25.6878L46.5109 25.6803C45.5479 25.1638 44.3886 25.1664 43.4252 25.6886L43.4248 25.6888L12.2966 42.5319L12.2956 42.5325C10.5928 43.4485 10.5613 45.8736 12.2435 46.8358L12.2437 46.8359L44.0879 65.0704C45.102 65.6501 46.3529 65.6424 47.3596 65.0546L77.5894 47.3354L77.5897 47.3352C79.2326 46.3739 79.2104 44.0112 77.5525 43.0795L46.5185 25.6878ZM46.5185 25.6878L46.5784 25.7214L77.5521 43.0793L46.5185 25.6878Z" stroke="#002C72"/>
</g>
<path d="M80.0897 38.608L80.0504 45.662L80.0347 46.0774C79.9014 46.7514 79.4934 47.3785 78.8186 47.7782L52.6593 63.148C51.655 63.7359 50.4074 63.7437 49.3953 63.1637L21.8394 47.3471C21.1411 46.9474 20.7252 46.3047 20.5918 45.615V45.2701L20.5447 38.1221" fill="#D9ECFF"/>
<path d="M80.0897 38.608L80.0504 45.662L80.0347 46.0774C79.9014 46.7514 79.4934 47.3785 78.8186 47.7782L52.6593 63.148C51.655 63.7359 50.4074 63.7437 49.3953 63.1637L21.8394 47.3471C21.1411 46.9474 20.7252 46.3047 20.5918 45.615V45.2701L20.5447 38.1221" stroke="#002C72"/>
<path d="M51.9845 21.2768L78.7872 36.3332C80.5133 37.3051 80.5369 39.774 78.8264 40.7772L52.6671 56.147C51.6628 56.7349 50.4152 56.7427 49.4031 56.1627L21.8472 40.3461C20.0975 39.3429 20.1289 36.8113 21.9021 35.8551L48.8382 21.2455C49.8189 20.7125 51.0037 20.7204 51.9766 21.269L51.9845 21.2768Z" fill="white" stroke="#002C72" stroke-linejoin="round"/>
<path d="M37.5136 33.8417C37.5828 31.2129 38.0258 28.6084 38.8164 26.1075L38.8164 26.1075L38.818 26.1023C41.3543 17.7655 47.2879 9.54206 54.156 5.5887L54.1566 5.58837C57.6547 3.56855 60.8376 2.97424 63.403 3.52751C63.835 3.62434 64.2557 3.75003 64.6587 3.91104L64.6723 3.91648L64.6862 3.92112L64.718 3.9317C68.0695 5.29782 70.2994 9.01196 70.2994 14.7645C70.2994 16.1074 70.1842 17.4515 69.961 18.7891L69.9607 18.7914C68.4048 28.3868 61.6723 38.8136 53.6489 43.4407L53.8987 43.8739L53.6489 43.4408C49.0531 46.0914 45.0015 46.2792 42.155 44.627L42.1362 44.6082L42.0765 44.5747C41.678 44.3503 41.3086 44.0825 40.9755 43.7788L40.9756 43.7787L40.9685 43.7725C38.8427 41.9061 37.5136 38.6872 37.5136 34.257V33.8417Z" fill="white" stroke="#002C72"/>
<path d="M65.363 15.0891C65.4631 14.9 65.4319 14.6682 65.2852 14.5124L62.005 11.0272C61.8934 10.9087 61.7311 10.8519 61.5699 10.875C61.4088 10.8981 61.269 10.9982 61.1952 11.1434L52.2133 28.813L45.7033 24.8828C45.5802 24.8084 45.4309 24.7908 45.2937 24.8343C45.1566 24.8778 45.0448 24.9783 44.987 25.1101L43.1419 29.3182C43.04 29.5505 43.1282 29.8222 43.3471 29.9504L53.6917 36.0099C53.8094 36.0788 53.95 36.0966 54.0812 36.0594C54.2123 36.0221 54.3225 35.9329 54.3863 35.8125L65.363 15.0891Z" fill="#005DF2" stroke="#002C72" stroke-linecap="round" stroke-linejoin="round"/>
<path d="M33.3418 32.4312C33.3418 21.7405 40.9134 8.69843 50.2426 3.32173C54.9582 0.602028 59.2186 0.35122 62.2865 2.1539L62.3101 2.16958L64.8444 3.44713C64.4128 3.2747 63.9656 3.14146 63.5105 3.03957C60.7879 2.45174 57.4768 3.09443 53.9068 5.15576C46.9079 9.18437 40.8977 17.5237 38.3399 25.9572C37.4925 28.6455 37.0452 31.4436 37.006 34.2574C37.006 38.7797 38.3634 42.1578 40.631 44.1486C40.9997 44.4778 41.3999 44.7678 41.8236 45.0107L39.2343 43.7097L39.203 43.694C35.6094 42.2205 33.334 38.2781 33.334 32.4233L33.3418 32.4312Z" fill="#005DF2" stroke="#002C72" stroke-linecap="round" stroke-linejoin="round"/>
<defs>
<filter id="filter0_f_1901_7296" x="0.5" y="14.7949" width="88.809" height="61.2051" filterUnits="userSpaceOnUse" color-interpolation-filters="sRGB">
<feFlood flood-opacity="0" result="BackgroundImageFix"/>
<feBlend mode="normal" in="SourceGraphic" in2="BackgroundImageFix" result="shape"/>
<feGaussianBlur stdDeviation="5" result="effect1_foregroundBlur_1901_7296"/>
</filter>
</defs>
</svg>
