<svg width="88" height="76" viewBox="0 0 88 76" fill="none" xmlns="http://www.w3.org/2000/svg">
<g opacity="0.4" filter="url(#filter0_f_1901_7219)">
<path d="M45.6586 26.5898L75.6398 43.3916C77.5707 44.4761 77.597 47.2312 75.6837 48.3508L46.4222 65.5024C45.2988 66.1584 43.9033 66.1671 42.7711 65.5199L11.9473 47.8697C9.99008 46.7502 10.0252 43.9251 12.0087 42.8581L42.1392 26.5548C43.2362 25.9601 44.5615 25.9688 45.6498 26.5811L45.6586 26.5898Z" fill="#C1C1C1"/>
<path d="M45.3543 26.9924L45.347 26.9852C44.42 26.489 43.3045 26.4918 42.3774 26.9944L42.3771 26.9946L12.2467 43.2978L12.2456 43.2984C10.6086 44.179 10.5782 46.5106 12.1955 47.4357L12.1957 47.4358L43.0192 65.0858C43.9958 65.6441 45.2006 65.6367 46.1701 65.0706L75.4309 47.9194L75.4312 47.9192C77.0107 46.995 76.9894 44.7235 75.3954 43.8278L45.3543 26.9924ZM45.3543 26.9924L45.4142 27.026L75.395 43.8275L45.3543 26.9924Z" stroke="#002C72"/>
</g>
<path d="M77.7747 38.3387L77.7365 45.3425L77.7226 45.7558C77.5907 46.4259 77.1844 47.0475 76.5142 47.4434L50.544 62.7012C49.5474 63.2845 48.3078 63.2915 47.3043 62.7151L19.9416 47.0128C19.2471 46.6169 18.8339 45.978 18.7019 45.2939V44.9502L18.6568 37.8525" fill="#D9ECFF"/>
<path d="M77.7747 38.3387L77.7365 45.3425L77.7227 45.7558C77.5907 46.4259 77.1844 47.0475 76.5142 47.4434L50.544 62.7012C49.5474 63.2845 48.3078 63.2915 47.3043 62.7151L19.9416 47.0128C19.2471 46.6169 18.8339 45.978 18.7019 45.2939V44.9502L18.6568 37.8525" stroke="#002C72"/>
<path d="M49.8703 21.1325L76.4794 36.0813C78.1913 37.0466 78.2157 39.4981 76.5176 40.4947L50.5474 55.7525C49.5508 56.3359 48.3112 56.3428 47.3076 55.7664L19.9485 40.0641C18.2122 39.0675 18.2435 36.5535 20.004 35.6055L46.7451 21.1012C47.7174 20.5734 48.8945 20.5804 49.8599 21.1255L49.8668 21.1325H49.8703Z" fill="white" stroke="#002C72" stroke-linejoin="round"/>
<path d="M35.2652 33.7589C35.3208 31.0713 35.7653 28.4114 36.5743 25.8592C39.1057 17.5358 45.0297 9.31658 51.9085 5.35455C55.4157 3.33013 58.6346 2.71551 61.2563 3.28152C61.6973 3.37874 62.1279 3.50722 62.5411 3.6739H62.548L62.555 3.68084L62.5932 3.69473C66.0448 5.09759 68.2879 8.89989 68.2879 14.671C68.2879 16.0183 68.1733 17.3656 67.9476 18.706C66.392 28.2968 59.6729 38.7106 51.6377 43.3463C47.0194 46.0096 42.8907 46.2214 39.9634 44.5095L39.946 44.4922L39.9148 44.4748C39.5051 44.2422 39.1231 43.9678 38.7793 43.6519C36.6021 41.7386 35.2687 38.4675 35.2687 34.0263V33.7659H35.2652V33.7589Z" fill="white" stroke="#002C72"/>
<path d="M31.3623 32.2028C31.3623 21.5876 38.8801 8.64245 48.1411 3.30187C52.8219 0.603801 57.0513 0.35726 60.0966 2.14556L60.1209 2.15944L62.6384 3.42688C62.2113 3.25673 61.7668 3.12478 61.3154 3.0206C58.6104 2.43724 55.3255 3.07616 51.7801 5.12142C44.8318 9.12164 38.8662 17.3999 36.3244 25.7719C35.4841 28.4422 35.0396 31.2201 35.0014 34.0119C35.0014 38.5018 36.3487 41.8561 38.5988 43.8319C38.9634 44.1584 39.3628 44.4466 39.7829 44.6896L37.2133 43.3979L37.1821 43.384C33.6159 41.9221 31.3554 38.0052 31.3554 32.1959L31.3623 32.2028Z" fill="#005DF2" stroke="#002C72" stroke-linecap="round" stroke-linejoin="round"/>
<path d="M64.1731 19.1989L60.2667 10.2782C60.1833 10.0942 60.0201 10.1081 59.8916 10.306L57.1241 14.6222C56.9956 14.8201 56.9609 15.1222 57.0408 15.3097L57.3568 16.0251L56.8359 16.8237C54.3254 16.3897 52.3009 17.487 51.3078 18.1502C50.787 18.4974 50.5161 19.0079 50.4988 19.0322H50.4953L49.3945 19.8135C49.016 20.0809 48.6306 20.1017 48.3077 19.8968L48.6132 19.0495C48.6549 18.935 48.6723 18.803 48.6618 18.6849C48.6514 18.5669 48.6132 18.4766 48.5507 18.428L45.8839 16.3306C45.7624 16.2369 45.5922 16.3584 45.5054 16.6015L41.2621 28.2376C41.217 28.3522 41.2031 28.4806 41.2135 28.5952C41.2239 28.7133 41.2621 28.8001 41.3246 28.8487L43.9949 30.9773C44.0401 31.012 44.0956 31.0224 44.1512 31.0016C44.2345 30.9669 44.3213 30.8662 44.3734 30.7169L44.6616 29.9321L45.554 30.7516L45.1373 31.7273C44.9429 32.1961 44.8491 32.7274 44.8734 33.2309C44.8977 33.7275 45.0401 34.1303 45.2658 34.3594C45.4707 34.5678 45.7172 34.6129 45.9638 34.5226C45.8631 35.2449 45.9881 35.9394 46.3284 36.2866C46.5367 36.5019 46.7902 36.5471 47.0437 36.4498C47.2034 36.3873 47.3632 36.2727 47.509 36.0991C47.5541 36.4984 47.6791 36.8526 47.8805 37.0679C48.0889 37.2832 48.3424 37.3284 48.5959 37.2346C48.766 37.1686 48.9362 37.0367 49.0959 36.8492C49.1445 37.2381 49.266 37.5749 49.4674 37.7832C49.6758 38.002 49.9327 38.0471 50.1862 37.9499C50.5092 37.8284 50.8321 37.4742 51.0543 36.9429L51.4051 36.1616C51.4155 36.1373 51.4189 36.113 51.4294 36.0887L52.3009 36.8769C52.5058 37.061 52.7489 37.1131 52.9954 37.0193C53.0579 36.995 53.117 36.9672 53.176 36.9256C53.492 36.7311 53.7698 36.3491 53.9608 35.8387C54.1031 35.4602 54.183 35.0504 54.2003 34.665L54.4573 34.9116L54.7316 35.165C54.7316 35.165 54.7351 35.165 54.7351 35.1685C54.9886 35.3977 55.2976 35.4185 55.6067 35.2137C55.9157 35.0227 56.2005 34.6268 56.388 34.1303C56.5303 33.7518 56.6137 33.3385 56.631 32.9496C56.8463 33.0608 57.0963 33.0364 57.3464 32.8802C57.6415 32.6927 57.9019 32.335 58.0929 31.8662C58.2909 31.3697 58.3811 30.7933 58.3429 30.255C58.3291 30.0467 58.2978 29.8522 58.2492 29.6821C58.5409 29.4737 58.8013 29.1022 58.9853 28.6091C59.2145 27.9841 59.2701 27.2826 59.1624 26.7062C59.3465 25.852 59.8882 24.7825 60.7042 23.6436L60.9403 24.1887C60.9889 24.3068 61.0757 24.3485 61.166 24.3137C61.2181 24.2929 61.2667 24.2478 61.3153 24.1783L64.0863 19.8968C64.1488 19.8031 64.187 19.678 64.2044 19.5496C64.2217 19.4072 64.2113 19.2787 64.1731 19.1919V19.1989ZM44.0921 29.9356L41.8594 28.1577L45.7797 17.3932L48.009 19.1433L44.0921 29.9356ZM45.4151 32.9427C45.4012 32.6857 45.4533 32.4079 45.5506 32.1683L46.4916 29.9564C46.6096 29.6786 46.7763 29.4876 46.9465 29.4217C47.0784 29.3696 47.2104 29.3904 47.318 29.5015C47.4396 29.6265 47.5125 29.8349 47.5229 30.0884V30.0953C47.5368 30.3488 47.4882 30.6301 47.3909 30.8662L46.4464 33.0816C46.2381 33.5851 45.8665 33.783 45.62 33.533C45.4985 33.408 45.4255 33.1996 45.4151 32.9462V32.9427ZM46.6756 35.4532C46.4291 35.1998 46.4013 34.5851 46.6027 34.0886L48.3528 29.9981C48.4709 29.7168 48.6375 29.5293 48.8042 29.4633C48.9362 29.4112 49.0681 29.4321 49.1758 29.5432C49.2938 29.6682 49.3702 29.88 49.3806 30.1404C49.3945 30.3939 49.3459 30.6787 49.2452 30.9148L47.4951 35.0088C47.2937 35.5053 46.9222 35.7067 46.6756 35.4532ZM48.2347 36.238C47.9917 35.9811 47.9569 35.3664 48.1653 34.8699L49.1202 32.6302C49.2348 32.3628 49.398 32.1822 49.5612 32.1197C49.6932 32.0676 49.8251 32.0919 49.9362 32.2031C50.0543 32.3246 50.1307 32.5364 50.1411 32.7968C50.155 33.0573 50.1064 33.3351 50.0057 33.5712L49.0646 35.7901C48.8528 36.2901 48.4813 36.4915 48.2313 36.2415L48.2347 36.238ZM50.9988 35.7172L50.6481 36.4984C50.4397 37.0054 50.0682 37.1999 49.8182 36.9464C49.5751 36.6929 49.5404 36.0818 49.7418 35.5921L49.7487 35.5783L50.096 34.8039C50.1307 34.724 50.1654 34.6546 50.2105 34.5886C50.3112 34.4254 50.4328 34.3108 50.5543 34.2657C50.6897 34.2136 50.8182 34.2448 50.9259 34.3525C51.0439 34.474 51.1203 34.6858 51.1307 34.9497C51.1377 35.0956 51.1238 35.2484 51.103 35.3803C51.0717 35.5158 51.0404 35.6269 50.9988 35.7172ZM58.5513 28.2063C58.4436 28.4876 58.2943 28.6959 58.1242 28.807C57.9714 28.9112 57.8256 28.9112 57.6971 28.8209H57.6936L54.4816 25.9319C54.3636 25.8242 54.1934 25.9319 54.0996 26.1784C54.0094 26.4215 54.0302 26.7028 54.1517 26.8139L57.5061 29.8418L57.5235 29.8592C57.6762 29.9946 57.7735 30.2655 57.7978 30.5884C57.8186 30.8835 57.7735 31.1822 57.6658 31.4426C57.5616 31.6961 57.4193 31.8871 57.2596 31.9947C57.0894 32.1024 56.9227 32.0919 56.7838 31.9739L56.2699 31.5086C56.2699 31.5086 56.2421 31.4947 56.2282 31.4877C56.2109 31.4391 56.1866 31.4044 56.1553 31.3697L53.5823 29.0362C53.4642 28.9286 53.294 29.0362 53.2003 29.2793C53.11 29.5189 53.1308 29.8036 53.2524 29.9113L55.8324 32.2343C55.8497 32.2447 55.8671 32.2517 55.8879 32.2621C55.8984 32.2829 55.9018 32.3142 55.9157 32.3246C56.1275 32.6371 56.1449 33.224 55.9539 33.7309C55.8532 34.0018 55.7004 34.2136 55.5303 34.3178C55.3636 34.4254 55.1969 34.4185 55.058 34.29L54.3879 33.6823L51.9016 31.4461C51.7835 31.3384 51.6134 31.4461 51.5196 31.6857C51.4294 31.9253 51.4502 32.2065 51.5683 32.3177L53.4052 33.9671C53.4052 33.9671 53.4052 33.974 53.4086 33.9705C53.6864 34.231 53.7385 34.8977 53.5267 35.4567C53.4225 35.7276 53.2732 35.9394 53.0996 36.0401C52.9329 36.1477 52.7662 36.1408 52.6308 36.0123L51.6516 35.1303C51.6655 34.9706 51.6724 34.8074 51.6655 34.6546C51.6412 34.1511 51.4988 33.7413 51.2662 33.5052C51.0752 33.3073 50.8495 33.2517 50.6133 33.3177C50.6654 33.0434 50.6932 32.7621 50.6758 32.4878C50.6515 31.9843 50.5092 31.5746 50.2765 31.3454C50.1133 31.1787 49.9223 31.1197 49.7244 31.1474C49.8668 30.7273 49.9432 30.2585 49.9223 29.8349C49.898 29.3314 49.7591 28.9251 49.5265 28.689C49.0785 28.2306 48.4222 28.5674 48.0125 29.4112C47.95 29.0848 47.8319 28.814 47.6618 28.6404C47.1895 28.1612 46.4777 28.5536 46.0714 29.5189L45.9047 29.9078L44.9707 29.0571L47.9708 20.7892C48.4118 21.0844 48.9466 21.0497 49.4709 20.6781L49.839 20.4211L48.4952 23.9248C48.3875 24.2026 48.332 24.5012 48.3285 24.7964C48.3285 25.227 48.4466 25.5846 48.6549 25.7478C49.4709 26.3868 50.6168 25.5881 51.2071 23.963L52.1065 21.4941C52.5822 22.2129 53.7489 23.7547 55.0858 23.845L58.4159 26.6958C58.5061 26.7722 58.5721 26.8937 58.6138 27.0569C58.711 27.3903 58.6832 27.8313 58.5443 28.1994L58.5513 28.2063ZM58.8326 25.8972C58.8082 25.8694 58.777 25.8381 58.7492 25.8173L56.1518 23.5949C56.5894 23.3449 57.0026 22.9143 57.3811 22.2997C57.5061 22.0983 57.5339 21.7928 57.4471 21.6157C57.3603 21.4386 57.1901 21.4559 57.0686 21.6643C56.5373 22.5324 55.9504 22.9352 55.2803 22.9074C53.7246 22.8449 52.3287 20.4246 52.2975 20.376C52.2488 20.3031 52.1759 20.2788 52.0995 20.31L52.0822 20.317C52.0023 20.3552 51.9259 20.4628 51.8773 20.5948L50.7696 23.6297C50.3529 24.7756 49.5438 25.3346 48.9709 24.8902C48.9049 24.8415 48.8702 24.7339 48.8702 24.6054C48.8702 24.5117 48.8875 24.4283 48.9188 24.338L50.4224 20.4142C50.78 19.4628 51.3356 19.0773 51.3738 19.0495C52.3322 18.3898 54.308 17.3481 56.763 17.8238C56.8429 17.8411 56.9297 17.7856 57.0026 17.6745L57.6346 16.7022L60.3951 22.9768C59.8291 23.779 59.1937 24.8242 58.8326 25.9041V25.8972ZM61.2528 23.1401L57.6415 14.9208L59.9541 11.3199L63.5655 19.5635L61.2494 23.1366L61.2528 23.1401Z" fill="#005DF2" stroke="#005DF2" stroke-width="0.5"/>
<defs>
<filter id="filter0_f_1901_7219" x="0.5" y="16.1152" width="86.6035" height="59.8848" filterUnits="userSpaceOnUse" color-interpolation-filters="sRGB">
<feFlood flood-opacity="0" result="BackgroundImageFix"/>
<feBlend mode="normal" in="SourceGraphic" in2="BackgroundImageFix" result="shape"/>
<feGaussianBlur stdDeviation="5" result="effect1_foregroundBlur_1901_7219"/>
</filter>
</defs>
</svg>
