<svg width="93" height="82" viewBox="0 0 93 82" fill="none" xmlns="http://www.w3.org/2000/svg">
<g opacity="0.4" filter="url(#filter0_f_1901_8092)">
<path d="M48.064 28.9601L80.5229 47.1503C82.6133 48.3245 82.6418 51.3073 80.5704 52.5193L48.8907 71.0883C47.6745 71.7985 46.1637 71.808 44.9379 71.1073L11.5669 51.9985C9.44794 50.7865 9.48594 47.7279 11.6334 46.5727L44.2537 28.9222C45.4415 28.2783 46.8763 28.2878 48.0545 28.9506L48.064 28.9601Z" fill="#C1C1C1"/>
<path d="M47.7515 29.3546L47.7597 29.3627L47.8196 29.3963L80.278 47.5863C82.032 48.5715 82.0556 51.071 80.3179 52.0878L80.3175 52.088L48.6386 70.6565C47.5763 71.2768 46.2562 71.285 45.186 70.6732L11.8153 51.5646L11.8151 51.5645C10.0361 50.5469 10.0693 47.9819 11.8703 47.013L11.8713 47.0125L44.4917 29.362L44.492 29.3618C45.5097 28.8101 46.7346 28.8079 47.7515 29.3546Z" stroke="#002C72"/>
</g>
<path d="M81.4281 41.7178L81.387 49.1116L81.3705 49.547C81.2307 50.2535 80.8031 50.9108 80.0958 51.3298L52.6761 67.4401C51.6234 68.0563 50.3158 68.0645 49.2549 67.4565L20.3795 50.8697C19.6476 50.4507 19.2117 49.7771 19.0719 49.0541V48.6926L19.0225 41.2002" fill="#D9ECFF"/>
<path d="M81.4281 41.7178L81.387 49.1116L81.3705 49.547C81.2307 50.2535 80.8031 50.9108 80.0958 51.3298L52.6761 67.4401C51.6234 68.0563 50.3158 68.0645 49.2549 67.4565L20.3795 50.8697C19.6476 50.4507 19.2117 49.7771 19.0719 49.0541V48.6926L19.0225 41.2002" stroke="#002C72"/>
<path d="M51.9606 23.5518L80.0546 39.3336C81.864 40.3523 81.8886 42.9401 80.0958 43.9917L52.6761 60.1021C51.6234 60.7182 50.3158 60.7264 49.2548 60.1185L20.3795 43.5481C18.5455 42.4965 18.5784 39.8429 20.4371 38.8406L48.6709 23.5272C49.6989 22.9685 50.9408 22.9767 51.9606 23.5518Z" fill="white" stroke="#002C72" stroke-linejoin="round"/>
<path d="M36.9448 22.3228L40.7179 24.3111V51.0927L36.9448 49.4989V22.3228Z" fill="#005DF2"/>
<path d="M43.5477 10.0597L36.8795 22.8073L40.8268 24.6869L45.9059 21.8507L47.7924 19.9641V11.9463L64.2998 2.51351L60.055 0.626953L43.5477 10.0597Z" fill="#005DF2"/>
<path d="M40.9172 45.3125V50.7571C40.9172 51.4416 41.4055 51.7198 42.002 51.3752L63.7024 38.8466H63.7027C64.3409 38.4306 64.7438 37.7362 64.788 36.9756V3.37333C64.788 2.88251 64.5367 2.6006 64.1746 2.60755H64.1743C64.0072 2.6163 63.845 2.66699 63.7028 2.75523L47.9702 11.8383V19.3056C47.9261 20.0659 47.5231 20.7606 46.885 21.1767L40.9174 24.6219L40.9172 45.3125Z" fill="white" stroke="#002C72" stroke-linecap="round" stroke-linejoin="round"/>
<path d="M40.9172 24.6234L46.8847 21.1782C47.5229 20.7621 47.9258 20.0675 47.97 19.3072V11.8398L40.9172 24.6234Z" fill="white" stroke="#002C72" stroke-linecap="round" stroke-linejoin="round"/>
<path d="M61.9198 35.7832L45.1903 45.3892" stroke="#005DF2" stroke-linecap="round" stroke-linejoin="round"/>
<path d="M61.7556 25.0312L55.732 28.4464" stroke="#005DF2" stroke-linecap="round" stroke-linejoin="round"/>
<path d="M56.7372 19.4698L45.1113 26.1423" stroke="#005DF2" stroke-linecap="round" stroke-linejoin="round"/>
<path d="M51.1455 35.793L45.1219 39.2081" stroke="#005DF2" stroke-linecap="round" stroke-linejoin="round"/>
<path d="M61.9655 16.4922L61.9198 35.7833" stroke="#005DF2" stroke-linecap="round" stroke-linejoin="round"/>
<path d="M53.8093 21.1372L53.8093 37.2421" stroke="#005DF2" stroke-linecap="round" stroke-linejoin="round"/>
<path d="M45.1316 26.2144L45.0859 45.5055" stroke="#005DF2" stroke-linecap="round" stroke-linejoin="round"/>
<path d="M60.5684 0.737258L60.4295 0.66469H60.4299C60.1946 0.589205 59.9376 0.628225 59.7355 0.77044L44.003 9.85972" stroke="#002C72" stroke-linecap="round" stroke-linejoin="round"/>
<path d="M37.3074 49.4884C37.055 49.3443 36.9143 49.0628 36.9504 48.7747V22.6377" stroke="#002C72" stroke-linecap="round" stroke-linejoin="round"/>
<path d="M64.4514 2.71764L60.4303 0.663574" stroke="#002C72" stroke-linecap="round" stroke-linejoin="round"/>
<path d="M40.9172 24.6217L36.9513 22.6387L44.0045 9.85498L47.9709 11.8383" stroke="#002C72" stroke-linecap="round" stroke-linejoin="round"/>
<path d="M41.1985 51.4406L37.253 49.478" stroke="#002C72" stroke-linecap="round" stroke-linejoin="round"/>
<defs>
<filter id="filter0_f_1901_8092" x="0" y="18.4463" width="92.1074" height="63.1807" filterUnits="userSpaceOnUse" color-interpolation-filters="sRGB">
<feFlood flood-opacity="0" result="BackgroundImageFix"/>
<feBlend mode="normal" in="SourceGraphic" in2="BackgroundImageFix" result="shape"/>
<feGaussianBlur stdDeviation="5" result="effect1_foregroundBlur_1901_8092"/>
</filter>
</defs>
</svg>
