<svg width="77" height="75" viewBox="0 0 77 75" fill="none" xmlns="http://www.w3.org/2000/svg">
<g opacity="0.4" filter="url(#filter0_f_1805_7914)">
<path d="M40.1623 29.7267L70.1467 46.6285C72.0778 47.7195 72.1041 50.491 70.1906 51.6172L40.926 68.8709C39.8024 69.5308 38.4068 69.5396 37.2745 68.8885L6.44744 51.1333C4.49003 50.0071 4.52512 47.1652 6.50887 46.0918L36.6425 29.6915C37.7397 29.0932 39.0651 29.102 40.1535 29.7179L40.1623 29.7267Z" fill="#C1C1C1"/>
<path d="M39.8498 30.1213C38.9232 29.6223 37.8085 29.6252 36.8819 30.1305L36.8815 30.1307L6.74789 46.5309L6.74682 46.5315C5.10828 47.4181 5.07767 49.7683 6.69679 50.6999L6.69699 50.7L37.5237 68.4551L39.8498 30.1213ZM39.8498 30.1213L39.857 30.1285L39.9168 30.1622L69.9008 47.0638C71.4968 47.9655 71.5184 50.2556 69.937 51.1863L69.9367 51.1865L40.6728 68.4398C40.6725 68.4399 40.6723 68.4401 40.6721 68.4402C39.7033 69.0089 38.4999 69.0162 37.524 68.4553L39.8498 30.1213Z" stroke="#002C72"/>
</g>
<path d="M71.9942 41.3551L71.9555 48.3144L71.94 48.7243C71.8084 49.3893 71.4059 50.0079 70.7402 50.4022L44.9321 65.5657C43.9413 66.1457 42.7104 66.1534 41.7119 65.5812L14.5259 49.9769C13.837 49.5826 13.4267 48.9485 13.2951 48.268V47.9278L13.2487 40.8757" fill="#D9ECFF"/>
<path d="M71.9942 41.3551L71.9555 48.3144L71.94 48.7243C71.8084 49.3893 71.4059 50.0079 70.7402 50.4022L44.9321 65.5657C43.9413 66.1457 42.7104 66.1534 41.7119 65.5812L14.5259 49.9769C13.837 49.5826 13.4267 48.9485 13.2951 48.268V47.9278L13.2487 40.8757" stroke="#002C72"/>
<path d="M44.2663 24.2589L70.7092 39.1131C72.4122 40.072 72.4354 42.5077 70.7479 43.4975L44.9398 58.661C43.949 59.2409 42.7182 59.2486 41.7196 58.6764L14.5336 43.0722C12.8074 42.0824 12.8384 39.5848 14.5878 38.6414L41.1622 24.228C42.1299 23.7022 43.2987 23.7099 44.2586 24.2512L44.2663 24.2589Z" fill="white" stroke="#002C72" stroke-linejoin="round"/>
<path d="M34.8009 47.6718L31.7634 46.4127C28.9259 45.1278 27.1548 42.0743 27.1548 37.6419C27.1548 32.4761 29.5572 26.6175 33.2295 21.8759C34.0037 20.8689 34.8472 19.9095 35.7551 19.0038C35.9221 18.829 36.0962 18.6606 36.2704 18.4925C36.6987 18.0822 37.1339 17.6856 37.5839 17.3153C38.8105 16.2641 40.156 15.3399 41.5972 14.5578C43.2233 13.6421 45.0332 13.0425 46.9172 12.7954C47.9312 12.6686 48.9617 12.7142 49.9581 12.9301C50.6399 13.0793 54.2698 14.7227 54.8719 15.0551" fill="#005DF2"/>
<path d="M34.8009 47.6718L31.7634 46.4127C28.9259 45.1278 27.1548 42.0743 27.1548 37.6419C27.1548 32.4761 29.5572 26.6175 33.2295 21.8759C34.0037 20.8689 34.8472 19.9095 35.7551 19.0038C35.9221 18.829 36.0962 18.6606 36.2704 18.4925C36.6987 18.0822 37.1339 17.6856 37.5839 17.3153C38.8105 16.2641 40.156 15.3399 41.5972 14.5578C43.2233 13.6421 45.0332 13.0425 46.9172 12.7954C47.9312 12.6686 48.9617 12.7142 49.9581 12.9301C50.6399 13.0793 54.2698 14.7227 54.8719 15.0551" stroke="#002C72" stroke-miterlimit="10"/>
<path d="M60.9247 23.9294C60.9247 32.4021 54.2182 42.7356 45.9512 47.0006C37.684 51.2653 30.9778 47.8517 30.9778 39.3792C30.9778 34.2182 33.468 28.3616 37.2826 23.6237H37.2822C38.2364 22.4255 39.2901 21.2933 40.4348 20.2368C42.0597 18.7041 43.9165 17.3817 45.951 16.3085C47.6372 15.3925 49.5141 14.7924 51.4676 14.5447C52.5188 14.4164 53.5876 14.462 54.6202 14.6794C58.4343 15.4822 60.925 18.769 60.925 23.9299L60.9247 23.9294Z" fill="white" stroke="#002C72" stroke-miterlimit="10"/>
<path d="M36.0753 22.045V15.7213C36.0753 10.7107 39.7783 4.60919 44.3585 2.09023C48.939 -0.43551 52.6418 1.57531 52.6418 6.59279V13.932" stroke="#002C72" stroke-linecap="round" stroke-linejoin="round"/>
<path d="M54.5532 27.4951C54.5532 22.615 50.6981 20.6464 45.9514 23.1027C41.2047 25.5593 37.3495 31.5176 37.3495 36.398C37.3495 41.2784 41.205 43.247 45.9514 40.7904C50.698 38.3339 54.5532 32.3755 54.5532 27.4951Z" fill="white" stroke="#002C72" stroke-miterlimit="10"/>
<path d="M49.4556 28.2163C49.3826 29.6078 48.8235 30.9398 47.8626 32.0092V35.0154C47.798 36.0533 47.2066 37.0011 46.2696 37.5688C45.3935 38.039 44.6766 37.6592 44.6766 36.7254L44.6771 33.7189C43.7211 33.6459 43.0841 32.8923 43.0841 31.6356C43.2091 29.5586 44.3927 27.6613 46.2697 26.529C48.0302 25.5843 49.4558 26.3392 49.4558 28.2162L49.4556 28.2163Z" fill="#005DF2" stroke="#002C72" stroke-miterlimit="10"/>
<path d="M55.8276 15.0553L55.7869 15.0454L52.6542 14.0889L52.1264 13.93L52.0046 13.8904" stroke="#002C72" stroke-miterlimit="10"/>
<defs>
<filter id="filter0_f_1805_7914" x="0" y="24.2493" width="76.6105" height="50.1221" filterUnits="userSpaceOnUse" color-interpolation-filters="sRGB">
<feFlood flood-opacity="0" result="BackgroundImageFix"/>
<feBlend mode="normal" in="SourceGraphic" in2="BackgroundImageFix" result="shape"/>
<feGaussianBlur stdDeviation="2.5" result="effect1_foregroundBlur_1805_7914"/>
</filter>
</defs>
</svg>
