<svg width="89" height="82" viewBox="0 0 89 82" fill="none" xmlns="http://www.w3.org/2000/svg">
<g opacity="0.4" filter="url(#filter0_f_1901_8055)">
<path d="M46.0237 31.2422L76.7503 48.4594C78.7291 49.5707 78.7561 52.394 76.7952 53.5412L46.8062 71.1169C45.6549 71.7891 44.2247 71.798 43.0644 71.1348L11.4833 53.0482C9.4774 51.901 9.51338 49.0061 11.5462 47.9127L42.4257 31.2063C43.5501 30.5969 44.9083 30.6058 46.0237 31.2332V31.2422Z" fill="#C1C1C1"/>
<path d="M45.5743 31.5635C44.6508 31.1276 43.57 31.1548 42.664 31.6459L42.6636 31.6461L11.7841 48.3524L11.7831 48.353C10.0968 49.26 10.0655 51.6614 11.7315 52.6142L11.7317 52.6144L43.3125 70.7007C44.3172 71.275 45.5565 71.2674 46.5538 70.6853C46.5539 70.6852 46.554 70.6851 46.5541 70.6851L76.5424 53.1098L76.5428 53.1096C78.1698 52.1577 78.1479 49.8181 76.5058 48.8956L45.5743 31.5635ZM45.5743 31.5635L45.7793 31.6784L76.5054 48.8953L45.5743 31.5635Z" stroke="#002C72"/>
</g>
<path d="M78.2949 43.1955L78.2555 50.2846L78.2397 50.7021C78.1056 51.3795 77.6956 52.0096 77.0175 52.4113L50.7278 67.8578C49.7184 68.4486 48.4647 68.4564 47.4475 67.8736L19.7621 51.9702C19.0603 51.5685 18.6424 50.9226 18.5083 50.2295V49.8829L18.461 42.6992" fill="#D9ECFF"/>
<path d="M78.2949 43.1955L78.2555 50.2846L78.2397 50.7021C78.1056 51.3795 77.6956 52.0096 77.0175 52.4113L50.7278 67.8578C49.7184 68.4486 48.4647 68.4564 47.4475 67.8736L19.7621 51.9702C19.0603 51.5685 18.6424 50.9226 18.5083 50.2295V49.8829L18.461 42.6992" stroke="#002C72"/>
<path d="M50.0417 25.7779L76.978 40.9093C78.7128 41.886 78.7364 44.3672 77.0174 45.3755L50.7277 60.8219C49.7184 61.4127 48.4646 61.4206 47.4474 60.8377L19.762 44.9501C18.0036 43.9419 18.0351 41.3977 19.8172 40.4367L46.8876 25.7543C47.8732 25.2187 49.0639 25.2265 50.0417 25.7779Z" fill="white" stroke="#002C72" stroke-linejoin="round"/>
<path d="M59.5151 24.3442C63.0375 16.4437 65.3163 8.74819 65.335 3.96539C65.3336 3.96426 65.3322 3.96312 65.3309 3.96198C65.2302 3.87847 65.077 3.76472 64.8799 3.62703C64.4885 3.35361 63.9591 3.00999 63.4153 2.66794C62.8727 2.32665 62.3212 1.99032 61.8879 1.73234C61.6711 1.60327 61.4854 1.49466 61.346 1.41523C61.2089 1.33718 61.1429 1.30271 61.1297 1.29581C61.128 1.29491 61.1271 1.29448 61.1272 1.29448C60.9886 1.23835 60.8235 1.25843 60.7124 1.33498C59.5661 2.12986 58.3696 2.86702 57.129 3.54306C55.41 4.53308 53.423 5.09425 51.3812 5.17146L51.3812 5.17149L51.376 5.17163C50.7723 5.18816 50.2435 5.16206 49.793 5.13927L49.7928 5.13926L49.6776 5.13338C49.6775 5.13338 49.6775 5.13338 49.6775 5.13337C49.3904 5.11904 49.1286 5.10729 48.8703 5.11436L48.8703 5.1145L48.8583 5.11455C48.4862 5.11583 48.1257 5.2114 47.8206 5.3848C46.7195 6.12531 45.7707 7.01958 45.0133 8.02884L45.0134 8.02891L45.0066 8.03757C43.3053 10.2035 41.1459 12.0597 38.6504 13.5078L38.6436 13.5117L38.6368 13.5154C36.5044 14.6655 34.2224 15.5845 31.8415 16.2519L31.8405 16.2522C31.6567 16.3033 31.6056 16.427 31.6073 16.4893L32.0375 32.2022C32.0931 34.2322 32.5219 37.577 34.4514 40.4513C36.3597 43.2941 39.7789 45.7418 45.9627 45.9399C45.9805 45.9401 45.9884 45.9401 45.9952 45.94C46.1237 45.9362 46.2278 45.8831 46.2861 45.8194C51.166 40.4314 55.9549 32.3297 59.5151 24.3442Z" fill="#005DF2" stroke="#002C72"/>
<path d="M39.9799 17.5362L36.2947 19.8186L36.693 34.3679L37.1244 38.1271L38.1333 41.2802L39.7325 43.9633L41.6805 46.2374L44.6889 47.6755L50.0247 48.3901L56.3841 40.7805L61.136 32.7149L63.9443 26.4449L65.8682 19.0089L65.0098 4.57211L59.6701 7.18027L56.0963 8.3689L52.7698 8.45998L50.512 9.64181L48.1918 12.2877L43.8111 15.6134L39.9799 17.5362Z" fill="white"/>
<path d="M60.0197 18.5606C60.1198 18.3715 60.0886 18.1397 59.9419 17.9839L57.2235 15.0956C57.1119 14.977 56.9495 14.9202 56.7884 14.9433C56.6272 14.9665 56.4874 15.0666 56.4136 15.2117L49.0117 29.7733L43.6953 26.5638C43.5721 26.4894 43.4229 26.4717 43.2857 26.5153C43.1486 26.5588 43.0368 26.6593 42.979 26.7911L41.4498 30.2786C41.348 30.5108 41.4362 30.7826 41.655 30.9108L50.2282 35.9325C50.3458 36.0014 50.4865 36.0193 50.6176 35.9821C50.7487 35.9448 50.859 35.8556 50.9228 35.7351L60.0197 18.5606Z" fill="#005DF2" stroke="#002C72" stroke-linecap="round" stroke-linejoin="round"/>
<path d="M50.2142 48.6365L50.2352 48.6359C50.3531 48.6273 50.449 48.5768 50.5046 48.516C60.4124 37.5768 66.1022 25.3935 65.8437 15.9528L65.5218 4.19368C65.5203 4.13883 65.4806 4.04617 65.3459 3.99113C65.2073 3.93485 65.0421 3.95491 64.9309 4.03149C63.7846 4.82638 62.588 5.56354 61.3475 6.23958C59.6285 7.22961 57.6414 7.79077 55.5997 7.86799L55.5997 7.86802L55.5945 7.86816C54.9908 7.88469 54.4619 7.85859 54.0115 7.8358L54.0113 7.83579L53.8961 7.82991C53.896 7.82991 53.8959 7.8299 53.8958 7.8299C53.6087 7.81556 53.347 7.80382 53.0888 7.81089L53.0888 7.81103L53.0768 7.81107C52.7047 7.81236 52.3442 7.90793 52.0391 8.08132C50.938 8.82184 49.9892 9.71611 49.2318 10.7254L49.2319 10.7254L49.225 10.7341C47.5238 12.9 45.3644 14.7563 42.8689 16.2043L42.8621 16.2082L42.8553 16.2119C40.7229 17.3621 38.4409 18.281 36.06 18.9484L36.059 18.9487C35.8751 18.9998 35.824 19.1236 35.8257 19.1859L36.2559 34.8987C36.3115 36.9288 36.7404 40.2736 38.6699 43.1479C40.5782 45.9906 43.9974 48.4384 50.1811 48.6364C50.1993 48.6366 50.2073 48.6367 50.2142 48.6365Z" stroke="#002C72"/>
<defs>
<filter id="filter0_f_1901_8055" x="0" y="20.7559" width="88.2503" height="60.8706" filterUnits="userSpaceOnUse" color-interpolation-filters="sRGB">
<feFlood flood-opacity="0" result="BackgroundImageFix"/>
<feBlend mode="normal" in="SourceGraphic" in2="BackgroundImageFix" result="shape"/>
<feGaussianBlur stdDeviation="5" result="effect1_foregroundBlur_1901_8055"/>
</filter>
</defs>
</svg>
