<svg width="37" height="36" viewBox="0 0 37 36" fill="none" xmlns="http://www.w3.org/2000/svg">
<path d="M1 0.5H0.5V1V24.9395V25.4395H1H9.09024L9.58211 33.5883L9.64393 34.6125L10.4125 33.9326L20.0135 25.4395H36H36.5V24.9395V1V0.5H36H1ZM11.3115 22.5249H3.39292V3.41543H33.609L33.6083 22.5249H19.068H18.878L18.736 22.6511L12.1693 28.4839L11.8105 22.9923L11.7799 22.5249H11.3115Z" fill="#005DF2" stroke="#005DF2"/>
<path d="M8.32556 8.42881H8.02195V8.73242V10.3603V10.6639H8.32556H28.6744H28.978V10.3603V8.73242V8.42881H28.6744H8.32556Z" fill="#005DF2" stroke="#005DF2" stroke-width="0.607228"/>
<path d="M8.32556 14.5335H8.02195V14.8372V16.872V17.1757H8.32556H28.6744H28.978V16.872V14.8372V14.5335H28.6744H8.32556Z" fill="#005DF2" stroke="#005DF2" stroke-width="0.607228"/>
</svg>
