<svg width="162" height="44" viewBox="0 0 162 44" fill="none" xmlns="http://www.w3.org/2000/svg">
<path d="M4.77411 6.65527H0V34.7538H4.77411V6.65527Z" fill="#002C72"/>
<path d="M33.6818 14.5148C31.1331 14.6171 28.6829 15.5272 26.6855 17.1137C25.8457 16.2379 24.8277 15.5527 23.7003 15.1043C22.5729 14.656 21.3623 14.4549 20.1505 14.5148C17.0087 14.6332 13.9398 15.4948 11.1955 17.0289V34.7412H16.0449V20.0798C17.3412 19.3206 18.8088 18.9027 20.3106 18.8651C21.2024 18.847 22.0688 19.1627 22.74 19.7503C23.078 20.0549 23.3438 20.431 23.5181 20.8512C23.6924 21.2715 23.7708 21.7253 23.7475 22.1797V34.7412H28.5687V20.3341C29.8738 19.4824 31.3742 18.9768 32.9285 18.8651C33.815 18.8453 34.6761 19.1615 35.3391 19.7503C35.6631 20.0625 35.9152 20.4416 36.0778 20.8612C36.2404 21.2807 36.3097 21.7307 36.2808 22.1797V34.7412H41.0925V22.3492C41.0925 19.6938 40.4365 17.7226 39.1245 16.4357C38.3904 15.77 37.531 15.2572 36.5965 14.9274C35.662 14.5975 34.6712 14.4573 33.6818 14.5148Z" fill="#002C72"/>
<path d="M56.6957 14.5097C53.3265 14.6263 50.0245 15.4848 47.0251 17.0238V43.8229H51.8275V33.2106C53.3919 34.4995 55.3304 35.2491 57.3549 35.3482C58.64 35.3724 59.9155 35.122 61.096 34.6137C62.2766 34.1054 63.335 33.351 64.2006 32.4008C66.0898 30.3928 67.1056 27.7177 67.0255 24.9619C67.0798 23.5758 66.8515 22.1932 66.3545 20.8981C65.8575 19.6031 65.1023 18.4227 64.1347 17.4288C63.1634 16.4551 62.001 15.693 60.7207 15.1907C59.4405 14.6883 58.07 14.4564 56.6957 14.5097ZM60.5659 29.2463C60.0793 29.8008 59.4774 30.2422 58.8025 30.5399C58.1275 30.8375 57.3956 30.9841 56.6581 30.9695C54.9632 30.8482 53.3149 30.3598 51.8275 29.5382V20.2913C53.2733 19.382 54.9409 18.8869 56.6487 18.86C57.3879 18.8465 58.121 18.9955 58.7963 19.2965C59.4716 19.5975 60.0724 20.0432 60.5565 20.6021C61.6402 21.7803 62.2243 23.3332 62.1855 24.9336C62.2299 26.5276 61.6485 28.0756 60.5659 29.2463Z" fill="#002C72"/>
<path d="M80.6696 14.5102C79.3355 14.4551 78.005 14.6844 76.7663 15.1828C75.5276 15.6812 74.409 16.4374 73.4849 17.401C72.5559 18.3992 71.8331 19.571 71.358 20.8492C70.8829 22.1274 70.6649 23.4868 70.7164 24.8494C70.669 26.2437 70.9105 27.6327 71.4258 28.9291C71.9412 30.2255 72.7191 31.4013 73.7109 32.3825C74.7538 33.3776 75.987 34.1516 77.3366 34.6581C78.6861 35.1646 80.1241 35.3931 81.5641 35.3299C84.2252 35.4256 86.8703 34.8798 89.2762 33.7385V29.5953H88.9372C86.6715 30.7758 84.1468 31.3714 81.5924 31.3279C80.0824 31.3867 78.6048 30.8796 77.4492 29.906C76.9131 29.4606 76.4707 28.9134 76.1474 28.296C75.8242 27.6786 75.6265 27.0032 75.5659 26.309H89.9353C90.0157 25.7823 90.0566 25.2503 90.0577 24.7176C90.186 22.0474 89.328 19.4232 87.6471 17.3445C86.0715 15.455 83.7456 14.5102 80.6696 14.5102ZM80.7167 18.4839C83.3721 18.4839 84.8975 19.9341 85.3119 22.7778H75.726C75.9306 21.7134 76.4411 20.7317 77.1949 19.9529C77.6469 19.4758 78.1938 19.0986 78.8003 18.8456C79.4068 18.5926 80.0596 18.4694 80.7167 18.4839Z" fill="#002C72"/>
<path d="M103.203 30.733C102.497 30.8512 101.781 30.9079 101.065 30.9025C100.937 30.8974 100.811 30.8624 100.698 30.8003C100.585 30.7382 100.489 30.6507 100.416 30.5447C100.224 30.2691 100.128 29.9383 100.142 29.603V6.65527H95.3307V30.0644C95.3307 33.4418 97.0759 35.1304 100.566 35.1304C101.522 35.1509 102.474 35.0238 103.391 34.7538V30.733H103.203Z" fill="#002C72"/>
<path d="M120.078 34.916C120.079 35.8438 120.264 36.7622 120.62 37.6187C120.977 38.4751 121.499 39.2528 122.157 39.907C122.815 40.5613 123.595 41.0794 124.454 41.4316C125.312 41.7838 126.232 41.9632 127.159 41.9594H155.032C156.886 41.9372 158.657 41.1856 159.961 39.8673C161.265 38.5491 161.998 36.7703 162 34.916V7.04346C161.998 5.17618 161.255 3.3861 159.934 2.06573C158.614 0.745368 156.824 0.00249137 154.957 0H127.159C125.292 0.00249137 123.502 0.745368 122.182 2.06573C120.861 3.3861 120.118 5.17618 120.116 7.04346L120.078 34.916ZM157.292 7.04346V34.916C157.289 35.5312 157.043 36.1204 156.607 36.5545C156.171 36.9887 155.581 37.2324 154.966 37.2324H127.159C126.855 37.2324 126.554 37.1725 126.273 37.0561C125.992 36.9397 125.736 36.7691 125.521 36.554C125.306 36.3389 125.136 36.0835 125.019 35.8024C124.903 35.5214 124.843 35.2202 124.843 34.916V7.04346C124.843 6.42824 125.087 5.83807 125.521 5.40216C125.955 4.96625 126.544 4.7201 127.159 4.71761H155.032C155.636 4.73712 156.21 4.99046 156.631 5.42428C157.053 5.85811 157.29 6.43857 157.292 7.04346Z" fill="#005DF2"/>
<path d="M130.531 16.6577L137.17 20.9986L130.531 25.3207V30.0289L140.673 23.5034V18.4939L130.531 11.9495V16.6577Z" fill="#005DF2"/>
<path d="M142.066 16.6577L148.705 20.9986L142.066 25.3207V30.0289L152.208 23.5034V18.4939L142.066 11.9495V16.6577Z" fill="#005DF2"/>
</svg>
