<svg width="35" height="25" viewBox="0 0 35 25" fill="none" xmlns="http://www.w3.org/2000/svg">
<path d="M9.73605 11.232V12.232H10.736H15.136V23.768H1.80005V12.096C1.80005 8.5793 3.05053 5.93407 5.5151 4.03159L5.51514 4.03164L5.52369 4.02488C7.84425 2.19287 11.018 1.15928 15.136 1.01699V5.75556C13.6384 5.90279 12.3682 6.30967 11.4152 7.06094C10.2634 7.95827 9.73605 9.26041 9.73605 10.8V11.232ZM28.24 11.232V12.232H29.24H33.6401V23.768H20.304V12.096C20.304 8.5793 21.5545 5.93407 24.0191 4.03159L24.0191 4.03164L24.0277 4.02488C26.3483 2.19287 29.522 1.15928 33.6401 1.01699V5.75556C32.1424 5.90279 30.8723 6.30966 29.9192 7.06092C28.7674 7.95824 28.24 9.2604 28.24 10.8V11.232Z" fill="white" stroke="#005DF2" stroke-width="2"/>
</svg>
