<svg width="25" height="24" viewBox="0 0 25 24" fill="none" xmlns="http://www.w3.org/2000/svg">
<mask id="mask0_1911_9650" style="mask-type:alpha" maskUnits="userSpaceOnUse" x="0" y="0" width="25" height="24">
<rect x="0.25" width="24" height="24" fill="#D9D9D9"/>
</mask>
<g mask="url(#mask0_1911_9650)">
<path d="M9.75 16.5L16.75 12L9.75 7.5V16.5ZM12.25 22C10.8667 22 9.56667 21.7373 8.35 21.212C7.13333 20.6873 6.075 19.975 5.175 19.075C4.275 18.175 3.56267 17.1167 3.038 15.9C2.51267 14.6833 2.25 13.3833 2.25 12C2.25 10.6167 2.51267 9.31667 3.038 8.1C3.56267 6.88333 4.275 5.825 5.175 4.925C6.075 4.025 7.13333 3.31233 8.35 2.787C9.56667 2.26233 10.8667 2 12.25 2C13.6333 2 14.9333 2.26233 16.15 2.787C17.3667 3.31233 18.425 4.025 19.325 4.925C20.225 5.825 20.9373 6.88333 21.462 8.1C21.9873 9.31667 22.25 10.6167 22.25 12C22.25 13.3833 21.9873 14.6833 21.462 15.9C20.9373 17.1167 20.225 18.175 19.325 19.075C18.425 19.975 17.3667 20.6873 16.15 21.212C14.9333 21.7373 13.6333 22 12.25 22ZM12.25 20C14.4833 20 16.375 19.225 17.925 17.675C19.475 16.125 20.25 14.2333 20.25 12C20.25 9.76667 19.475 7.875 17.925 6.325C16.375 4.775 14.4833 4 12.25 4C10.0167 4 8.125 4.775 6.575 6.325C5.025 7.875 4.25 9.76667 4.25 12C4.25 14.2333 5.025 16.125 6.575 17.675C8.125 19.225 10.0167 20 12.25 20Z" fill="#002C72"/>
</g>
</svg>
