<svg width="21" height="20" viewBox="0 0 21 20" fill="none" xmlns="http://www.w3.org/2000/svg">
<path d="M7.55 20L7.15 16.8C6.93333 16.7167 6.72933 16.6167 6.538 16.5C6.346 16.3833 6.15833 16.2583 5.975 16.125L3 17.375L0.25 12.625L2.825 10.675C2.80833 10.5583 2.8 10.4457 2.8 10.337V9.662C2.8 9.554 2.80833 9.44167 2.825 9.325L0.25 7.375L3 2.625L5.975 3.875C6.15833 3.74167 6.35 3.61667 6.55 3.5C6.75 3.38333 6.95 3.28333 7.15 3.2L7.55 0H13.05L13.45 3.2C13.6667 3.28333 13.871 3.38333 14.063 3.5C14.2543 3.61667 14.4417 3.74167 14.625 3.875L17.6 2.625L20.35 7.375L17.775 9.325C17.7917 9.44167 17.8 9.554 17.8 9.662V10.337C17.8 10.4457 17.7833 10.5583 17.75 10.675L20.325 12.625L17.575 17.375L14.625 16.125C14.4417 16.2583 14.25 16.3833 14.05 16.5C13.85 16.6167 13.65 16.7167 13.45 16.8L13.05 20H7.55ZM10.35 13.5C11.3167 13.5 12.1417 13.1583 12.825 12.475C13.5083 11.7917 13.85 10.9667 13.85 10C13.85 9.03333 13.5083 8.20833 12.825 7.525C12.1417 6.84167 11.3167 6.5 10.35 6.5C9.36667 6.5 8.53733 6.84167 7.862 7.525C7.18733 8.20833 6.85 9.03333 6.85 10C6.85 10.9667 7.18733 11.7917 7.862 12.475C8.53733 13.1583 9.36667 13.5 10.35 13.5ZM10.35 11.5C9.93333 11.5 9.57933 11.354 9.288 11.062C8.996 10.7707 8.85 10.4167 8.85 10C8.85 9.58333 8.996 9.22933 9.288 8.938C9.57933 8.646 9.93333 8.5 10.35 8.5C10.7667 8.5 11.121 8.646 11.413 8.938C11.7043 9.22933 11.85 9.58333 11.85 10C11.85 10.4167 11.7043 10.7707 11.413 11.062C11.121 11.354 10.7667 11.5 10.35 11.5ZM9.3 18H11.275L11.625 15.35C12.1417 15.2167 12.621 15.0207 13.063 14.762C13.5043 14.504 13.9083 14.1917 14.275 13.825L16.75 14.85L17.725 13.15L15.575 11.525C15.6583 11.2917 15.7167 11.0457 15.75 10.787C15.7833 10.529 15.8 10.2667 15.8 10C15.8 9.73333 15.7833 9.47067 15.75 9.212C15.7167 8.954 15.6583 8.70833 15.575 8.475L17.725 6.85L16.75 5.15L14.275 6.2C13.9083 5.81667 13.5043 5.49567 13.063 5.237C12.621 4.979 12.1417 4.78333 11.625 4.65L11.3 2H9.325L8.975 4.65C8.45833 4.78333 7.97933 4.979 7.538 5.237C7.096 5.49567 6.69167 5.80833 6.325 6.175L3.85 5.15L2.875 6.85L5.025 8.45C4.94167 8.7 4.88333 8.95 4.85 9.2C4.81667 9.45 4.8 9.71667 4.8 10C4.8 10.2667 4.81667 10.525 4.85 10.775C4.88333 11.025 4.94167 11.275 5.025 11.525L2.875 13.15L3.85 14.85L6.325 13.8C6.69167 14.1833 7.096 14.504 7.538 14.762C7.97933 15.0207 8.45833 15.2167 8.975 15.35L9.3 18Z" fill="#002C72"/>
</svg>
