<svg width="16" height="16" viewBox="0 0 16 16" fill="none" xmlns="http://www.w3.org/2000/svg">
<g clip-path="url(#clip0_1911_9214)">
<path fill-rule="evenodd" clip-rule="evenodd" d="M15.5 7.70508C15.5 11.8472 12.1421 15.2051 8 15.2051C3.85786 15.2051 0.5 11.8472 0.5 7.70508C0.5 3.56294 3.85786 0.205078 8 0.205078C12.1421 0.205078 15.5 3.56294 15.5 7.70508ZM8.26877 5.74191C7.53928 6.04533 6.08134 6.67333 3.89493 7.6259C3.5399 7.76709 3.35391 7.90521 3.33698 8.04027C3.30837 8.26851 3.5942 8.35839 3.98342 8.48078C4.03637 8.49743 4.09122 8.51468 4.14746 8.53296C4.5304 8.65744 5.04552 8.80306 5.31331 8.80885C5.55622 8.8141 5.82733 8.71395 6.12665 8.50842C8.16947 7.12945 9.22399 6.43246 9.29019 6.41743C9.3369 6.40683 9.40163 6.3935 9.44548 6.43248C9.48933 6.47146 9.48502 6.54528 9.48038 6.56508C9.45206 6.68579 8.33008 7.72889 7.74945 8.26869C7.56844 8.43697 7.44005 8.55634 7.4138 8.5836C7.355 8.64467 7.29508 8.70244 7.23749 8.75795C6.88173 9.10091 6.61494 9.35809 7.25226 9.77807C7.55853 9.9799 7.8036 10.1468 8.0481 10.3133C8.31511 10.4951 8.58143 10.6765 8.92601 10.9024C9.0138 10.9599 9.09764 11.0197 9.17931 11.0779C9.49004 11.2994 9.76922 11.4985 10.1141 11.4667C10.3145 11.4483 10.5215 11.2598 10.6267 10.6978C10.8751 9.36954 11.3635 6.49161 11.4764 5.30569C11.4863 5.20178 11.4738 5.06881 11.4638 5.01044C11.4539 4.95206 11.433 4.8689 11.3571 4.80733C11.2672 4.73441 11.1285 4.71904 11.0665 4.72013C10.7844 4.7251 10.3516 4.87559 8.26877 5.74191Z" fill="#002C72"/>
</g>
<defs>
<clipPath id="clip0_1911_9214">
<rect width="15" height="15" fill="white" transform="translate(0.5 0.205078)"/>
</clipPath>
</defs>
</svg>
