<svg width="16" height="16" viewBox="0 0 16 16" fill="none" xmlns="http://www.w3.org/2000/svg">
<g clip-path="url(#clip0_1911_8319)">
<path d="M5.21885 13.7993C10.8778 13.7993 13.9739 9.10973 13.9739 5.0442C13.9739 4.91236 13.971 4.7776 13.9651 4.64576C14.5674 4.2102 15.0872 3.6707 15.5 3.0526C14.9391 3.30216 14.3435 3.46515 13.7337 3.536C14.3758 3.1511 14.8566 2.54646 15.0869 1.83414C14.4828 2.19213 13.8222 2.44467 13.1334 2.58092C12.6693 2.08776 12.0556 1.76123 11.3873 1.65182C10.719 1.5424 10.0332 1.65619 9.43609 1.9756C8.83893 2.295 8.36363 2.80223 8.08365 3.41886C7.80368 4.03548 7.73464 4.72717 7.88721 5.38697C6.66406 5.32559 5.46746 5.00785 4.37499 4.45435C3.28252 3.90084 2.31856 3.12393 1.54561 2.17398C1.15275 2.85131 1.03254 3.65281 1.20939 4.41559C1.38625 5.17837 1.84691 5.84519 2.49775 6.28053C2.00914 6.26501 1.53123 6.13346 1.10352 5.89674V5.93482C1.10308 6.64563 1.34881 7.33465 1.79894 7.88477C2.24908 8.43488 2.87583 8.81214 3.57266 8.9524C3.12003 9.07624 2.64499 9.09429 2.18428 9.00514C2.38091 9.61643 2.76348 10.1511 3.27861 10.5345C3.79373 10.9179 4.4157 11.1309 5.05771 11.1438C3.96777 12 2.62136 12.4644 1.23535 12.4622C0.989554 12.4618 0.743999 12.4467 0.5 12.4171C1.90804 13.3204 3.54596 13.8002 5.21885 13.7993Z" fill="#002C72"/>
</g>
<defs>
<clipPath id="clip0_1911_8319">
<rect width="15" height="15" fill="white" transform="translate(0.5 0.205078)"/>
</clipPath>
</defs>
</svg>
