<svg width="25" height="24" viewBox="0 0 25 24" fill="none" xmlns="http://www.w3.org/2000/svg">
<path d="M24.5076 9.50067L24.4725 9.41113L21.0804 0.558358C21.0114 0.384848 20.8892 0.237659 20.7313 0.13791C20.5734 0.0398554 20.3891 -0.00737091 20.2035 0.00260769C20.0178 0.0125863 19.8397 0.0792893 19.6932 0.19371C19.5483 0.311417 19.4431 0.470913 19.3921 0.650493L17.1017 7.65797H7.82719L5.53678 0.650493C5.48711 0.469934 5.38176 0.309639 5.23572 0.192412C5.08918 0.0779913 4.91107 0.0112883 4.72542 0.00130973C4.53977 -0.00866887 4.35553 0.0385575 4.19757 0.136612C4.04007 0.236764 3.91798 0.383824 3.8485 0.55706L0.449875 9.40594L0.416135 9.49548C-0.0721785 10.7714 -0.132453 12.1714 0.2444 13.4846C0.621252 14.7977 1.4148 15.9527 2.5054 16.7755L2.51708 16.7846L2.54822 16.8066L7.71558 20.6763L10.272 22.6111L11.8292 23.7868C12.0114 23.9251 12.2338 24 12.4625 24C12.6912 24 12.9136 23.9251 13.0958 23.7868L14.653 22.6111L17.2094 20.6763L22.4079 16.7833L22.4209 16.7729C23.5091 15.95 24.3008 14.7961 24.677 13.4848C25.0533 12.1734 24.9938 10.7753 24.5076 9.50067Z" fill="#002C72"/>
</svg>
