<svg width="347" height="509" viewBox="0 0 347 509" fill="none" xmlns="http://www.w3.org/2000/svg">
<path d="M278 0L278 127L231 219.013L59.5 314.5L140 351L210 389" stroke="#C1C1C1" stroke-width="2" stroke-linejoin="round" stroke-dasharray="4 4"/>
<path fill-rule="evenodd" clip-rule="evenodd" d="M345.586 153.257L277.556 114.013L209.526 153.257L277.556 192.501L345.586 153.257Z" fill="white" stroke="#C1C1C1" stroke-width="2" stroke-linejoin="round" stroke-dasharray="4 4"/>
<path fill-rule="evenodd" clip-rule="evenodd" d="M277.03 271.202L209 231.958V153.47L277.03 192.714V271.202Z" fill="white"/>
<path d="M277.03 271.202L209 231.958V153.47L277.03 192.714V271.202" stroke="#C1C1C1" stroke-width="2" stroke-linejoin="round" stroke-dasharray="4 4"/>
<path fill-rule="evenodd" clip-rule="evenodd" d="M277.556 270.99V192.501L345.586 153.257V231.746L277.556 270.99Z" fill="white"/>
<path d="M277.556 270.99V192.501L345.586 153.257V231.746L277.556 270.99" stroke="#C1C1C1" stroke-width="2" stroke-linejoin="round" stroke-dasharray="4 4"/>
<path fill-rule="evenodd" clip-rule="evenodd" d="M137.586 271.244L69.5561 232L1.52634 271.244L69.5561 310.488L137.586 271.244Z" fill="white" stroke="#C1C1C1" stroke-width="2" stroke-linejoin="round" stroke-dasharray="4 4"/>
<path fill-rule="evenodd" clip-rule="evenodd" d="M69.0298 389.189L0.999985 349.945V271.456L69.0298 310.7V389.189Z" fill="white"/>
<path d="M69.0298 389.189L0.999986 349.945V271.456L69.0298 310.7V389.189" stroke="#C1C1C1" stroke-width="2" stroke-linejoin="round" stroke-dasharray="4 4"/>
<path fill-rule="evenodd" clip-rule="evenodd" d="M69.5564 388.977V310.488L137.586 271.244V349.733L69.5564 388.977Z" fill="white"/>
<path d="M69.5564 388.977V310.488L137.586 271.244V349.733L69.5564 388.977" stroke="#C1C1C1" stroke-width="2" stroke-linejoin="round" stroke-dasharray="4 4"/>
<path fill-rule="evenodd" clip-rule="evenodd" d="M345.586 389.244L277.556 350L209.526 389.244L277.556 428.488L345.586 389.244Z" fill="white" stroke="#C1C1C1" stroke-width="2" stroke-linejoin="round" stroke-dasharray="4 4"/>
<path fill-rule="evenodd" clip-rule="evenodd" d="M277.03 507.189L209 467.945V389.456L277.03 428.7V507.189Z" fill="white"/>
<path d="M277.03 507.189L209 467.945V389.456L277.03 428.7V507.189" stroke="#C1C1C1" stroke-width="2" stroke-linejoin="round" stroke-dasharray="4 4"/>
<path fill-rule="evenodd" clip-rule="evenodd" d="M277.556 506.977V428.488L345.586 389.244V467.733L277.556 506.977Z" fill="white"/>
<path d="M277.556 506.977V428.488L345.586 389.244V467.733L277.556 506.977" stroke="#C1C1C1" stroke-width="2" stroke-linejoin="round" stroke-dasharray="4 4"/>
</svg>
