<svg width="21" height="19" viewBox="0 0 21 19" fill="none" xmlns="http://www.w3.org/2000/svg">
<path d="M4.89689 18.8311V12.761H3.30156C2.52335 12.761 1.86187 12.4886 1.31712 11.9439C0.772374 11.3992 0.5 10.7377 0.5 9.95946V7.54701C0.5 6.7688 0.772374 6.10732 1.31712 5.56258C1.86187 5.01783 2.52335 4.74546 3.30156 4.74546H9.33269L16.2977 0.582031V16.9244L9.33269 12.761H7.23152V18.8311H4.89689ZM18.4377 13.6171V3.88942C19.0603 4.46011 19.5599 5.1605 19.9366 5.99059C20.3122 6.82068 20.5 7.74156 20.5 8.75324C20.5 9.76491 20.3122 10.6858 19.9366 11.5159C19.5599 12.346 19.0603 13.0464 18.4377 13.6171ZM3.30156 7.08009C3.1978 7.08009 3.09403 7.13197 2.99027 7.23573C2.88651 7.33949 2.83463 7.44325 2.83463 7.54701V9.95946C2.83463 10.0632 2.88651 10.167 2.99027 10.2707C3.09403 10.3745 3.1978 10.4264 3.30156 10.4264H9.95525L13.963 12.761V4.74546L9.95525 7.08009H3.30156Z" fill="#002C72"/>
</svg>
