<svg width="21" height="22" viewBox="0 0 21 22" fill="none" xmlns="http://www.w3.org/2000/svg">
<path d="M10.7246 20.8559L10.5246 17.6809H10.2496C7.86628 17.6142 5.84961 16.7352 4.19961 15.0439C2.54961 13.3519 1.72461 11.3059 1.72461 8.90586C1.72461 6.45586 2.57461 4.38086 4.27461 2.68086C5.97461 0.98086 8.04961 0.130859 10.4996 0.130859C11.7163 0.130859 12.8539 0.359859 13.9126 0.817859C14.9706 1.27653 15.8996 1.90586 16.6996 2.70586C17.4996 3.50586 18.1289 4.43486 18.5876 5.49286C19.0456 6.55153 19.2746 7.68919 19.2746 8.90586C19.2746 10.2225 19.0539 11.4765 18.6126 12.6679C18.1706 13.8599 17.5663 14.9642 16.7996 15.9809C16.0329 16.9975 15.1289 17.9185 14.0876 18.7439C13.0456 19.5685 11.9246 20.2725 10.7246 20.8559ZM12.9996 16.7559C14.1829 15.7559 15.1453 14.5852 15.8866 13.2439C16.6286 11.9019 16.9996 10.4559 16.9996 8.90586C16.9996 7.08919 16.3706 5.55153 15.1126 4.29286C13.8539 3.03486 12.3163 2.40586 10.4996 2.40586C8.68294 2.40586 7.14561 3.03486 5.88761 4.29286C4.62894 5.55153 3.99961 7.08919 3.99961 8.90586C3.99961 10.7225 4.62894 12.2599 5.88761 13.5179C7.14561 14.7765 8.68294 15.4059 10.4996 15.4059H12.9996V16.7559ZM10.4746 14.4559C10.7913 14.4559 11.0539 14.3475 11.2626 14.1309C11.4706 13.9142 11.5746 13.6559 11.5746 13.3559C11.5746 13.0392 11.4706 12.7765 11.2626 12.5679C11.0539 12.3599 10.7913 12.2559 10.4746 12.2559C10.1746 12.2559 9.91628 12.3599 9.69961 12.5679C9.48294 12.7765 9.37461 13.0392 9.37461 13.3559C9.37461 13.6559 9.48294 13.9142 9.69961 14.1309C9.91628 14.3475 10.1746 14.4559 10.4746 14.4559ZM9.67461 11.2309H11.3246C11.3246 10.7142 11.3789 10.3515 11.4876 10.1429C11.5956 9.93486 11.8996 9.57253 12.3996 9.05586C12.7163 8.75586 12.9746 8.43086 13.1746 8.08086C13.3746 7.73086 13.4746 7.34753 13.4746 6.93086C13.4746 6.04753 13.1829 5.38919 12.5996 4.95586C12.0163 4.52253 11.3163 4.30586 10.4996 4.30586C9.76628 4.30586 9.13728 4.52253 8.61261 4.95586C8.08728 5.38919 7.71628 5.91419 7.49961 6.53086L9.04961 7.13086C9.13294 6.84753 9.28728 6.56419 9.51261 6.28086C9.73728 5.99753 10.0663 5.85586 10.4996 5.85586C10.9329 5.85586 11.2539 5.97253 11.4626 6.20586C11.6706 6.43919 11.7746 6.69753 11.7746 6.98086C11.7746 7.24753 11.6913 7.49319 11.5246 7.71786C11.3579 7.94319 11.1663 8.16419 10.9496 8.38086C10.3663 8.88086 10.0079 9.28486 9.87461 9.59286C9.74128 9.90153 9.67461 10.4475 9.67461 11.2309Z" fill="#002C72"/>
</svg>
