<svg width="21" height="21" viewBox="0 0 21 21" fill="none" xmlns="http://www.w3.org/2000/svg">
<path d="M6.5 16.6602H14.5V14.6602H6.5V16.6602ZM6.5 12.6602H14.5V10.6602H6.5V12.6602ZM4.5 20.6602C3.95 20.6602 3.47933 20.4645 3.088 20.0732C2.696 19.6812 2.5 19.2102 2.5 18.6602V2.66016C2.5 2.11016 2.696 1.63916 3.088 1.24716C3.47933 0.855823 3.95 0.660156 4.5 0.660156H12.5L18.5 6.66016V18.6602C18.5 19.2102 18.3043 19.6812 17.913 20.0732C17.521 20.4645 17.05 20.6602 16.5 20.6602H4.5ZM11.5 7.66016V2.66016H4.5V18.6602H16.5V7.66016H11.5Z" fill="#002C72"/>
</svg>
