<svg width="693" height="734" viewBox="0 0 693 734" fill="none" xmlns="http://www.w3.org/2000/svg">
<path d="M720.5 495.126L668.017 544.197L325 343.866L325.909 269.441L352.5 269.441L681 466.126L720.5 495.126Z" fill="url(#paint0_linear_241_1740)"/>
<path d="M8.12743 147.519L60.6109 98.4477L403.627 298.779L402.718 373.204L376.127 373.204L47.6274 176.519L8.12743 147.519Z" fill="url(#paint1_linear_241_1740)"/>
<path d="M715.925 113.758L732.18 183.746L387.18 380.641L323.18 342.641L336.476 319.613L671.061 133.466L715.925 113.758Z" fill="url(#paint2_linear_241_1740)"/>
<path d="M58.7018 556.887L42.447 486.899L387.447 290.004L451.447 328.004L438.151 351.032L103.567 537.179L58.7018 556.887Z" fill="url(#paint3_linear_241_1740)"/>
<path fill-rule="evenodd" clip-rule="evenodd" d="M888.666 329.676L743.332 413.353L598 329.676L743.332 246L888.666 329.676Z" stroke="#C1C1C1" stroke-width="2" stroke-linejoin="round" stroke-dasharray="4 4"/>
<path fill-rule="evenodd" clip-rule="evenodd" d="M352.666 645.676L207.334 729.353L62.0001 645.676L207.334 562L352.666 645.676Z" stroke="#C1C1C1" stroke-width="2" stroke-linejoin="round" stroke-dasharray="4 4"/>
<path fill-rule="evenodd" clip-rule="evenodd" d="M545.134 540.143L399.067 625.287L253 540.143L399.067 454.998L545.134 540.143Z" stroke="#C1C1C1" stroke-width="2" stroke-linejoin="round" stroke-dasharray="4 4"/>
<path fill-rule="evenodd" clip-rule="evenodd" d="M362.133 433.145L216.067 518.289L69.9999 433.145L216.067 348L362.133 433.145Z" stroke="#005DF2" stroke-width="3" stroke-linejoin="round"/>
<path fill-rule="evenodd" clip-rule="evenodd" d="M725.133 647.144L579.067 732.289L433 647.144L579.067 562L725.133 647.144Z" stroke="#C1C1C1" stroke-width="2" stroke-linejoin="round" stroke-dasharray="4 4"/>
<path fill-rule="evenodd" clip-rule="evenodd" d="M150.273 163.47L218.303 124.227L286.332 163.47L218.303 202.714L150.273 163.47Z" fill="white" stroke="#005DF2" stroke-width="2" stroke-linejoin="round"/>
<path fill-rule="evenodd" clip-rule="evenodd" d="M150.273 163.471V241.959L218.303 281.203V202.715L150.273 163.471Z" fill="white" stroke="#005DF2" stroke-width="2" stroke-linejoin="round"/>
<path fill-rule="evenodd" clip-rule="evenodd" d="M286.332 235.273V163.471L218.303 202.715V281.203L280.537 245.303" fill="white"/>
<path d="M286.332 235.273V163.471L218.303 202.715V281.203L280.537 245.303" stroke="#005DF2" stroke-width="2" stroke-linejoin="round"/>
<g filter="url(#filter0_d_241_1740)">
<path d="M250 227L323.5 269L324.5 258.5L256.5 219C253.68 217.392 250.138 217.845 248.51 220.633C247.5 222.5 247.18 225.39 250 227Z" fill="#005DF2"/>
</g>
<path fill-rule="evenodd" clip-rule="evenodd" d="M491.233 161.738L559.547 122L627.862 161.738L559.547 201.477L491.233 161.738Z" fill="white" stroke="#002C72" stroke-linejoin="round"/>
<path fill-rule="evenodd" clip-rule="evenodd" d="M626.969 234.075V162.185L559.101 201.478V280.061L620.834 244.321" fill="white"/>
<path d="M626.969 234.075V162.185L559.101 201.478V280.061L620.834 244.321" stroke="#002C72" stroke-linejoin="round"/>
<path fill-rule="evenodd" clip-rule="evenodd" d="M491.233 240.768L559.101 280.061V201.478L491.233 162.185V240.768Z" fill="white" stroke="#002C72" stroke-linejoin="round"/>
<path d="M490.91 563.766L490.193 563.353" stroke="#002C72" stroke-width="2" stroke-linejoin="round"/>
<path d="M495.989 553.323L496.706 553.737" stroke="#002C72" stroke-width="2" stroke-linejoin="round"/>
<path fill-rule="evenodd" clip-rule="evenodd" d="M456.241 334.09V262.2L388.373 301.493V380.076L450.106 344.336" fill="white"/>
<path d="M456.241 334.09V262.2L388.373 301.493V380.076L450.106 344.336" stroke="#005DF2" stroke-width="2" stroke-linejoin="round"/>
<path fill-rule="evenodd" clip-rule="evenodd" d="M326.286 344.132L388.373 380.076V301.493L320.505 262.2V333.938" fill="white"/>
<path d="M326.286 344.132L388.373 380.076V301.493L320.505 262.2V333.938" stroke="#005DF2" stroke-width="2" stroke-linejoin="round"/>
<g filter="url(#filter1_d_241_1740)">
<path fill-rule="evenodd" clip-rule="evenodd" d="M278.264 357.736L348.665 317.123C351.438 315.526 354.981 316.474 356.582 319.244C358.182 322.012 357.232 325.554 354.46 327.153L284.059 367.766" fill="#005DF2"/>
<path d="M348.665 317.123L348.166 316.257L348.165 316.257L348.665 317.123ZM356.582 319.244L357.448 318.743L357.448 318.743L356.582 319.244ZM354.46 327.153L353.961 326.287V326.287L354.46 327.153ZM278.764 358.603L349.165 317.99L348.165 316.257L277.764 356.87L278.764 358.603ZM349.164 317.99C351.46 316.668 354.392 317.453 355.716 319.744L357.448 318.743C355.57 315.495 351.417 314.385 348.166 316.257L349.164 317.99ZM355.716 319.744C357.039 322.034 356.254 324.964 353.961 326.287L354.96 328.019C358.21 326.145 359.324 321.991 357.448 318.743L355.716 319.744ZM353.961 326.287L283.56 366.9L284.559 368.632L354.96 328.019L353.961 326.287Z" fill="#005DF2"/>
</g>
<g filter="url(#filter2_d_241_1740)">
<path fill-rule="evenodd" clip-rule="evenodd" d="M148 361.08L216.03 321.836L284.06 361.08L216.03 400.324L148 361.08Z" fill="white"/>
<path fill-rule="evenodd" clip-rule="evenodd" d="M148 361.08L216.03 321.836L284.06 361.08L216.03 400.324L148 361.08Z" stroke="#005DF2" stroke-width="2" stroke-linejoin="round"/>
</g>
<g filter="url(#filter3_d_241_1740)">
<path fill-rule="evenodd" clip-rule="evenodd" d="M216.556 479.025L284.586 439.781V361.292L216.556 400.536V479.025Z" fill="white"/>
<path d="M216.556 479.025L284.586 439.781V361.292L216.556 400.536V479.025" stroke="#005DF2" stroke-width="2" stroke-linejoin="round"/>
</g>
<g filter="url(#filter4_d_241_1740)">
<path fill-rule="evenodd" clip-rule="evenodd" d="M216.03 478.813V400.324L148 361.08V439.569L216.03 478.813Z" fill="white"/>
<path d="M216.03 478.813V400.324L148 361.08V439.569L216.03 478.813" stroke="#005DF2" stroke-width="2" stroke-linejoin="round"/>
</g>
<path fill-rule="evenodd" clip-rule="evenodd" d="M321 261.5L388.5 222L456 261.5L388.5 301L321 261.5Z" fill="white" stroke="#005DF2" stroke-width="2" stroke-linejoin="round"/>
<g filter="url(#filter5_d_241_1740)">
<path fill-rule="evenodd" clip-rule="evenodd" d="M661.233 267.898L590.305 226.982C587.534 225.383 586.583 221.841 588.183 219.072C589.784 216.303 593.329 215.354 596.1 216.953L667.027 257.869" fill="white"/>
<path d="M661.233 267.898L590.305 226.982C587.534 225.383 586.583 221.841 588.183 219.072C589.784 216.303 593.329 215.354 596.1 216.953L667.027 257.869" stroke="#002C72" stroke-width="2" stroke-linejoin="round"/>
</g>
<path fill-rule="evenodd" clip-rule="evenodd" d="M661.233 261.212L729.262 221.968L797.292 261.212L729.262 300.456L661.233 261.212Z" fill="white" stroke="#002C72" stroke-linejoin="round"/>
<path fill-rule="evenodd" clip-rule="evenodd" d="M667.028 343.044L667.627 343.388L729.262 378.944V300.456L661.233 261.211V333.014" fill="white"/>
<path d="M667.028 343.044L667.627 343.388L729.262 378.944V300.456L661.233 261.211V333.014" stroke="#002C72" stroke-linejoin="round"/>
<g filter="url(#filter6_d_241_1740)">
<path fill-rule="evenodd" clip-rule="evenodd" d="M491.298 366L420.986 325.981C418.13 324.355 417.153 320.756 418.801 317.942C420.45 315.127 424.099 314.165 426.955 315.788L498 356.224" fill="white"/>
<path d="M491.298 366L420.986 325.981C418.13 324.355 417.153 320.756 418.801 317.942C420.45 315.127 424.099 314.165 426.955 315.788L498 356.224" stroke="#002C72" stroke-width="2" stroke-linejoin="round"/>
</g>
<g filter="url(#filter7_d_241_1740)">
<path fill-rule="evenodd" clip-rule="evenodd" d="M621.421 355.979L691.822 315.366C694.596 313.769 698.138 314.717 699.739 317.486C701.339 320.255 700.389 323.797 697.617 325.396L627.217 366.009" fill="white"/>
<path d="M621.421 355.979L691.822 315.366C694.596 313.769 698.138 314.717 699.739 317.486C701.339 320.255 700.389 323.797 697.617 325.396L627.217 366.009" stroke="#002C72" stroke-width="2" stroke-linejoin="round"/>
</g>
<path fill-rule="evenodd" clip-rule="evenodd" d="M490.985 359.495L559.299 319.757L627.614 359.495L559.299 399.234L490.985 359.495Z" fill="white" stroke="#002C72" stroke-linejoin="round"/>
<path fill-rule="evenodd" clip-rule="evenodd" d="M490.985 438.525C515.231 452.562 558.853 477.818 558.853 477.818V399.234L490.985 359.942V438.525Z" fill="white" stroke="#002C72" stroke-linejoin="round"/>
<path fill-rule="evenodd" clip-rule="evenodd" d="M626.721 431.832V359.942L558.853 399.234V477.818L620.586 442.077" fill="white"/>
<path d="M626.721 431.832V359.942L558.853 399.234V477.818L620.586 442.077" stroke="#002C72" stroke-linejoin="round"/>
<g filter="url(#filter8_d_241_1740)">
<path fill-rule="evenodd" clip-rule="evenodd" d="M660.985 465.655L590.056 424.739C587.286 423.14 586.335 419.598 587.935 416.829C589.536 414.06 593.081 413.111 595.852 414.71L666.779 455.626" fill="white"/>
<path d="M660.985 465.655L590.056 424.739C587.286 423.14 586.335 419.598 587.935 416.829C589.536 414.06 593.081 413.111 595.852 414.71L666.779 455.626" stroke="#002C72" stroke-width="2" stroke-linejoin="round"/>
</g>
<path fill-rule="evenodd" clip-rule="evenodd" d="M660.576 459.015L728.606 419.771L796.635 459.015L728.606 498.259L660.576 459.015Z" fill="white" stroke="#002C72" stroke-linejoin="round"/>
<path fill-rule="evenodd" clip-rule="evenodd" d="M660.576 459.016V537.504L728.606 576.748V498.26L660.576 459.016Z" fill="white" stroke="#002C72" stroke-linejoin="round"/>
<path opacity="0.3" fill-rule="evenodd" clip-rule="evenodd" d="M174 162.5L216.5 138L259 162.5L216.5 187L174 162.5Z" stroke="#C1C1C1" stroke-width="2" stroke-linejoin="round"/>
<path opacity="0.3" fill-rule="evenodd" clip-rule="evenodd" d="M174 360.5L216.5 336L259 360.5L216.5 385L174 360.5Z" stroke="#C1C1C1" stroke-width="2" stroke-linejoin="round"/>
<path opacity="0.7" fill-rule="evenodd" clip-rule="evenodd" d="M212.03 257.732V219.244L156 187V225.489L212.03 257.732Z" fill="#D9ECFF"/>
<path opacity="0.3" fill-rule="evenodd" clip-rule="evenodd" d="M517 161.5L559.5 137L602 161.5L559.5 186L517 161.5Z" stroke="#C1C1C1" stroke-width="2" stroke-linejoin="round"/>
<g opacity="0.2">
<path fill-rule="evenodd" clip-rule="evenodd" d="M553.03 227.732V219.244L497 187V195.489L553.03 227.732Z" fill="#005DF2"/>
<path fill-rule="evenodd" clip-rule="evenodd" d="M553.03 241.768V233.279L497 201.035V209.524L553.03 241.768Z" fill="#005DF2"/>
<path fill-rule="evenodd" clip-rule="evenodd" d="M553.03 255.268V246.779L497 214.535V223.024L553.03 255.268Z" fill="#005DF2"/>
</g>
<g opacity="0.7">
<path fill-rule="evenodd" clip-rule="evenodd" d="M210.03 427.732V419.244L154 387V395.489L210.03 427.732Z" fill="#D9ECFF"/>
<path fill-rule="evenodd" clip-rule="evenodd" d="M210.03 441.768V433.279L154 401.035V409.524L210.03 441.768Z" fill="#D9ECFF"/>
<path fill-rule="evenodd" clip-rule="evenodd" d="M210.03 455.268V446.779L154 414.535V423.024L210.03 455.268Z" fill="#D9ECFF"/>
</g>
<path opacity="0.3" fill-rule="evenodd" clip-rule="evenodd" d="M345 260.5L387.5 236L430 260.5L387.5 285L345 260.5Z" stroke="#005DF2" stroke-width="3" stroke-linejoin="round"/>
<path opacity="0.3" fill-rule="evenodd" clip-rule="evenodd" d="M686 260.5L728.5 236L771 260.5L728.5 285L686 260.5Z" stroke="#C1C1C1" stroke-width="2" stroke-linejoin="round"/>
<path opacity="0.3" fill-rule="evenodd" clip-rule="evenodd" d="M517 358.5L559.5 334L602 358.5L559.5 383L517 358.5Z" stroke="#C1C1C1" stroke-width="2" stroke-linejoin="round"/>
<g opacity="0.7">
<path fill-rule="evenodd" clip-rule="evenodd" d="M553.03 425.732V417.244L497 385V393.489L553.03 425.732Z" fill="#D9ECFF"/>
<path fill-rule="evenodd" clip-rule="evenodd" d="M553.03 439.768V431.279L497 399.035V407.524L553.03 439.768Z" fill="#D9ECFF"/>
<path fill-rule="evenodd" clip-rule="evenodd" d="M553.03 453.268V444.779L497 412.535V421.024L553.03 453.268Z" fill="#D9ECFF"/>
</g>
<path fill-rule="evenodd" clip-rule="evenodd" d="M686 458.5L728.5 434L771 458.5L728.5 483L686 458.5Z" stroke="#C1C1C1" stroke-width="2" stroke-linejoin="round"/>
<path opacity="0.2" fill-rule="evenodd" clip-rule="evenodd" d="M723.03 555.732V517.244L667 485V523.489L723.03 555.732Z" fill="#005DF2"/>
<defs>
<filter id="filter0_d_241_1740" x="239.784" y="210.074" width="92.7161" height="66.9258" filterUnits="userSpaceOnUse" color-interpolation-filters="sRGB">
<feFlood flood-opacity="0" result="BackgroundImageFix"/>
<feColorMatrix in="SourceAlpha" type="matrix" values="0 0 0 0 0 0 0 0 0 0 0 0 0 0 0 0 0 0 127 0" result="hardAlpha"/>
<feOffset/>
<feGaussianBlur stdDeviation="4"/>
<feComposite in2="hardAlpha" operator="out"/>
<feColorMatrix type="matrix" values="0 0 0 0 0 0 0 0 0 0.364706 0 0 0 0 0.94902 0 0 0 0.5 0"/>
<feBlend mode="normal" in2="BackgroundImageFix" result="effect1_dropShadow_241_1740"/>
<feBlend mode="normal" in="SourceGraphic" in2="effect1_dropShadow_241_1740" result="shape"/>
</filter>
<filter id="filter1_d_241_1740" x="269.764" y="307.347" width="96.5947" height="69.2849" filterUnits="userSpaceOnUse" color-interpolation-filters="sRGB">
<feFlood flood-opacity="0" result="BackgroundImageFix"/>
<feColorMatrix in="SourceAlpha" type="matrix" values="0 0 0 0 0 0 0 0 0 0 0 0 0 0 0 0 0 0 127 0" result="hardAlpha"/>
<feOffset/>
<feGaussianBlur stdDeviation="4"/>
<feComposite in2="hardAlpha" operator="out"/>
<feColorMatrix type="matrix" values="0 0 0 0 0 0 0 0 0 0.364706 0 0 0 0 0.94902 0 0 0 0.5 0"/>
<feBlend mode="normal" in2="BackgroundImageFix" result="effect1_dropShadow_241_1740"/>
<feBlend mode="normal" in="SourceGraphic" in2="effect1_dropShadow_241_1740" result="shape"/>
</filter>
<filter id="filter2_d_241_1740" x="137" y="310.836" width="158.06" height="100.488" filterUnits="userSpaceOnUse" color-interpolation-filters="sRGB">
<feFlood flood-opacity="0" result="BackgroundImageFix"/>
<feColorMatrix in="SourceAlpha" type="matrix" values="0 0 0 0 0 0 0 0 0 0 0 0 0 0 0 0 0 0 127 0" result="hardAlpha"/>
<feOffset/>
<feGaussianBlur stdDeviation="5"/>
<feComposite in2="hardAlpha" operator="out"/>
<feColorMatrix type="matrix" values="0 0 0 0 0 0 0 0 0 0.364706 0 0 0 0 0.94902 0 0 0 0.3 0"/>
<feBlend mode="normal" in2="BackgroundImageFix" result="effect1_dropShadow_241_1740"/>
<feBlend mode="normal" in="SourceGraphic" in2="effect1_dropShadow_241_1740" result="shape"/>
</filter>
<filter id="filter3_d_241_1740" x="205.556" y="350.292" width="90.0298" height="139.599" filterUnits="userSpaceOnUse" color-interpolation-filters="sRGB">
<feFlood flood-opacity="0" result="BackgroundImageFix"/>
<feColorMatrix in="SourceAlpha" type="matrix" values="0 0 0 0 0 0 0 0 0 0 0 0 0 0 0 0 0 0 127 0" result="hardAlpha"/>
<feOffset/>
<feGaussianBlur stdDeviation="5"/>
<feComposite in2="hardAlpha" operator="out"/>
<feColorMatrix type="matrix" values="0 0 0 0 0 0 0 0 0 0.364706 0 0 0 0 0.94902 0 0 0 0.3 0"/>
<feBlend mode="normal" in2="BackgroundImageFix" result="effect1_dropShadow_241_1740"/>
<feBlend mode="normal" in="SourceGraphic" in2="effect1_dropShadow_241_1740" result="shape"/>
</filter>
<filter id="filter4_d_241_1740" x="137" y="350.08" width="90.0298" height="139.599" filterUnits="userSpaceOnUse" color-interpolation-filters="sRGB">
<feFlood flood-opacity="0" result="BackgroundImageFix"/>
<feColorMatrix in="SourceAlpha" type="matrix" values="0 0 0 0 0 0 0 0 0 0 0 0 0 0 0 0 0 0 127 0" result="hardAlpha"/>
<feOffset/>
<feGaussianBlur stdDeviation="5"/>
<feComposite in2="hardAlpha" operator="out"/>
<feColorMatrix type="matrix" values="0 0 0 0 0 0 0 0 0 0.364706 0 0 0 0 0.94902 0 0 0 0.3 0"/>
<feBlend mode="normal" in2="BackgroundImageFix" result="effect1_dropShadow_241_1740"/>
<feBlend mode="normal" in="SourceGraphic" in2="effect1_dropShadow_241_1740" result="shape"/>
</filter>
<filter id="filter5_d_241_1740" x="582.406" y="211.176" width="89.1208" height="61.5884" filterUnits="userSpaceOnUse" color-interpolation-filters="sRGB">
<feFlood flood-opacity="0" result="BackgroundImageFix"/>
<feColorMatrix in="SourceAlpha" type="matrix" values="0 0 0 0 0 0 0 0 0 0 0 0 0 0 0 0 0 0 127 0" result="hardAlpha"/>
<feOffset/>
<feGaussianBlur stdDeviation="2"/>
<feComposite in2="hardAlpha" operator="out"/>
<feColorMatrix type="matrix" values="0 0 0 0 0 0 0 0 0 0.364706 0 0 0 0 0.94902 0 0 0 0.5 0"/>
<feBlend mode="normal" in2="BackgroundImageFix" result="effect1_dropShadow_241_1740"/>
<feBlend mode="normal" in="SourceGraphic" in2="effect1_dropShadow_241_1740" result="shape"/>
</filter>
<filter id="filter6_d_241_1740" x="413" y="310" width="89.4951" height="60.8691" filterUnits="userSpaceOnUse" color-interpolation-filters="sRGB">
<feFlood flood-opacity="0" result="BackgroundImageFix"/>
<feColorMatrix in="SourceAlpha" type="matrix" values="0 0 0 0 0 0 0 0 0 0 0 0 0 0 0 0 0 0 127 0" result="hardAlpha"/>
<feOffset/>
<feGaussianBlur stdDeviation="2"/>
<feComposite in2="hardAlpha" operator="out"/>
<feColorMatrix type="matrix" values="0 0 0 0 0 0 0 0 0 0.364706 0 0 0 0 0.94902 0 0 0 0.5 0"/>
<feBlend mode="normal" in2="BackgroundImageFix" result="effect1_dropShadow_241_1740"/>
<feBlend mode="normal" in="SourceGraphic" in2="effect1_dropShadow_241_1740" result="shape"/>
</filter>
<filter id="filter7_d_241_1740" x="616.922" y="309.59" width="88.5947" height="61.2849" filterUnits="userSpaceOnUse" color-interpolation-filters="sRGB">
<feFlood flood-opacity="0" result="BackgroundImageFix"/>
<feColorMatrix in="SourceAlpha" type="matrix" values="0 0 0 0 0 0 0 0 0 0 0 0 0 0 0 0 0 0 127 0" result="hardAlpha"/>
<feOffset/>
<feGaussianBlur stdDeviation="2"/>
<feComposite in2="hardAlpha" operator="out"/>
<feColorMatrix type="matrix" values="0 0 0 0 0 0 0 0 0 0.364706 0 0 0 0 0.94902 0 0 0 0.5 0"/>
<feBlend mode="normal" in2="BackgroundImageFix" result="effect1_dropShadow_241_1740"/>
<feBlend mode="normal" in="SourceGraphic" in2="effect1_dropShadow_241_1740" result="shape"/>
</filter>
<filter id="filter8_d_241_1740" x="582.158" y="408.933" width="89.1208" height="61.5884" filterUnits="userSpaceOnUse" color-interpolation-filters="sRGB">
<feFlood flood-opacity="0" result="BackgroundImageFix"/>
<feColorMatrix in="SourceAlpha" type="matrix" values="0 0 0 0 0 0 0 0 0 0 0 0 0 0 0 0 0 0 127 0" result="hardAlpha"/>
<feOffset/>
<feGaussianBlur stdDeviation="2"/>
<feComposite in2="hardAlpha" operator="out"/>
<feColorMatrix type="matrix" values="0 0 0 0 0 0 0 0 0 0.364706 0 0 0 0 0.94902 0 0 0 0.5 0"/>
<feBlend mode="normal" in2="BackgroundImageFix" result="effect1_dropShadow_241_1740"/>
<feBlend mode="normal" in="SourceGraphic" in2="effect1_dropShadow_241_1740" result="shape"/>
</filter>
<linearGradient id="paint0_linear_241_1740" x1="429" y1="416.5" x2="395" y2="364.5" gradientUnits="userSpaceOnUse">
<stop stop-color="#C1C1C1" stop-opacity="0"/>
<stop offset="0.953125" stop-color="#C1C1C1" stop-opacity="0.35"/>
</linearGradient>
<linearGradient id="paint1_linear_241_1740" x1="263.627" y1="276.646" x2="379.127" y2="352.519" gradientUnits="userSpaceOnUse">
<stop stop-color="#C1C1C1" stop-opacity="0"/>
<stop offset="0.953125" stop-color="#C1C1C1" stop-opacity="0.35"/>
</linearGradient>
<linearGradient id="paint2_linear_241_1740" x1="484" y1="266" x2="408.5" y2="393" gradientUnits="userSpaceOnUse">
<stop stop-color="#C1C1C1" stop-opacity="0"/>
<stop offset="0.953125" stop-color="#C1C1C1" stop-opacity="0.35"/>
</linearGradient>
<linearGradient id="paint3_linear_241_1740" x1="362" y1="431" x2="409.5" y2="346" gradientUnits="userSpaceOnUse">
<stop stop-color="#C1C1C1" stop-opacity="0"/>
<stop offset="1" stop-color="#C1C1C1" stop-opacity="0.35"/>
</linearGradient>
</defs>
</svg>
