<svg width="87" height="76" viewBox="0 0 87 76" fill="none" xmlns="http://www.w3.org/2000/svg">
<g opacity="0.4" filter="url(#filter0_f_1901_7269)">
<path d="M45.3474 26.9391L75.0632 43.5922C76.977 44.6671 77.0031 47.3978 75.1067 48.5074L46.1042 65.5072C44.9907 66.1574 43.6076 66.1661 42.4854 65.5246L11.9345 48.0307C9.99459 46.921 10.0294 44.121 11.9954 43.0634L41.8591 26.9045C42.9464 26.315 44.26 26.3236 45.3387 26.9305L45.3474 26.9391Z" fill="#C1C1C1"/>
<path d="M45.0358 27.3346L45.043 27.3417L45.1029 27.3753L74.8183 44.0281C76.3957 44.9141 76.4169 47.1615 74.8542 48.0759L74.8538 48.0761L45.8521 65.0754C44.8925 65.6357 43.7001 65.643 42.7335 65.0905L12.1829 47.5968L12.1827 47.5966C10.5827 46.6814 10.6128 44.3749 12.2322 43.5037L12.2333 43.5031L42.097 27.3442L42.0974 27.344C43.0147 26.8467 44.1185 26.8438 45.0358 27.3346Z" stroke="#002C72"/>
</g>
<path d="M75.8919 38.6184L75.8542 45.3874L75.8392 45.786C75.7112 46.4328 75.3197 47.0345 74.6721 47.4181L49.5697 62.167C48.6059 62.7311 47.4088 62.7386 46.4375 62.182L20.0023 46.9969C19.3322 46.6133 18.9332 45.9966 18.8052 45.3347V45.0038L18.76 38.1445" fill="#D9ECFF"/>
<path d="M75.8919 38.6184L75.8542 45.3874L75.8392 45.786C75.7112 46.4328 75.3197 47.0345 74.6721 47.4181L49.5697 62.167C48.6059 62.7311 47.4088 62.7386 46.4375 62.182L20.0023 46.9969C19.3322 46.6133 18.9332 45.9966 18.8052 45.3347V45.0038L18.76 38.1445" stroke="#002C72"/>
<path d="M48.9145 21.9875L74.6344 36.4356C76.2909 37.3682 76.3135 39.7373 74.6721 40.7001L49.5696 55.449C48.6058 56.0131 47.4087 56.0206 46.4374 55.464L20.0023 40.2939C18.3232 39.3312 18.3534 36.9019 20.055 35.9843L45.9028 21.9649C46.844 21.4535 47.9809 21.461 48.9145 21.9875Z" fill="white" stroke="#002C72" stroke-linejoin="round"/>
<path d="M35.1677 20.8623L38.6219 22.6826V47.201L35.1677 45.7419V20.8623Z" fill="#005DF2"/>
<path d="M41.2127 9.63564L35.108 21.3059L38.7218 23.0267L43.3717 20.4302L45.0988 18.7031V11.3628L60.2112 2.72713L56.3251 1L41.2127 9.63564Z" fill="#005DF2"/>
<path d="M38.8046 41.9087V46.8932C38.8046 47.5198 39.2516 47.7746 39.7978 47.459L59.6643 35.9893H59.6646C60.2488 35.6083 60.6177 34.9727 60.6581 34.2763V3.51369C60.6581 3.06434 60.4281 2.80625 60.0966 2.81261H60.0963C59.9434 2.82063 59.7948 2.86703 59.6646 2.94782L45.2616 11.2633V18.0996C45.2212 18.7956 44.8523 19.4316 44.2681 19.8125L38.8048 22.9666L38.8046 41.9087Z" fill="white" stroke="#002C72" stroke-linecap="round" stroke-linejoin="round"/>
<path d="M38.8046 22.9689L44.2678 19.8148C44.852 19.4339 45.2209 18.7979 45.2614 18.1019V11.2656L38.8046 22.9689Z" fill="white" stroke="#002C72" stroke-linecap="round" stroke-linejoin="round"/>
<path d="M58.6718 7.92383L49.7316 13.0853" stroke="#005DF2" stroke-linecap="round" stroke-linejoin="round"/>
<path d="M58.6718 11.5771L49.7316 16.7386" stroke="#005DF2" stroke-linecap="round" stroke-linejoin="round"/>
<path d="M58.6718 14.8506L49.7316 20.0121" stroke="#005DF2" stroke-linecap="round" stroke-linejoin="round"/>
<path d="M58.6718 18.5059L49.7316 23.6673" stroke="#005DF2" stroke-linecap="round" stroke-linejoin="round"/>
<path d="M56.7952 1.10098L56.668 1.03455H56.6683C56.453 0.965442 56.2176 1.00116 56.0327 1.13136L41.6296 9.45254" stroke="#002C72" stroke-linecap="round" stroke-linejoin="round"/>
<path d="M35.4999 45.732C35.2689 45.6001 35.1401 45.3424 35.1731 45.0786V21.1504" stroke="#002C72" stroke-linecap="round" stroke-linejoin="round"/>
<path d="M60.3499 2.91369L56.6687 1.0332" stroke="#002C72" stroke-linecap="round" stroke-linejoin="round"/>
<path d="M38.8048 22.9671L35.174 21.1517L41.6312 9.44824L45.2623 11.264" stroke="#002C72" stroke-linecap="round" stroke-linejoin="round"/>
<path d="M39.0623 47.5194L35.4502 45.7227" stroke="#002C72" stroke-linecap="round" stroke-linejoin="round"/>
<defs>
<filter id="filter0_f_1901_7269" x="0.5" y="16.4688" width="86.0139" height="59.5312" filterUnits="userSpaceOnUse" color-interpolation-filters="sRGB">
<feFlood flood-opacity="0" result="BackgroundImageFix"/>
<feBlend mode="normal" in="SourceGraphic" in2="BackgroundImageFix" result="shape"/>
<feGaussianBlur stdDeviation="5" result="effect1_foregroundBlur_1901_7269"/>
</filter>
</defs>
</svg>
