<svg width="77" height="70" viewBox="0 0 77 70" fill="none" xmlns="http://www.w3.org/2000/svg">
<g opacity="0.4" filter="url(#filter0_f_1805_8414)">
<path d="M40.3679 25.3556L70.5276 42.2574C72.47 43.3484 72.4965 46.1199 70.5718 47.2461L41.136 64.4998C40.0059 65.1597 38.6021 65.1685 37.4632 64.5174L6.45589 46.7622C4.48704 45.636 4.52236 42.7941 6.5177 41.7207L36.8275 25.3204C37.9311 24.7221 39.2643 24.7309 40.3591 25.3468L40.3679 25.3556Z" fill="#C1C1C1"/>
<path d="M40.0636 25.7582L40.0562 25.7509C39.1228 25.2511 37.9994 25.2538 37.0658 25.76L37.0655 25.7601L6.75565 42.1604L6.75458 42.161C5.10574 43.048 5.07517 45.3964 6.70415 46.3282L6.70435 46.3283L37.7114 64.0833C38.6947 64.6455 39.9078 64.638 40.8839 64.068L70.319 46.8147L70.3193 46.8145C71.9102 45.8837 71.8887 43.5958 70.2832 42.6936L40.0636 25.7582ZM40.0636 25.7582L40.1235 25.7918L70.2828 42.6933L40.0636 25.7582Z" stroke="#002C72"/>
</g>
<path d="M71.8353 37.1357L71.7966 44.0949L71.7811 44.5048C71.6495 45.1698 71.247 45.7884 70.5813 46.1827L44.7732 61.3462C43.7824 61.9262 42.5516 61.9339 41.553 61.3617L14.367 45.7574C13.6781 45.3631 13.2678 44.729 13.1362 44.0486V43.7083L13.0898 36.6562" fill="#D9ECFF"/>
<path d="M71.8353 37.1357L71.7966 44.0949L71.7811 44.5048C71.6495 45.1698 71.247 45.7884 70.5813 46.1827L44.7732 61.3462C43.7824 61.9262 42.5516 61.9339 41.553 61.3617L14.367 45.7574C13.6781 45.3631 13.2678 44.729 13.1362 44.0486V43.7083L13.0898 36.6562" stroke="#002C72"/>
<path d="M44.0998 20.0392L70.5427 34.8934C72.2457 35.8522 72.2689 38.288 70.5814 39.2777L44.7733 54.4412C43.7824 55.0212 42.5516 55.0289 41.5531 54.4567L14.3671 38.8525C12.6409 37.8627 12.6719 35.3651 14.4213 34.4217L40.9957 20.0083C41.9633 19.4825 43.1322 19.4902 44.0921 20.0315L44.0998 20.0392Z" fill="white" stroke="#002C72" stroke-linejoin="round"/>
<path d="M35.867 43.8856L35.9 40.429C35.5661 40.4717 35.2455 40.4815 34.9271 40.4824L34.9271 43.0911L35.867 43.8856ZM26.9967 36.0133C27.4456 36.7107 27.962 37.3192 28.4747 37.7976C27.9883 36.6104 27.6071 35.2971 27.6419 34.0761C27.6436 30.5338 28.8968 26.6325 30.8945 23.1875C32.8937 19.7399 35.6662 16.7017 38.7546 14.9181L38.7547 14.9181L49.8941 8.48776C50.5787 8.07631 51.5919 7.71937 52.5844 7.44149C52.8382 7.37042 53.0937 7.30371 53.3458 7.24194C52.7275 7.16201 52.0301 7.12806 51.3016 7.15314C49.6964 7.20839 48.0478 7.54704 46.8854 8.21803L46.6354 7.785L46.8854 8.21803L35.7421 14.6505C35.7421 14.6506 35.7421 14.6506 35.742 14.6506C32.9928 16.2385 30.4717 18.9806 28.6369 22.1439C26.8019 25.3075 25.6808 28.8447 25.6808 31.9944C25.6808 33.3905 26.2212 34.8084 26.9967 36.0133Z" fill="#005DF2" stroke="#002C72"/>
<path d="M29.8701 38.8896L29.87 38.8897C28.7892 37.7521 28.1776 35.9405 28.1776 33.5715C28.1776 30.3145 29.3319 26.6582 31.2202 23.3891C33.1084 20.1201 35.7031 17.2859 38.5333 15.6447C38.5333 15.6447 38.5333 15.6446 38.5333 15.6446L49.9931 9.00067L49.9931 9.00063C51.8179 7.94229 53.5421 7.5101 54.9808 7.68112C55.3637 7.73111 55.7393 7.82687 56.0991 7.9665L56.6718 8.24668C58.2836 9.16824 59.2801 11.2575 59.2801 14.3029C59.2801 17.5627 58.1258 21.2203 56.2375 24.4893C54.3493 27.7582 51.7547 30.5909 48.9247 32.2296L48.9243 32.2298L40.3303 37.2153L40.3299 37.2155C40.1691 37.309 40.035 37.4431 39.9415 37.6043L39.941 37.6052L36.7769 43.0877V40.8501C36.7769 40.5064 36.6121 40.1827 36.3324 39.9814L36.332 39.9812C36.0591 39.7851 35.7096 39.7285 35.3883 39.8305C35.3811 39.8326 35.3738 39.8349 35.3666 39.8373C35.1421 39.9138 34.9217 39.9765 34.7047 40.0296L34.6968 40.0316L34.6968 40.0316C34.0001 40.2142 33.2771 40.2722 32.5606 40.2026L29.8701 38.8896ZM29.8701 38.8896L29.8754 38.8954C30.1574 39.2017 30.485 39.4619 30.8465 39.6666L30.8466 39.6665L30.8554 39.6717L30.9 39.6983L30.9512 39.7239C30.9575 39.727 30.9637 39.7303 30.9699 39.7337L31.1274 39.8128C31.5764 40.0198 32.0557 40.1511 32.5466 40.2012L29.8701 38.8896Z" fill="white" stroke="#002C72" stroke-linejoin="round"/>
<line x1="32.2285" y1="28.8339" x2="55.1929" y2="14.9161" stroke="#005DF2"/>
<path d="M32.3524 33.2136L49.8849 22.5879" stroke="#005DF2"/>
<defs>
<filter id="filter0_f_1805_8414" x="0" y="19.8782" width="77" height="50.1221" filterUnits="userSpaceOnUse" color-interpolation-filters="sRGB">
<feFlood flood-opacity="0" result="BackgroundImageFix"/>
<feBlend mode="normal" in="SourceGraphic" in2="BackgroundImageFix" result="shape"/>
<feGaussianBlur stdDeviation="2.5" result="effect1_foregroundBlur_1805_8414"/>
</filter>
</defs>
</svg>
