<svg width="77" height="72" viewBox="0 0 77 72" fill="none" xmlns="http://www.w3.org/2000/svg">
<g opacity="0.4" filter="url(#filter0_f_1805_7776)">
<path d="M40.3407 27.0381L70.4847 43.9289C72.4261 45.0192 72.4525 47.7889 70.5288 48.9144L41.1084 66.1568C39.9789 66.8163 38.5758 66.8251 37.4375 66.1744L6.45514 48.4308C4.48731 47.3053 4.5226 44.4653 6.51691 43.3925L36.8109 27.003C37.914 26.4051 39.2465 26.4139 40.3407 27.0293V27.0381Z" fill="#C1C1C1"/>
<path d="M40.0963 27.4743L39.8955 27.3618C38.9923 26.9356 37.9353 26.9623 37.0492 27.4425L37.0489 27.4427L6.75483 43.8323L6.75376 43.8329C5.106 44.7192 5.07545 47.0657 6.70337 47.9967L6.70363 47.9969L37.6856 65.7403C38.6684 66.3021 39.8807 66.2946 40.8563 65.725L70.276 48.483L70.2764 48.4828C71.8662 47.5526 71.8448 45.2666 70.2403 44.3651L40.0963 27.4743ZM40.0963 27.4743L70.2399 44.3648L40.0963 27.4743Z" stroke="#002C72"/>
</g>
<path d="M72 38.7647L71.9613 45.7194L71.9459 46.129C71.8143 46.7935 71.4121 47.4117 70.7468 47.8058L44.9555 62.9594C43.9654 63.539 42.7354 63.5467 41.7374 62.9749L14.5769 47.3731C13.8885 46.979 13.4785 46.3453 13.347 45.6653V45.3253L13.3005 38.2778" fill="#D9ECFF"/>
<path d="M72 38.7647L71.9613 45.7194L71.9458 46.129C71.8143 46.7935 71.4121 47.4117 70.7468 47.8058L44.9555 62.9594C43.9654 63.539 42.7354 63.5467 41.7374 62.9749L14.5769 47.3731C13.8885 46.979 13.4785 46.3453 13.347 45.6653V45.3253L13.3005 38.2778" stroke="#002C72"/>
<path d="M44.2826 21.6777L70.7081 36.5222C72.41 37.4804 72.4332 39.9146 70.7468 40.9037L44.9556 56.0573C43.9654 56.6368 42.7354 56.6446 41.7375 56.0727L14.577 40.4864C12.8519 39.4973 12.8828 37.0013 14.6311 36.0585L41.1882 21.6545C42.1552 21.129 43.3233 21.1368 44.2826 21.6777Z" fill="white" stroke="#002C72" stroke-linejoin="round"/>
<path d="M32.8428 37.8557C32.5505 36.3376 32.4246 34.7908 32.4652 33.2468C33.2892 32.81 34.0583 32.0095 34.6871 31.0467C35.4007 29.9541 35.9688 28.5998 36.2482 27.1841L36.2485 27.1825C36.5224 25.77 36.4752 24.4973 36.1278 23.544C35.8589 22.8059 35.386 22.2166 34.723 21.9687C35.4168 20.0956 36.2498 18.2773 37.2129 16.5276C37.8411 16.866 38.6036 16.8326 39.343 16.548C40.2963 16.1811 41.2946 15.3786 42.185 14.2437L42.1855 14.243C43.0794 13.0996 43.7374 11.7846 44.0995 10.5329C44.4189 9.42885 44.5215 8.32574 44.307 7.41937C44.9505 6.84202 45.631 6.30389 46.3386 5.79417C46.8939 5.39411 47.4648 5.02776 48.0542 4.68974C48.0777 4.9612 48.1256 5.2306 48.1992 5.49507C48.363 6.21818 48.816 6.84598 49.4551 7.23092C50.0898 7.61319 50.8574 7.72967 51.5759 7.5369C52.6236 7.32595 53.6299 6.67774 54.4558 5.81913C55.2209 5.02372 55.8573 4.0214 56.2477 2.94345C57.265 3.15941 58.2222 3.58664 59.0662 4.19427C58.0416 6.0406 57.7272 8.35745 58.3549 10.0769C58.4349 10.3068 58.5331 10.5206 58.6571 10.733L58.6574 10.7335C59.2158 11.6872 60.0758 12.2052 61.0516 12.2076C61.7586 12.2094 62.4768 11.9408 63.1408 11.4501C63.4319 12.9618 63.558 14.502 63.5191 16.0396C62.6919 16.4754 61.9198 17.2781 61.2889 18.2441C60.5753 19.3367 60.0072 20.6909 59.7278 22.1067L59.7275 22.1083C59.4536 23.5207 59.5008 24.7935 59.8481 25.7467C60.1171 26.4848 60.5899 27.0741 61.253 27.3221C60.5593 29.1939 59.7263 31.0066 58.763 32.7557C58.1342 32.4175 57.3711 32.4531 56.6321 32.7392C55.6792 33.1082 54.6812 33.9124 53.791 35.0471L53.7905 35.0477C52.8966 36.1912 52.2386 37.5062 51.8765 38.7579C51.5571 39.862 51.4545 40.9652 51.6691 41.8717C50.5145 42.9106 49.2594 43.8262 47.9196 44.5991C47.8536 43.7893 47.5853 43.0803 47.1191 42.5559C46.4726 41.8285 45.5109 41.531 44.4163 41.7506L44.4117 41.7516C44.0805 41.8212 43.7629 41.9266 43.4531 42.0769L43.4531 42.0768L43.441 42.083C41.6974 42.9884 40.3756 44.52 39.7191 46.353C39.1811 46.2377 38.6574 46.0623 38.1549 45.8298L38.1442 45.819L38.0629 45.7817C37.6632 45.5979 37.2822 45.3671 36.92 45.1024C37.4691 44.1183 37.8077 43.0106 37.9164 41.9387C38.039 40.7293 37.8726 39.5209 37.334 38.5784C36.9648 37.8674 36.2989 37.3447 35.5188 37.1569L35.5175 37.1566C34.7395 36.9715 33.9173 37.1155 33.2567 37.5792C33.1151 37.6642 32.9768 37.7566 32.8428 37.8557Z" fill="white" stroke="#002C72"/>
<path d="M46.6806 31.2918C49.218 30.7818 51.8791 27.3971 52.5985 23.742C53.318 20.0869 51.8404 17.5214 49.2953 18.0314C46.758 18.5414 44.0969 21.9261 43.3774 25.5812C42.658 29.2363 44.1355 31.8018 46.6806 31.2918Z" fill="white" stroke="#002C72" stroke-linejoin="round"/>
<path d="M45.9999 31.3532C49.9219 30.7195 51.9178 25.9594 51.9178 25.9594C54.8729 16.6864 48.6997 18.2087 48.6997 18.2087C49.2257 19.5224 49.3263 20.9674 48.9859 22.3352C48.3206 25.7044 46.0153 28.8418 43.6714 29.7072C44.8086 31.6468 45.9999 31.3532 45.9999 31.3532Z" fill="#005DF2" stroke="#002C72" stroke-linejoin="round"/>
<path d="M32.6324 43.842C33.7773 42.0415 34.1409 39.6692 33.5298 38C34.0713 37.6137 34.752 37.49 35.4019 37.6446C36.0439 37.7991 36.5932 38.2319 36.8949 38.8191C37.8464 40.4728 37.5524 43.2161 36.2605 45.233C36.3379 45.2948 36.4153 45.3489 36.4849 45.403C36.9103 45.7275 37.3668 46.0134 37.8541 46.2375L34.9532 45.148L34.8913 45.1248C34.0713 44.8234 33.3054 44.3907 32.6247 43.8343L32.6324 43.842Z" fill="#005DF2" stroke="#002C72" stroke-linejoin="round"/>
<path d="M28.3545 31.5464L31.9826 32.9451C31.9052 34.9078 32.0909 36.8784 32.5396 38.7948L28.9115 37.3961C28.4705 35.4797 28.2771 33.5169 28.3545 31.5464Z" fill="white" stroke="#002C72" stroke-linejoin="round"/>
<path d="M28.3545 31.5462C29.9713 30.8894 31.6113 28.4166 32.145 25.7042C32.5473 23.6565 32.2069 22.0182 31.3869 21.3228L34.0713 22.3582C35.5488 22.4046 36.2992 24.3906 35.7732 27.1029C35.2394 29.8075 33.5994 32.2803 31.9826 32.9449L28.3545 31.5462Z" fill="#005DF2" stroke="#002C72" stroke-linejoin="round"/>
<path d="M30.4431 20.9671C31.2476 18.6952 32.2533 16.5006 33.4446 14.4065C33.7695 14.7542 34.2337 14.932 34.6978 14.8933L37.065 15.8052C35.8737 17.8993 34.868 20.0939 34.0635 22.3658L31.3791 21.3303L30.4354 20.9671H30.4431Z" fill="white" stroke="#002C72" stroke-linejoin="round"/>
<path d="M34.7056 14.8945C35.7344 14.8559 37.0263 14.029 38.179 12.5608C39.8886 10.3817 40.6931 7.53796 40.1284 5.88428L43.7565 7.28295C44.3212 8.92891 43.5167 11.7726 41.8071 13.9595C40.0974 16.1387 38.0861 16.8882 37.0727 15.8064L34.7056 14.8945Z" fill="#005DF2" stroke="#002C72" stroke-linejoin="round"/>
<path d="M40.1284 5.88332C41.575 4.53874 43.1918 3.38734 44.9478 2.46777L48.5759 3.86645C47.7018 4.32237 46.8663 4.83239 46.0618 5.41195C45.2573 5.99151 44.4837 6.60971 43.7565 7.282L40.1284 5.88332Z" fill="white" stroke="#002C72" stroke-linejoin="round"/>
<path d="M34.7056 14.8933L33.4524 14.4065L34.7056 14.8933Z" fill="white"/>
<path d="M34.7056 14.8933L33.4524 14.4065" stroke="#002C72" stroke-linejoin="round"/>
<path d="M43.7952 44.0569C43.8493 43.5469 43.8106 43.0292 43.6791 42.5269C43.9499 42.3955 44.2284 42.3028 44.5223 42.2409C46.4099 41.8623 47.6167 43.2764 47.4233 45.4479L43.7952 44.0492V44.0569Z" fill="#005DF2" stroke="#002C72" stroke-linejoin="round"/>
<path d="M58.8259 9.93338C59.1972 9.71701 59.5298 9.44655 59.8238 9.13745L63.4519 10.5361C61.9125 12.128 60.0481 12.1434 59.0889 10.5052C58.9806 10.3198 58.8955 10.1343 58.8259 9.93338Z" fill="#005DF2" stroke="#002C72" stroke-linejoin="round"/>
<path d="M48.692 5.39694C50.4403 4.4851 51.7399 2.89323 52.2969 1L55.4144 2.19776C55.5768 2.29822 55.7316 2.4064 55.8785 2.52232C55.1746 4.74783 53.318 6.71061 51.4691 7.07381C50.8735 7.23608 50.2469 7.14335 49.7208 6.82653C49.1948 6.5097 48.8235 5.99196 48.692 5.39694Z" fill="#005DF2" stroke="#002C72" stroke-linejoin="round"/>
<path d="M55.925 2.39924L55.4144 2.20605L55.925 2.39924Z" fill="white"/>
<path d="M55.925 2.39924L55.4144 2.20605" stroke="#002C72" stroke-linejoin="round"/>
<defs>
<filter id="filter0_f_1805_7776" x="0" y="21.561" width="76.9563" height="50.0959" filterUnits="userSpaceOnUse" color-interpolation-filters="sRGB">
<feFlood flood-opacity="0" result="BackgroundImageFix"/>
<feBlend mode="normal" in="SourceGraphic" in2="BackgroundImageFix" result="shape"/>
<feGaussianBlur stdDeviation="2.5" result="effect1_foregroundBlur_1805_7776"/>
</filter>
</defs>
</svg>
