<svg width="93" height="76" viewBox="0 0 93 76" fill="none" xmlns="http://www.w3.org/2000/svg">
<g opacity="0.4" filter="url(#filter0_f_1901_7500)">
<path d="M48.646 23.2415L81.1746 41.4708C83.2696 42.6475 83.2981 45.6367 81.2222 46.8514L49.4744 65.4603C48.2555 66.1721 46.7415 66.1815 45.5131 65.4793L12.0703 46.3295C9.94675 45.1148 9.98484 42.0497 12.1369 40.892L44.8275 23.2035C46.0178 22.5582 47.4557 22.5677 48.6364 23.232L48.646 23.2415Z" fill="#C1C1C1"/>
<path d="M48.3416 23.6441L48.3335 23.636C47.314 23.0879 46.086 23.09 45.0658 23.6431L45.0654 23.6433L12.3749 41.3317L12.3738 41.3323C10.5682 42.3036 10.5349 44.8752 12.3185 45.8955L12.3187 45.8956L45.7612 65.0452C46.834 65.6585 48.1574 65.6504 49.2223 65.0286L80.9694 46.42L80.9697 46.4198C82.7118 45.4005 82.6883 42.8949 80.9302 41.907L48.3416 23.6441ZM48.3416 23.6441L48.4015 23.6776L80.9298 41.9068L48.3416 23.6441Z" stroke="#002C72"/>
</g>
<path d="M82.8283 35.9497L82.7866 43.4556L82.7699 43.8976C82.628 44.6148 82.1938 45.282 81.4758 45.7074L53.6406 62.0619C52.5719 62.6874 51.2445 62.6957 50.1675 62.0786L20.8461 45.2487C20.1031 44.8233 19.6606 44.1395 19.5187 43.4056V43.0386L19.4686 35.4326" fill="#D9ECFF"/>
<path d="M82.8283 35.9497L82.7866 43.4556L82.7699 43.8976C82.628 44.6148 82.1938 45.282 81.4758 45.7074L53.6406 62.0619C52.5719 62.6874 51.2445 62.6957 50.1675 62.0786L20.8461 45.2487C20.1031 44.8233 19.6606 44.1395 19.5187 43.4056V43.0386L19.4686 35.4326" stroke="#002C72"/>
<path d="M52.9225 17.5092L81.4423 33.5301C83.2791 34.5643 83.3041 37.1913 81.4841 38.2588L53.6489 54.6134C52.5802 55.2389 51.2527 55.2472 50.1757 54.63L20.8544 37.8001C18.9926 36.7326 19.026 34.0388 20.9128 33.0214L49.5746 17.4758C50.6182 16.9087 51.8789 16.917 52.9142 17.5008L52.9225 17.5092Z" fill="white" stroke="#002C72" stroke-linejoin="round"/>
<path d="M32.5621 10.3293V33.8773L33.9555 36.2458L41.6189 39.1719L52.0691 40.0079L60.1506 39.1719L66.6994 37.2212L69.9041 33.8773L70.6008 9.07535L68.6501 5.45267L60.1506 2.66602H52.0691H43.709L33.9555 5.45267L32.5621 10.3293Z" fill="white"/>
<path d="M30.7591 8.77494V33.0038C30.7591 35.222 32.7626 37.2882 36.1553 38.7732C39.5939 40.2783 44.6398 41.2787 51.1485 41.2787C57.6571 41.2787 62.703 40.2783 66.1416 38.7732C69.5343 37.2881 71.5378 35.2219 71.5378 33.0038V8.77494C71.5378 6.55677 69.5343 4.49054 66.1416 3.00553C62.703 1.50043 57.6571 0.5 51.1485 0.5C44.6398 0.5 39.5939 1.50047 36.1553 3.00559C32.7626 4.49062 30.7591 6.55685 30.7591 8.77494ZM51.1485 38.4706C45.8592 38.4706 41.3979 37.6855 38.2761 36.5673C36.7127 36.0074 35.5083 35.3721 34.705 34.7281C33.8877 34.0729 33.5672 33.478 33.5672 33.0036V25.1864C36.7821 27.5011 42.7689 29.1643 51.1485 29.1643C59.5281 29.1643 65.5149 27.5011 68.7297 25.1864V33.0036C68.7297 33.478 68.4093 34.0729 67.5919 34.7281C66.7886 35.3721 65.5842 36.0074 64.0208 36.5673C60.899 37.6855 56.4377 38.4706 51.1485 38.4706ZM51.1485 26.3563C45.8592 26.3563 41.3979 25.5712 38.2761 24.4531C36.7127 23.8931 35.5083 23.2578 34.705 22.6139C33.8877 21.9587 33.5672 21.3637 33.5672 20.8894V13.0721C36.7821 15.3869 42.7689 17.05 51.1485 17.05C59.5281 17.05 65.5149 15.3869 68.7297 13.0721V20.8894C68.7297 21.3637 68.4093 21.9587 67.5919 22.6139C66.7886 23.2578 65.5842 23.8931 64.0208 24.4531C60.899 25.5712 56.4377 26.3563 51.1485 26.3563ZM51.1485 3.30829C56.4377 3.30829 60.899 4.09343 64.0208 5.21158C65.5842 5.77153 66.7886 6.40682 67.5919 7.05077C68.4093 7.70596 68.7297 8.30093 68.7297 8.77526C68.7297 9.24958 68.4093 9.84455 67.5919 10.4998C66.7886 11.1437 65.5842 11.779 64.0208 12.3389C60.899 13.4571 56.4377 14.2422 51.1485 14.2422C45.8592 14.2422 41.3979 13.4571 38.2761 12.3389C36.7127 11.779 35.5083 11.1437 34.705 10.4998C33.8877 9.84455 33.5672 9.24958 33.5672 8.77526C33.5672 8.30093 33.8877 7.70596 34.705 7.05077C35.5083 6.40682 36.7127 5.77153 38.2761 5.21158C41.3979 4.09343 45.8592 3.30829 51.1485 3.30829Z" fill="#005DF2" stroke="#002C72"/>
<defs>
<filter id="filter0_f_1901_7500" x="0.5" y="12.7266" width="92.2626" height="63.2734" filterUnits="userSpaceOnUse" color-interpolation-filters="sRGB">
<feFlood flood-opacity="0" result="BackgroundImageFix"/>
<feBlend mode="normal" in="SourceGraphic" in2="BackgroundImageFix" result="shape"/>
<feGaussianBlur stdDeviation="5" result="effect1_foregroundBlur_1901_7500"/>
</filter>
</defs>
</svg>
