<svg width="39" height="28" viewBox="0 0 39 28" fill="none" xmlns="http://www.w3.org/2000/svg">
<path d="M20.6509 18.34C21.2218 17.7888 21.6908 17.134 22.027 16.4061C22.3875 16.5624 22.7854 16.649 23.2039 16.649C24.8303 16.649 26.1488 15.339 26.1488 13.7231C26.1488 12.1072 24.8303 10.7972 23.2039 10.7972C22.7854 10.7972 22.3875 10.8838 22.027 11.0401C21.6908 10.3122 21.2218 9.65743 20.6509 9.10622C21.4082 8.69201 22.2784 8.4563 23.2039 8.4563C26.1315 8.4563 28.5049 10.8144 28.5049 13.7231C28.5049 16.6318 26.1315 18.9899 23.2039 18.9899C22.2784 18.9899 21.4082 18.7542 20.6509 18.34ZM16.1359 18.9903C13.2084 18.9903 10.835 16.6322 10.835 13.7235C10.835 10.8148 13.2084 8.45667 16.1359 8.45667C19.0634 8.45667 21.4368 10.8148 21.4368 13.7235C21.4368 16.6322 19.0634 18.9903 16.1359 18.9903Z" fill="#005DF2"/>
<rect x="2" y="2" width="35" height="23.4466" stroke="#005DF2" stroke-width="4"/>
</svg>
