<svg width="91" height="75" viewBox="0 0 91 75" fill="none" xmlns="http://www.w3.org/2000/svg">
<g opacity="0.4" filter="url(#filter0_f_1901_7238)">
<path d="M47.4348 23.6001L78.9307 41.2507C80.9592 42.3901 80.9868 45.2843 78.9768 46.4604L48.237 64.4786C47.0568 65.1677 45.5908 65.1769 44.4014 64.4969L12.0204 45.9551C9.96431 44.779 10.0012 41.8112 12.0849 40.6902L43.7376 23.5634C44.8901 22.9386 46.2823 22.9478 47.4256 23.5909L47.4348 23.6001Z" fill="#C1C1C1"/>
<path d="M47.1304 24.0027L47.1227 23.9949C46.1407 23.4679 44.9583 23.4703 43.9759 24.0029L43.9755 24.0031L12.3229 41.13L12.3218 41.1306C10.5846 42.0651 10.5524 44.5394 12.2687 45.5211L12.2689 45.5212L44.6496 64.0629C45.6834 64.6539 46.9587 64.646 47.9849 64.0468L78.724 46.0291L78.7243 46.0289C80.4005 45.0481 80.3779 42.6374 78.6863 41.6869L47.1304 24.0027ZM47.1304 24.0027L47.1904 24.0363L78.6859 41.6867L47.1304 24.0027Z" stroke="#002C72"/>
</g>
<path d="M81.2621 37.1484L81.2222 44.3212L81.2063 44.7437C81.0707 45.4291 80.6558 46.0666 79.9696 46.4731L53.3696 62.1019C52.3484 62.6996 51.0798 62.7076 50.0506 62.1178L22.0304 46.0348C21.3203 45.6283 20.8975 44.9748 20.7619 44.2734V43.9228L20.714 36.6543" fill="#D9ECFF"/>
<path d="M81.2621 37.1484L81.2222 44.3212L81.2063 44.7437C81.0707 45.4291 80.6558 46.0666 79.9696 46.4731L53.3696 62.1019C52.3484 62.6996 51.0798 62.7076 50.0506 62.1178L22.0304 46.0348C21.3203 45.6283 20.8975 44.9748 20.7619 44.2734V43.9228L20.714 36.6543" stroke="#002C72"/>
<path d="M52.6835 19.5252L79.9378 34.8352C81.693 35.8235 81.717 38.334 79.9777 39.3541L53.3777 54.9829C52.3564 55.5806 51.0879 55.5886 50.0586 54.9988L22.0385 38.9158C20.2593 37.8956 20.2912 35.3214 22.0943 34.3491L49.4842 19.4933C50.4815 18.9514 51.6862 18.9594 52.6756 19.5173L52.6835 19.5252Z" fill="white" stroke="#002C72" stroke-linejoin="round"/>
<path d="M51.1735 4.74347L50.6263 4.0139C48.5835 3.72208 45.8841 7.29697 44.7898 9.12089L44.6074 18.4229L37.1293 26.9953L40.7771 42.4987L42.601 45.417H44.425L46.7961 43.9578L51.1735 41.222L53.1798 39.9452L55.0037 36.4797L57.3748 34.4734L59.5635 36.4797L66.8592 32.4671V8.9385L63.029 5.29065L56.2805 9.48567L57.01 13.1335L54.4565 14.2279L52.2678 13.1335L51.5383 10.2152L51.1735 7.66175V4.74347Z" fill="white"/>
<path d="M47.1609 0.546875L50.4439 3.82994L49.1672 4.92429L47.708 6.93061L46.2489 10.3961V13.4967L46.6137 16.7798L47.5256 18.9685L40.9595 24.6227L39.5004 26.4466L38.7708 28.8177V30.824L39.1356 33.1951L40.7771 40.6732L41.8715 44.6858L38.5884 41.5852L35.4878 29.1825L35.3054 26.8114L35.4878 24.2579L36.0349 22.9811L36.9469 21.7044L43.8778 15.3207L43.3306 13.4967L42.7834 11.308L42.6011 9.30171L42.7834 7.113L43.3306 4.92429L44.6074 3.10037L45.7017 1.45884L47.1609 0.546875Z" fill="#005DF2"/>
<path d="M52.6326 13.496H53.9093L55.3685 12.7665L55.9156 12.4017L56.0878 9.64653L55.9156 9.4834H56.098L56.0878 9.64653L59.3811 12.7665V12.9489L59.5635 16.2319L57.7396 16.7791H55.3685L53.9093 15.8671L52.815 14.5904L52.6326 13.496Z" fill="#005DF2"/>
<path d="M63.0702 5.05469L56.4989 9.09858L55.9934 9.60407L59.5318 13.1425V33.1092L57.5099 34.3729L59.5318 36.3949L66.6086 32.351V8.5931L63.0702 5.05469Z" fill="#D9ECFF"/>
<path d="M35.0285 25.2573C35.2452 23.4951 35.8399 22.1456 36.7972 21.2478C38.4544 19.693 42.3417 16.3626 43.5109 15.3637C43.0658 14.4998 42.2584 12.3629 42.2584 8.23302C42.2584 5.40566 44.6473 1.51461 46.1962 0.371048C46.7676 -0.0507188 47.2275 -0.113422 47.5637 0.185497L51.0796 3.68179C51.1088 3.70731 51.1363 3.73611 51.1628 3.76709C51.1663 3.7711 51.1698 3.77548 51.1727 3.77949C51.2131 3.82797 51.2508 3.88193 51.2848 3.94316C51.4333 4.21074 51.5049 4.57127 51.5049 5.0452C51.5049 8.33955 51.8597 10.9872 52.5442 12.8963C53.4466 12.9797 54.4468 12.7096 55.5901 12.0739V9.11379L63.1848 4.57491L66.807 8.1718C66.8329 8.1842 66.8583 8.20096 66.8821 8.22247C66.9819 8.31142 67.0416 8.46234 67.0416 8.62492V32.295C67.0416 32.4864 66.9586 32.6588 66.8302 32.7358L59.6122 37.0377C59.567 37.065 59.5185 37.0778 59.4707 37.0778C59.4033 37.0778 59.3356 37.0512 59.2778 36.9994C59.2724 36.9947 59.2674 36.9888 59.262 36.9834L59.2617 36.9837L57.287 35.0032C55.4182 36.5411 54.594 37.9359 53.9482 39.0298C53.4485 39.8763 53.0167 40.6071 52.2979 41.1044C50.959 42.0303 49.5594 42.8498 47.9386 43.799C47.3118 44.1658 46.6634 44.5452 45.9759 44.9564C44.8453 45.6323 43.9567 45.9629 43.2694 45.9629C43.198 45.9629 43.129 45.9592 43.0618 45.9523C42.6849 45.9122 42.3658 45.7591 42.1047 45.4966C42.0809 45.4824 42.0578 45.4664 42.0359 45.4449L38.5593 41.9784L38.5521 41.9711C38.325 41.7324 38.142 41.4025 38.0091 40.9909C37.1289 38.2744 35.5485 31.5598 35.1649 29.35C35.0255 28.5436 34.822 26.9404 35.0285 25.257L35.0285 25.2573ZM56.0827 12.8343C54.9327 13.5095 53.9025 13.8514 52.9545 13.8707C53.3022 14.5772 53.7104 15.1437 54.1783 15.5603C55.438 16.6823 57.1429 16.6856 59.1182 15.5738V13.1707L56.2959 10.3718V12.7089L56.0827 12.8343ZM59.8233 15.8921V35.862L66.3362 31.9804V9.36016L59.8236 13.2414L59.8233 15.8921ZM59.5146 12.3754L65.9686 8.52913L63.0974 5.67666L56.6477 9.53131L59.5146 12.3754ZM59.1182 35.6461V33.683C58.6963 33.9517 58.31 34.2178 57.9561 34.4807L59.1182 35.6461ZM42.179 44.1018C42.3473 44.6217 42.7416 45.8388 45.6928 44.0756C46.383 43.6633 47.0324 43.2827 47.6606 42.9152C49.2702 41.9729 50.6604 41.1593 51.9787 40.2468C52.5622 39.8429 52.9313 39.2184 53.3984 38.4267C54.2943 36.9102 55.5149 34.8433 59.118 32.6247L59.1178 16.6088C57.0288 17.6962 55.1958 17.6153 53.7917 16.3649C51.8343 14.6209 50.7993 10.7066 50.7993 5.04501C50.7993 4.70016 50.7448 4.56492 50.7215 4.52226C50.7188 4.51716 50.7153 4.51132 50.7111 4.50549L50.6883 4.48289C50.6704 4.4705 50.6434 4.46102 50.5998 4.46102C50.1715 4.46102 49.1662 5.35887 48.1473 7.02223C47.1061 8.72246 46.4844 10.4824 46.4844 11.7313C46.4844 16.8403 47.788 18.6157 47.799 18.6302C47.8792 18.7323 47.9199 18.8788 47.9095 19.0279C47.899 19.177 47.838 19.3101 47.7452 19.3896C47.6946 19.4326 42.6604 23.7188 40.7209 25.5386C39.927 26.2834 39.4316 27.4196 39.248 28.9146C39.0616 30.4318 39.248 31.8918 39.3756 32.627C39.7547 34.8081 41.3124 41.4277 42.1792 44.1019L42.179 44.1018ZM35.8518 29.1284C36.2301 31.3073 37.7878 37.9258 38.6548 40.6023C38.7407 40.8673 38.8474 41.0649 38.9804 41.2063L41.2117 43.4311C40.3123 40.318 39.0296 34.8102 38.6893 32.8484C38.5494 32.0425 38.3456 30.4393 38.5524 28.7558C38.7691 26.9936 39.3638 25.6441 40.3211 24.7463C41.9778 23.1919 45.864 19.8614 47.0333 18.863C46.5876 17.999 45.7789 15.8621 45.7789 11.7315C45.7789 10.2639 46.4619 8.2735 47.6055 6.40641C48.5191 4.91541 49.3264 4.09269 49.931 3.72957L47.1732 0.986383C47.1098 0.938994 46.9097 0.936806 46.5317 1.21567C45.1553 2.23204 42.9631 5.85591 42.9631 8.23262C42.9631 13.3409 44.2651 15.117 44.2763 15.1315L44.6118 15.5591L44.222 15.8905C44.1715 15.9335 39.1361 20.2194 37.1964 22.0388C36.403 22.7835 35.907 23.9198 35.7235 25.4152C35.5381 26.9328 35.724 28.3931 35.8516 29.1283L35.8518 29.1284Z" fill="#002C72"/>
<defs>
<filter id="filter0_f_1901_7238" x="0.5" y="13.1016" width="89.9683" height="61.8994" filterUnits="userSpaceOnUse" color-interpolation-filters="sRGB">
<feFlood flood-opacity="0" result="BackgroundImageFix"/>
<feBlend mode="normal" in="SourceGraphic" in2="BackgroundImageFix" result="shape"/>
<feGaussianBlur stdDeviation="5" result="effect1_foregroundBlur_1901_7238"/>
</filter>
</defs>
</svg>
