<svg width="38" height="37" viewBox="0 0 38 37" fill="none" xmlns="http://www.w3.org/2000/svg">
<path d="M22.781 10.6081H15.2571C14.1493 10.6025 13.0851 11.0381 12.2988 11.8183C11.5131 12.599 11.07 13.6603 11.068 14.768V22.2924C11.0584 23.4067 11.4964 24.4786 12.2837 25.2673C13.0715 26.0566 14.1424 26.4962 15.2572 26.4886H22.7811C23.8853 26.4901 24.9446 26.0526 25.7247 25.2719C26.5055 24.4917 26.943 23.4324 26.9415 22.3282V14.7679C26.9415 13.6647 26.5029 12.6065 25.7227 11.8262C24.9425 11.0465 23.8847 10.6079 22.781 10.6079L22.781 10.6081ZM24.4091 22.2924C24.4091 23.1912 23.6803 23.92 22.781 23.92H15.2571C14.3578 23.92 13.629 23.1912 13.629 22.2924V14.768C13.629 13.8692 14.3577 13.1404 15.2571 13.1404H22.781C23.6803 13.1404 24.4091 13.8691 24.4091 14.768V22.2924Z" fill="#005DF2" stroke="#005DF2"/>
<path d="M20.2631 30.2001C19.7125 30.1986 19.173 30.3545 18.7077 30.6493C18.2424 30.944 17.871 31.3654 17.6368 31.864H8.05087C7.42762 31.864 6.8296 31.6162 6.38855 31.1756C5.94748 30.7345 5.6997 30.1365 5.6997 29.5128V17.2138C6.4905 16.8292 7.06332 16.1056 7.2566 15.2476C7.44988 14.3902 7.24297 13.4909 6.6939 12.8041C6.14483 12.1172 5.31309 11.7175 4.43355 11.7175C3.55443 11.7175 2.72278 12.1172 2.17371 12.8041C1.62464 13.4909 1.41723 14.3902 1.61051 15.2476C1.8038 16.1055 2.37709 16.8292 3.16741 17.2138V29.5128C3.16741 30.8077 3.68216 32.0503 4.59809 32.9661C5.51404 33.8815 6.75599 34.3963 8.05101 34.3963H17.637C17.9468 35.0099 18.4646 35.4934 19.098 35.7604C19.7313 36.0274 20.4389 36.0602 21.0944 35.8528C21.7495 35.6453 22.3096 35.2118 22.6744 34.629C23.0393 34.0461 23.1846 33.3527 23.0847 32.6729C22.9848 31.9926 22.6457 31.3703 22.1289 30.9171C21.6121 30.4645 20.9505 30.2101 20.2632 30.2L20.2631 30.2001Z" fill="#005DF2" stroke="#005DF2" stroke-width="1.5"/>
<path d="M34.8851 30.496V7.54756C34.8851 6.25267 34.3703 5.01009 33.4544 4.09425C32.5384 3.1788 31.2965 2.66409 30.0015 2.66409H7.04524C6.65968 1.85915 5.92793 1.27423 5.05839 1.07437C4.18885 0.874512 3.27541 1.08245 2.57699 1.63808C1.87905 2.19421 1.47229 3.03801 1.47229 3.93021C1.47229 4.82241 1.87904 5.6663 2.57699 6.22235C3.27543 6.77798 4.18893 6.9859 5.05839 6.78605C5.92786 6.5862 6.65973 6.00081 7.04524 5.19634H30.0015C30.6247 5.19634 31.2227 5.44413 31.6638 5.88469C32.1049 6.32576 32.3526 6.92378 32.3526 7.54752V30.5037C31.5618 30.8883 30.989 31.612 30.7957 32.4699C30.6024 33.3273 30.8094 34.2267 31.3584 34.9135C31.9075 35.6003 32.7392 36 33.6188 36C34.4979 36 35.3295 35.6003 35.8786 34.9135C36.4277 34.2266 36.6351 33.3274 36.4418 32.4699C36.2485 31.612 35.6752 30.8883 34.8849 30.5037L34.8851 30.496Z" fill="#005DF2" stroke="#005DF2" stroke-width="1.5"/>
</svg>
