<svg width="88" height="75" viewBox="0 0 88 75" fill="none" xmlns="http://www.w3.org/2000/svg">
<g opacity="0.4" filter="url(#filter0_f_1901_7540)">
<path d="M46.0074 25.199L76.2861 42.1675C78.2362 43.2628 78.2628 46.0452 76.3305 47.1759L46.7786 64.4977C45.644 65.1602 44.2347 65.169 43.0913 64.5153L11.9616 46.6901C9.98502 45.5594 10.0205 42.7063 12.0237 41.6287L42.4531 25.1637C43.561 24.563 44.8995 24.5719 45.9986 25.1902L46.0074 25.199Z" fill="#C1C1C1"/>
<path d="M45.7031 25.6016L45.6957 25.5943C44.7579 25.092 43.6293 25.0948 42.6914 25.6032L42.691 25.6034L12.2616 42.0684L12.2606 42.069C10.6039 42.9602 10.5732 45.3198 12.2099 46.256L12.2101 46.2562L43.3394 64.0813C44.3273 64.646 45.5459 64.6385 46.5265 64.0659L76.0776 46.7445L76.078 46.7443C77.6764 45.809 77.6549 43.5102 76.0417 42.6037L45.7031 25.6016ZM45.7031 25.6016L45.763 25.6352L76.0413 42.6034L45.7031 25.6016Z" stroke="#002C72"/>
</g>
<path d="M78.5274 38.2231L78.4891 45.1187L78.4737 45.5248C78.3434 46.1837 77.9445 46.7966 77.2849 47.1874L51.7129 62.2122C50.7311 62.7868 49.5115 62.7945 48.5221 62.2275L21.5848 46.766C20.9022 46.3752 20.4957 45.747 20.3653 45.0727V44.7356L20.3192 37.748" fill="#D9ECFF"/>
<path d="M78.5274 38.2231L78.4891 45.1187L78.4737 45.5248C78.3434 46.1837 77.9445 46.7966 77.2849 47.1874L51.7129 62.2122C50.7311 62.7868 49.5115 62.7945 48.5221 62.2275L21.5848 46.766C20.9022 46.3752 20.4957 45.747 20.3653 45.0727V44.7356L20.3192 37.748" stroke="#002C72"/>
<path d="M51.0532 21.281L77.2542 35.9993C78.9416 36.9494 78.9646 39.3628 77.2925 40.3435L51.7205 55.3683C50.7387 55.943 49.5192 55.9506 48.5297 55.3837L21.5924 39.9221C19.882 38.9414 19.9127 36.4667 21.6461 35.5319L47.9775 21.2503C48.9362 20.7293 50.0944 20.737 51.0455 21.2733L51.0532 21.281Z" fill="white" stroke="#002C72" stroke-linejoin="round"/>
<path d="M38.3656 35.3494C38.0935 32.7942 38.1865 30.2144 38.6296 27.6901L38.6296 27.6901L38.6305 27.6847C40.0117 19.2813 44.6987 10.5498 50.8408 5.83456L50.8414 5.83415C53.9688 3.42661 56.9736 2.44134 59.5272 2.64601C59.9579 2.68402 60.3811 2.75143 60.7917 2.85526L60.8059 2.85886L60.8204 2.86162L60.8521 2.8677C64.2699 3.75743 66.908 7.06334 67.6501 12.6346C67.8234 13.9353 67.8852 15.252 67.8416 16.5764L67.8415 16.5787C67.5726 26.0744 62.396 37.0435 55.2216 42.5605L55.5264 42.9569L55.2216 42.5605C51.1129 45.7202 47.216 46.4234 44.2497 45.1927L44.229 45.1769L44.1654 45.1515C43.7511 44.9858 43.3593 44.7744 42.9981 44.5236L42.9981 44.5235L42.9902 44.5182C40.693 42.9865 38.9908 40.0424 38.4192 35.7516L38.3656 35.3494Z" fill="white" stroke="#002C72"/>
<path d="M54.9817 9.53203C54.695 9.67079 54.4074 9.83057 54.1191 10.0079C50.43 12.2416 47.1933 17.2955 46.646 21.7546C46.314 24.4467 47.0247 26.5583 48.616 27.5209C49.9446 28.3039 50.6402 29.9446 50.5198 32.0349L50.4525 33.2079C50.3871 34.3354 51.2062 34.8019 52.2755 34.2506L55.5423 32.5395C56.5908 31.9838 57.4693 30.6382 57.5055 29.5375L57.54 28.3947C57.6031 26.33 58.438 23.9435 59.8077 21.8571C61.4041 19.3941 62.2887 16.7465 62.3187 14.3855C62.3785 9.67056 59.1224 7.49299 54.9854 9.52867L54.9817 9.53203ZM59.0697 21.3835C57.4715 23.8077 56.49 26.5881 56.4019 28.9923L56.3603 30.1383C56.3417 30.5762 55.9963 31.1056 55.5834 31.3233L52.3348 33.0211C51.9149 33.2384 51.5928 33.0528 51.6186 32.6116L51.6821 31.4455C51.8126 29.0326 51.005 27.138 49.4744 26.2341C48.1092 25.4039 47.491 23.5946 47.7646 21.2826C48.2183 17.4584 50.9899 13.1078 54.175 11.1721C54.4272 11.0178 54.6789 10.8776 54.9261 10.7582C58.5114 8.9869 61.3274 10.865 61.2562 14.9406C61.2222 16.982 60.4511 19.2694 59.0695 21.387L59.0697 21.3835Z" fill="#005DF2" stroke="#005DF2" stroke-width="0.5"/>
<path d="M56.6772 32.7566L51.0337 35.7181C50.7071 35.8868 50.4264 36.2996 50.4083 36.6428C50.3902 36.986 50.6371 37.1228 50.9672 36.9543L56.6398 33.9694C56.9593 33.8005 57.2259 33.3906 57.2366 33.0576C57.2472 32.7246 56.9966 32.5911 56.6806 32.7602L56.6772 32.7566Z" fill="#005DF2" stroke="#005DF2" stroke-width="0.5"/>
<path d="M57.1727 34.9744C57.1834 34.6414 56.9328 34.5079 56.6131 34.6804L50.9258 37.6822C50.5955 37.8542 50.3146 38.2705 50.2967 38.6102C50.2786 38.9534 50.529 39.0904 50.8592 38.9184L56.5721 35.8931C56.8953 35.7208 57.162 35.3109 57.1727 34.9744Z" fill="#005DF2" stroke="#005DF2" stroke-width="0.5"/>
<path d="M55.6934 37.6564C55.7077 37.32 55.4535 37.1899 55.1268 37.3621L52.2613 38.8796C51.9311 39.0516 51.6502 39.4679 51.6322 39.8076C51.6178 40.1475 51.8684 40.281 52.1986 40.1089L55.0786 38.578C55.4055 38.4023 55.6793 37.9892 55.6901 37.6527L55.6934 37.6564Z" fill="#005DF2" stroke="#005DF2" stroke-width="0.5"/>
<path d="M34.1299 34.5229C32.75 24.1637 38.4034 10.5488 46.7493 4.13464C50.9676 0.890605 55.0636 0.0976508 58.269 1.44845L58.2938 1.4606L60.9145 2.37142C60.4741 2.26004 60.0235 2.18865 59.5694 2.14866C56.8553 1.93048 53.7298 2.98063 50.5366 5.43885C44.2748 10.2459 39.5273 19.1025 38.1373 27.6045C37.6632 30.3189 37.591 33.0879 37.9162 35.8195C38.4999 40.2017 40.2512 43.2998 42.7054 44.9362C43.1053 45.2075 43.5304 45.4369 43.9724 45.6176L41.2955 44.6911L41.263 44.68C37.5907 43.716 34.877 40.1896 34.1213 34.5163L34.1299 34.5229Z" fill="#005DF2" stroke="#002C72" stroke-linecap="round" stroke-linejoin="round"/>
<defs>
<filter id="filter0_f_1901_7540" x="0.5" y="14.7197" width="87.2643" height="60.2803" filterUnits="userSpaceOnUse" color-interpolation-filters="sRGB">
<feFlood flood-opacity="0" result="BackgroundImageFix"/>
<feBlend mode="normal" in="SourceGraphic" in2="BackgroundImageFix" result="shape"/>
<feGaussianBlur stdDeviation="5" result="effect1_foregroundBlur_1901_7540"/>
</filter>
</defs>
</svg>
