<svg width="48" height="32" viewBox="0 0 48 32" fill="none" xmlns="http://www.w3.org/2000/svg">
<path d="M2 16.1791V24.9872M28.6949 16.1791V24.9872" stroke="#005DF2" stroke-width="4"/>
<path d="M28.6949 24.8579C28.6949 26.3602 22.7191 27.5781 15.3475 27.5781C7.97586 27.5781 2 26.3602 2 24.8579" stroke="#005DF2" stroke-width="4"/>
<path d="M28.6949 15.9168V7.10864H2V15.9168" stroke="#005DF2" stroke-width="4"/>
<path d="M28.6949 15.7874C28.6949 17.2897 22.7191 18.5075 15.3475 18.5075C7.97586 18.5075 2 17.2897 2 15.7874" stroke="#005DF2" stroke-width="4"/>
<line x1="39.6356" y1="24.8558" x2="39.6356" y2="11.8389" stroke="#005DF2" stroke-width="3" stroke-linecap="round"/>
<path fill-rule="evenodd" clip-rule="evenodd" d="M38.4049 27.6336C38.9907 28.2195 39.9405 28.2195 40.5263 27.6337L46.9293 21.2303C47.3902 20.7693 47.3902 20.0219 46.9293 19.561C46.4683 19.1 45.7209 19.1 45.2599 19.561L39.466 25.3549L33.6721 19.561C33.2111 19.1 32.4637 19.0999 32.0027 19.5609C31.5415 20.0219 31.5414 20.7694 32.0025 21.2305L38.4049 27.6336Z" fill="#005DF2"/>
<ellipse cx="15.5" cy="5.5" rx="13.5" ry="3.5" fill="#D9ECFF" stroke="#005DF2" stroke-width="4"/>
</svg>
