<svg width="27" height="37" viewBox="0 0 27 37" fill="none" xmlns="http://www.w3.org/2000/svg">
<path d="M5.41184 14.6957V8.67149C5.41184 4.43466 9.03213 1 13.5 1C17.967 1 21.5882 4.43792 21.5882 8.67149V14.6957H23.229C24.7594 14.6957 26 16.0607 26 17.7367V32.959C26 34.6386 24.7604 36 23.229 36H3.77095C2.24061 36 1 34.635 1 32.959V17.7367C1 16.0571 2.2396 14.6957 3.77095 14.6957H5.41184ZM3.94106 17.7389V32.9567H23.0594V17.7389H3.94106ZM18.6476 14.6957V8.67149C18.6476 6.17948 16.3961 4.04336 13.5004 4.04336C10.6026 4.04336 8.35315 6.17719 8.35315 8.67149V14.6957H18.6476ZM12.0298 23.498C12.0298 22.6578 12.6825 21.9766 13.5004 21.9766C14.3126 21.9766 14.9709 22.6518 14.9709 23.498V28.0637C14.9709 28.9042 14.3183 29.5851 13.5004 29.5851C12.6882 29.5851 12.0298 28.91 12.0298 28.0637V23.498Z" fill="#005DF2" stroke="#005DF2"/>
</svg>
