<svg width="88" height="76" viewBox="0 0 88 76" fill="none" xmlns="http://www.w3.org/2000/svg">
<g opacity="0.4" filter="url(#filter0_f_1901_7313)">
<path d="M45.8869 26.3341L76.0628 43.245C78.0062 44.3365 78.0327 47.1095 76.1069 48.2363L46.6554 65.4993C45.5247 66.1595 44.1201 66.1684 42.9806 65.5169L11.9567 47.7522C9.98677 46.6254 10.0221 43.7819 12.0185 42.708L42.3446 26.2989C43.4488 25.7003 44.7827 25.7091 45.878 26.3253L45.8869 26.3341Z" fill="#C1C1C1"/>
<path d="M45.5825 26.7367L45.5752 26.7294C44.6411 26.2293 43.5171 26.232 42.5829 26.7385L42.5825 26.7387L12.2565 43.1477L12.2554 43.1483C10.6055 44.0359 10.5749 46.3858 12.2049 47.3182L12.2051 47.3183L43.2287 65.0828C44.2127 65.6453 45.4265 65.6379 46.4033 65.0675L75.8541 47.805L75.8544 47.8048C77.4463 46.8733 77.4249 44.5839 75.8183 43.6811L45.5825 26.7367ZM45.5825 26.7367L45.6424 26.7703L75.8179 43.6809L45.5825 26.7367Z" stroke="#002C72"/>
</g>
<path d="M77.5967 38.1242L77.558 45.0872L77.5425 45.4973C77.4109 46.1626 77.0081 46.7815 76.342 47.1761L50.5201 62.3477C49.5288 62.928 48.2973 62.9357 47.2982 62.3632L20.0977 46.7506C19.4084 46.356 18.9979 45.7216 18.8662 45.0408V44.7004L18.8197 37.6445" fill="#D9ECFF"/>
<path d="M77.5967 38.1242L77.558 45.0872L77.5425 45.4973C77.4109 46.1626 77.0081 46.7815 76.342 47.1761L50.5201 62.3477C49.5288 62.928 48.2973 62.9357 47.2982 62.3632L20.0977 46.7506C19.4084 46.356 18.9979 45.7216 18.8662 45.0408V44.7004L18.8197 37.6445" stroke="#002C72"/>
<path d="M49.8543 21.0165L76.3113 35.8786C78.0152 36.838 78.0384 39.275 76.35 40.2653L50.5281 55.4369C49.5367 56.0172 48.3052 56.0249 47.3061 55.4524L20.1056 39.8398C18.3785 38.8495 18.4095 36.3506 20.1598 35.4067L46.7485 20.9855C47.7166 20.4594 48.8861 20.4672 49.8465 21.0087L49.8543 21.0165Z" fill="white" stroke="#002C72" stroke-linejoin="round"/>
<path d="M35.5764 33.4184C35.6447 30.8241 36.0818 28.2539 36.862 25.7858L36.8621 25.7858L36.8636 25.7806C39.3669 17.5526 45.223 9.43669 52.0009 5.53529L52.0014 5.53495C55.4535 3.54174 58.5937 2.95571 61.1239 3.50138C61.5501 3.59689 61.9651 3.72087 62.3625 3.87966L62.3761 3.88511L62.39 3.88974L62.4212 3.90011C65.7261 5.24734 67.9265 8.91044 67.9265 14.5871C67.9265 15.9124 67.8127 17.2388 67.5925 18.5588L67.5921 18.5611C66.0566 28.0311 59.4119 38.3216 51.4939 42.888L51.7437 43.3211L51.4939 42.888C46.959 45.5035 42.9625 45.6882 40.1554 44.0594L40.1368 44.0408L40.0771 44.0072C39.6842 43.786 39.3199 43.522 38.9915 43.2225L38.9916 43.2224L38.9845 43.2162C36.8879 41.3755 35.5764 38.2001 35.5764 33.8282V33.4184Z" fill="white" stroke="#002C72"/>
<path d="M31.4519 32.0258C31.4519 21.473 38.9259 8.59915 48.1347 3.29179C52.7895 0.607161 56.995 0.359588 60.0233 2.13902L60.0465 2.1545L62.5482 3.41557C62.1222 3.24537 61.6807 3.11384 61.2315 3.01327C58.544 2.43302 55.2756 3.06742 51.7516 5.10217C44.8431 9.07882 38.9104 17.3106 36.3855 25.6353C35.549 28.289 35.1076 31.051 35.0688 33.8284C35.0688 38.2925 36.4087 41.627 38.647 43.5921C39.0111 43.9171 39.4061 44.2033 39.8243 44.4432L37.2684 43.1589L37.2374 43.1434C33.6902 41.6889 31.4442 37.7974 31.4442 32.0181L31.4519 32.0258Z" fill="#005DF2" stroke="#002C72" stroke-linecap="round" stroke-linejoin="round"/>
<path d="M43.2112 31.356C43.3525 31.4483 43.4377 31.6057 43.4377 31.7745L43.4382 35.5117L59.4612 25.8858V24.0406C59.4612 24.0219 59.4623 24.0033 59.4644 23.9847C59.4959 23.7042 59.625 23.4419 59.8318 23.2478C59.9943 23.0952 60.2382 23.0686 60.4298 23.1827L62.7062 24.5381C62.8894 24.6471 62.9833 24.8603 62.9401 25.069C62.9161 25.1847 62.874 25.2976 62.8131 25.4027L60.3983 29.7359C60.2874 29.9348 60.0562 30.0337 59.8358 29.9765C59.6155 29.9193 59.4616 29.7204 59.4615 29.4927L59.4611 28.2877L43.5088 37.8703C43.0982 38.1839 42.5591 38.2692 42.0716 38.089C42.014 38.0677 41.9607 38.0359 41.9145 37.9953C41.5323 37.6586 41.3419 37.1524 41.3957 36.6474V31.6458C41.3957 31.6273 41.3967 31.6087 41.3988 31.5903C41.4292 31.3181 41.5513 31.0623 41.7479 30.8693C41.9155 30.7048 42.175 30.6791 42.3716 30.8075L43.2112 31.356Z" fill="#005DF2" stroke="#005DF2" stroke-linejoin="round"/>
<path d="M61.1265 20.2C60.9852 20.1077 60.9 19.9503 60.9 19.7815L60.8995 16.0439L44.8776 25.6693V27.5141C44.8776 27.533 44.8765 27.5519 44.8744 27.5707C44.8424 27.8517 44.7129 28.1136 44.5065 28.3074C44.3439 28.4601 44.0999 28.4867 43.9083 28.3725L41.6308 27.0156C41.4439 26.9042 41.3505 26.6849 41.3997 26.473C41.4257 26.3608 41.4677 26.2538 41.5234 26.1552C41.5237 26.1546 41.5241 26.154 41.5244 26.1534L43.9402 21.8196C44.0511 21.6207 44.2823 21.5218 44.5026 21.5791C44.723 21.6363 44.8769 21.8352 44.877 22.0629L44.8773 23.2677L60.8284 13.6849C61.2391 13.3709 61.7781 13.2865 62.2651 13.4659C62.323 13.4872 62.3764 13.5191 62.4227 13.5599C62.8052 13.8967 62.995 14.4026 62.9415 14.9072V19.909C62.9415 19.9275 62.9405 19.946 62.9385 19.9645C62.908 20.2372 62.7854 20.4941 62.587 20.6873C62.4192 20.8506 62.1607 20.8756 61.9647 20.7476L61.1265 20.2Z" fill="#005DF2" stroke="#005DF2" stroke-linejoin="round"/>
<defs>
<filter id="filter0_f_1901_7313" x="0.5" y="15.8564" width="87.0359" height="60.1436" filterUnits="userSpaceOnUse" color-interpolation-filters="sRGB">
<feFlood flood-opacity="0" result="BackgroundImageFix"/>
<feBlend mode="normal" in="SourceGraphic" in2="BackgroundImageFix" result="shape"/>
<feGaussianBlur stdDeviation="5" result="effect1_foregroundBlur_1901_7313"/>
</filter>
</defs>
</svg>
