<svg width="77" height="71" viewBox="0 0 77 71" fill="none" xmlns="http://www.w3.org/2000/svg">
<g opacity="0.4" filter="url(#filter0_f_1805_8424)">
<path d="M40.3327 25.9948L70.4624 42.8797C72.4028 43.9696 72.4293 46.7384 70.5065 47.8635L41.1001 65.1C39.9711 65.7592 38.5687 65.768 37.4309 65.1176L6.45445 47.38C4.48755 46.2549 4.52283 43.4159 6.51619 42.3435L36.7958 25.9596C37.8983 25.3619 39.2302 25.3707 40.3239 25.986L40.3327 25.9948Z" fill="#C1C1C1"/>
<path d="M40.0283 26.3974L40.021 26.3901C39.0887 25.8909 37.9666 25.8936 37.0341 26.3992L37.0338 26.3994L6.75413 42.7833L6.75307 42.7839C5.10622 43.6698 5.07569 46.0153 6.70271 46.946L6.70291 46.9461L37.679 64.6835C38.6612 65.245 39.8729 65.2375 40.8479 64.6682L70.2537 47.4321L70.254 47.4319C71.8429 46.5022 71.8215 44.217 70.2179 43.3159L40.0283 26.3974ZM40.0283 26.3974L40.0883 26.4309L70.2175 43.3157L40.0283 26.3974Z" stroke="#002C72"/>
</g>
<path d="M71.9941 37.7656L71.9555 44.7179L71.94 45.1273C71.8086 45.7917 71.4064 46.4096 70.7414 46.8036L44.959 61.952C43.9691 62.5314 42.7396 62.5391 41.742 61.9675L14.5831 46.3787C13.8949 45.9848 13.485 45.3513 13.3535 44.6716V44.3317L13.3071 37.2866" fill="#D9ECFF"/>
<path d="M71.9941 37.7656L71.9555 44.7179L71.94 45.1273C71.8086 45.7917 71.4064 46.4096 70.7414 46.8036L44.959 61.952C43.9691 62.5314 42.7396 62.5391 41.742 61.9675L14.5831 46.3787C13.8949 45.9848 13.485 45.3513 13.3535 44.6716V44.3317L13.3071 37.2866" stroke="#002C72"/>
<path d="M44.2939 20.6853L70.7104 35.5247C72.4117 36.4826 72.4348 38.9159 70.749 39.9046L44.9666 55.053C43.9768 55.6324 42.7472 55.6401 41.7496 55.0685L14.5908 39.4798C12.8663 38.491 12.8972 35.9959 14.6449 35.0535L41.1928 20.6544C42.1595 20.1291 43.3272 20.1368 44.2861 20.6775L44.2939 20.6853Z" fill="white" stroke="#002C72" stroke-linejoin="round"/>
<path d="M30.0389 33.0686C30.1071 30.4784 30.5435 27.9121 31.3225 25.4479L31.3225 25.4479L31.3241 25.4427C33.8235 17.2274 39.6705 9.12411 46.4378 5.2288L46.4384 5.22846C49.8851 3.23835 53.0203 2.6533 55.5464 3.19809C55.9719 3.29345 56.3862 3.41723 56.7829 3.57575L56.7965 3.5812L56.8105 3.58584L56.8415 3.59618C60.141 4.94119 62.3379 8.59831 62.3379 14.2661C62.3379 15.5893 62.2243 16.9136 62.0044 18.2316L62.0041 18.2339C60.471 27.6892 53.8366 37.9637 45.9309 42.523L46.1806 42.9561L45.9308 42.523C41.403 45.1344 37.413 45.3188 34.6106 43.6927L34.592 43.6741L34.5323 43.6405C34.14 43.4197 33.7764 43.1561 33.4485 42.8571L33.4486 42.857L33.4415 42.8508C31.3483 41.0131 30.0389 37.8428 30.0389 33.4778V33.0686Z" fill="white" stroke="#002C72"/>
<path d="M25.9198 31.6775C25.9198 21.1409 33.3824 8.28673 42.5771 2.9875C47.2247 0.306981 51.4238 0.0597866 54.4475 1.8365L54.4707 1.85195L56.9685 3.11109C56.5432 2.94115 56.1024 2.80983 55.6539 2.7094C52.9705 2.13004 49.7071 2.76348 46.1885 4.79511C39.2905 8.76567 33.3669 16.9849 30.8459 25.2968C30.0107 27.9464 29.5699 30.7042 29.5312 33.4774C29.5312 37.9346 30.8691 41.264 33.104 43.2261C33.4674 43.5506 33.8618 43.8364 34.2794 44.0759L31.7275 42.7936L31.6965 42.7781C28.1547 41.3258 25.9121 37.4402 25.9121 31.6698L25.9198 31.6775Z" fill="#005DF2" stroke="#002C72" stroke-linecap="round" stroke-linejoin="round"/>
<path d="M46.9089 37.0549C47.1216 37.0549 47.31 36.9205 47.3803 36.7216L54.7936 23.3014C54.9022 23.1049 54.8665 22.8602 54.7063 22.7029C54.5462 22.5457 54.3009 22.5144 54.1064 22.6264L50.2702 24.8365V9.9429C50.2702 9.76429 50.1749 9.59924 50.0203 9.50992C49.8656 9.42059 49.675 9.42055 49.5203 9.50981L43.79 12.816C43.6353 12.9053 43.5399 13.0704 43.5399 13.2491V28.7265L39.2045 31.2241C39.0541 31.3108 38.9594 31.4692 38.9544 31.6427C38.9493 31.8162 39.0345 31.98 39.1796 32.0753L46.5746 36.9335C46.6641 37.0107 46.7795 37.0549 46.9012 37.0549H46.9089Z" fill="#005DF2" stroke="#002C72" stroke-linecap="round" stroke-linejoin="round"/>
<defs>
<filter id="filter0_f_1805_8424" x="0" y="20.5178" width="76.9332" height="50.082" filterUnits="userSpaceOnUse" color-interpolation-filters="sRGB">
<feFlood flood-opacity="0" result="BackgroundImageFix"/>
<feBlend mode="normal" in="SourceGraphic" in2="BackgroundImageFix" result="shape"/>
<feGaussianBlur stdDeviation="2.5" result="effect1_foregroundBlur_1805_8424"/>
</filter>
</defs>
</svg>
