<svg width="77" height="73" viewBox="0 0 77 73" fill="none" xmlns="http://www.w3.org/2000/svg">
<g opacity="0.4" filter="url(#filter0_f_1805_8396)">
<path d="M40.3416 28.3804L70.4865 45.2717C72.4279 46.362 72.4544 49.1317 70.5306 50.2572L41.1094 67.5002C39.9798 68.1596 38.5767 68.1684 37.4384 67.5178L6.45518 49.7736C4.48729 48.6481 4.52259 45.808 6.51695 44.7353L36.8118 28.3453C37.9149 27.7473 39.2474 27.7561 40.3416 28.3716V28.3804Z" fill="#C1C1C1"/>
<path d="M39.8964 28.7041C38.9932 28.2779 37.9361 28.3045 37.0501 28.7848L37.0497 28.785L6.75487 45.1751L6.7538 45.1756C5.10598 46.062 5.07544 48.4085 6.70341 49.3396L6.70366 49.3397L37.6865 67.0837C38.6692 67.6454 39.8814 67.638 40.857 67.0686C40.8571 67.0685 40.8572 67.0684 40.8573 67.0684L70.2778 49.8259L70.2781 49.8257C71.868 48.8955 71.8466 46.6094 70.2421 45.7078L39.8964 28.7041ZM39.8964 28.7041L40.0972 28.8166L70.2416 45.7076L39.8964 28.7041Z" stroke="#002C72"/>
</g>
<path d="M71.8777 39.9877L71.8393 46.9547L71.824 47.3649C71.6935 48.0307 71.2942 48.65 70.6339 49.0447L45.036 64.225C44.0532 64.8056 42.8325 64.8133 41.842 64.2405L14.8851 48.6112C14.2018 48.2164 13.7949 47.5817 13.6644 46.9005V46.5599L13.6183 39.5" fill="#D9ECFF"/>
<path d="M71.8777 39.9877L71.8393 46.9547L71.824 47.3649C71.6935 48.0307 71.2942 48.65 70.6339 49.0447L45.036 64.225C44.0532 64.8056 42.8325 64.8133 41.842 64.2405L14.8851 48.6112C14.2018 48.2165 13.7949 47.5817 13.6644 46.9005V46.5599L13.6183 39.5" stroke="#002C72"/>
<path d="M44.2836 23.02L70.7099 37.8649C72.4118 38.8231 72.435 41.2573 70.7486 42.2465L44.9566 57.4005C43.9664 57.9801 42.7364 57.9878 41.7384 57.416L14.5772 41.8292C12.8521 40.84 12.883 38.344 14.6313 37.4012L41.1892 22.9968C42.1562 22.4713 43.3243 22.479 44.2836 23.02Z" fill="white" stroke="#002C72" stroke-linejoin="round"/>
<path d="M30.133 47.7622L32.8917 49.3256L56.9093 35.172V12.6515L54.2494 11.2329L30.133 25.048V47.7622Z" fill="#005DF2" stroke="#002C72" stroke-linecap="round" stroke-linejoin="round"/>
<path d="M30.133 47.7622V25.0496L54.2494 11.2329" fill="#005DF2"/>
<path d="M30.133 47.7622V25.0496L54.2494 11.2329" stroke="#002C72" stroke-linecap="round" stroke-linejoin="round"/>
<path d="M32.9704 49.1811L57.0868 35.366V12.6519L32.9704 26.467V49.1811Z" fill="white" stroke="#002C72" stroke-linecap="round" stroke-linejoin="round"/>
<path d="M30.2999 30.2063L32.9703 31.4476V29.3943L30.2999 28.0784V30.2063Z" fill="#002C72" stroke="#002C72"/>
<path d="M56.9093 17.617L32.9702 31.2712V29.3206L56.9093 15.8438V17.617Z" fill="#002C72" stroke="#002C72"/>
<path d="M44.3192 32.2618C44.3192 34.7107 46.1453 35.6966 48.3974 34.4637H48.398C50.8007 32.9854 52.3157 30.509 52.4762 27.7978C52.4762 25.349 50.65 24.3631 48.398 25.596C45.9947 27.0748 44.4797 29.5507 44.3192 32.2618H44.3192Z" stroke="#002C72" stroke-linecap="round" stroke-linejoin="round"/>
<path d="M37.9355 36.3223C37.9355 38.9461 39.841 40.0024 42.191 38.6815H42.1916C44.6988 37.0976 46.2797 34.4443 46.4471 31.5394C46.4471 28.9157 44.5416 27.8594 42.1916 29.1803C39.6838 30.7647 38.1029 33.4175 37.9355 36.3223H37.9355Z" fill="#005DF2" stroke="#002C72" stroke-linecap="round" stroke-linejoin="round"/>
<path d="M57.0868 12.6515L54.2496 11.2329" stroke="#002C72" stroke-linecap="round" stroke-linejoin="round"/>
<path d="M32.9703 26.4833L30.1331 25.0647" stroke="#002C72" stroke-linecap="round" stroke-linejoin="round"/>
<defs>
<filter id="filter0_f_1805_8396" x="0" y="22.9033" width="76.9581" height="50.0969" filterUnits="userSpaceOnUse" color-interpolation-filters="sRGB">
<feFlood flood-opacity="0" result="BackgroundImageFix"/>
<feBlend mode="normal" in="SourceGraphic" in2="BackgroundImageFix" result="shape"/>
<feGaussianBlur stdDeviation="2.5" result="effect1_foregroundBlur_1805_8396"/>
</filter>
</defs>
</svg>
