<svg width="77" height="71" viewBox="0 0 77 71" fill="none" xmlns="http://www.w3.org/2000/svg">
<g opacity="0.4" filter="url(#filter0_f_1805_8397)">
<path d="M40.3327 26.3947L70.4624 43.2796C72.4028 44.3695 72.4293 47.1383 70.5065 48.2634L41.1001 65.4999C39.9711 66.1591 38.5687 66.1679 37.4309 65.5175L6.45445 47.7799C4.48755 46.6548 4.52283 43.8158 6.51619 42.7434L36.7958 26.3595C37.8983 25.7618 39.2302 25.7706 40.3239 26.3859L40.3327 26.3947Z" fill="#C1C1C1"/>
<path d="M40.0283 26.7973L40.021 26.79C39.0887 26.2908 37.9666 26.2935 37.0341 26.7991L37.0338 26.7993L6.75413 43.1832L6.75307 43.1838C5.10622 44.0697 5.07569 46.4152 6.70271 47.3459L6.70291 47.346L37.679 65.0834C38.6612 65.6449 39.8729 65.6374 40.8479 65.0681L70.2537 47.832L70.254 47.8318C71.8429 46.9021 71.8215 44.6169 70.2179 43.7158L40.0283 26.7973ZM40.0283 26.7973L40.0883 26.8308L70.2175 43.7156L40.0283 26.7973Z" stroke="#002C72"/>
</g>
<path d="M71.994 38.1657L71.9553 45.1181L71.9399 45.5275C71.8084 46.1918 71.4063 46.8098 70.7412 47.2038L44.9589 62.3522C43.969 62.9315 42.7394 62.9392 41.7419 62.3676L14.583 46.7789C13.8947 46.3849 13.4849 45.7515 13.3534 45.0717V44.7318L13.307 37.6868" fill="#D9ECFF"/>
<path d="M71.994 38.1657L71.9553 45.1181L71.9399 45.5275C71.8084 46.1918 71.4063 46.8098 70.7412 47.2038L44.9589 62.3522C43.969 62.9315 42.7394 62.9392 41.7419 62.3676L14.583 46.7789C13.8947 46.3849 13.4849 45.7515 13.3534 45.0717V44.7318L13.307 37.6868" stroke="#002C72"/>
<path d="M44.294 21.0854L70.7105 35.9248C72.4118 36.8827 72.435 39.316 70.7491 40.3048L44.9668 55.4532C43.9769 56.0326 42.7473 56.0403 41.7498 55.4686L14.5909 39.8799C12.8664 38.8912 12.8973 36.396 14.645 35.4536L41.193 21.0545C42.1596 20.5292 43.3273 20.537 44.2862 21.0777L44.294 21.0854Z" fill="white" stroke="#002C72" stroke-linejoin="round"/>
<path d="M30.0389 33.4685C30.1071 30.8783 30.5435 28.312 31.3225 25.8478L31.3225 25.8478L31.3241 25.8426C33.8235 17.6273 39.6705 9.52401 46.4378 5.6287L46.4384 5.62836C49.8851 3.63825 53.0203 3.0532 55.5464 3.598C55.9719 3.69335 56.3861 3.81713 56.7829 3.97565L56.7965 3.9811L56.8104 3.98574L56.8415 3.99608C60.141 5.34109 62.3379 8.99821 62.3379 14.666C62.3379 15.9892 62.2243 17.3135 62.0044 18.6315L62.0041 18.6338C60.471 28.0891 53.8366 38.3636 45.9309 42.9229L46.1806 43.356L45.9308 42.9229C41.4031 45.5343 37.413 45.7187 34.6106 44.0926L34.592 44.074L34.5323 44.0404C34.14 43.8196 33.7764 43.556 33.4485 43.257L33.4486 43.2569L33.4415 43.2506C31.3483 41.413 30.0389 38.2427 30.0389 33.8777V33.4685Z" fill="white" stroke="#002C72"/>
<path d="M25.9198 32.0777C25.9198 21.541 33.3824 8.68688 42.5771 3.38764C47.2247 0.707128 51.4238 0.459933 54.4475 2.23664L54.4707 2.25209L56.9685 3.51124C56.5432 3.34129 56.1024 3.20997 55.6539 3.10955C52.9705 2.53019 49.7071 3.16362 46.1885 5.19525C39.2905 9.16582 33.3669 17.385 30.8459 25.697C30.0107 28.3466 29.5699 31.1043 29.5312 33.8775C29.5312 38.3348 30.8691 41.6642 33.104 43.6263C33.4674 43.9507 33.8618 44.2365 34.2794 44.476L31.7275 43.1937L31.6965 43.1782C28.1547 41.726 25.9121 37.8404 25.9121 32.0699L25.9198 32.0777Z" fill="#005DF2" stroke="#002C72" stroke-linecap="round" stroke-linejoin="round"/>
<path d="M37.5248 31.6185C37.5955 31.6646 37.6381 31.7433 37.6381 31.8277L37.6386 35.9996L54.1356 26.089V24.1056C54.1356 24.0963 54.1361 24.0869 54.1371 24.0777C54.1622 23.8553 54.2644 23.6483 54.4269 23.4957C54.5082 23.4194 54.6301 23.4061 54.7259 23.4632L56.9989 24.8165C57.0904 24.871 57.1374 24.9776 57.1158 25.0819C57.097 25.1728 57.0639 25.2609 57.0164 25.3423L54.6042 29.6709C54.5488 29.7703 54.4332 29.8198 54.323 29.7912C54.2128 29.7626 54.1359 29.6631 54.1358 29.5493L54.1354 27.9058L37.8176 37.708C37.4731 37.9767 37.0193 38.0501 36.6098 37.8988C36.5809 37.8881 36.5543 37.8722 36.5312 37.8519C36.2086 37.5678 36.0477 37.137 36.0977 36.7069V31.6992C36.0977 31.6899 36.0982 31.6807 36.0992 31.6714C36.1234 31.4554 36.2202 31.2534 36.3747 31.1017C36.4585 31.0194 36.5883 31.0066 36.6866 31.0708L37.5248 31.6185Z" fill="#005DF2" stroke="#005DF2" stroke-width="0.5" stroke-linejoin="round"/>
<path d="M55.6854 20.0608C55.6148 20.0146 55.5722 19.9359 55.5721 19.8515L55.5716 15.6793L39.0758 25.5893V27.5723C39.0758 27.5817 39.0753 27.5912 39.0742 27.6006C39.0488 27.8235 38.9462 28.0303 38.7839 28.1828C38.7026 28.2591 38.5806 28.2724 38.4848 28.2153L36.2108 26.8604C36.1173 26.8048 36.0706 26.6951 36.0952 26.5891C36.1158 26.5003 36.1491 26.4156 36.1934 26.3374C36.1935 26.3372 36.1937 26.3369 36.1938 26.3366L38.6068 22.0078C38.6622 21.9084 38.7778 21.859 38.888 21.8876C38.9982 21.9162 39.0751 22.0157 39.0751 22.1295L39.0756 23.7728L55.3922 13.9704C55.7366 13.7015 56.1904 13.6287 56.5998 13.7795C56.6287 13.7902 56.6554 13.8061 56.6786 13.8265C57.0012 14.1107 57.1617 14.5411 57.1121 14.9709V19.9789C57.1121 19.9881 57.1116 19.9974 57.1105 20.0066C57.0864 20.223 56.9892 20.4258 56.8334 20.5774C56.7496 20.659 56.6203 20.6716 56.5223 20.6075L55.6854 20.0608Z" fill="#005DF2" stroke="#005DF2" stroke-width="0.5" stroke-linejoin="round"/>
<defs>
<filter id="filter0_f_1805_8397" x="0" y="20.9177" width="76.9332" height="50.082" filterUnits="userSpaceOnUse" color-interpolation-filters="sRGB">
<feFlood flood-opacity="0" result="BackgroundImageFix"/>
<feBlend mode="normal" in="SourceGraphic" in2="BackgroundImageFix" result="shape"/>
<feGaussianBlur stdDeviation="2.5" result="effect1_foregroundBlur_1805_8397"/>
</filter>
</defs>
</svg>
