<svg width="37" height="37" viewBox="0 0 37 37" fill="none" xmlns="http://www.w3.org/2000/svg">
<path d="M33.5 13.8625H31.1125C30.9875 13.5248 30.8499 13.1875 30.7001 12.8625L32.3876 11.175C32.8569 10.7062 33.1208 10.0698 33.1208 9.40627C33.1208 8.74277 32.8569 8.10635 32.3876 7.63756L29.3624 4.61244C28.8937 4.14313 28.2572 3.87916 27.5937 3.87916C26.9302 3.87916 26.2938 4.1431 25.825 4.61244L24.1375 6.29993C23.8125 6.14981 23.4752 6.01254 23.1375 5.88754V3.49999C23.1375 2.83705 22.8742 2.20114 22.4051 1.73214C21.9364 1.26339 21.3005 1 20.6376 1H16.3624C15.6995 1 15.0636 1.26339 14.5949 1.73214C14.1259 2.20116 13.8625 2.83706 13.8625 3.49999V5.88754C13.5248 6.01254 13.1875 6.1501 12.8625 6.29993L11.175 4.61244C10.7062 4.14313 10.0698 3.87916 9.40627 3.87916C8.74277 3.87916 8.10635 4.1431 7.63756 4.61244L4.61244 7.63756C4.14313 8.10631 3.87916 8.74277 3.87916 9.40627C3.87916 10.0698 4.1431 10.7062 4.61244 11.175L6.29993 12.8625C6.14981 13.1875 6.01254 13.5248 5.88754 13.8625H3.49999C2.83705 13.8625 2.20114 14.1258 1.73214 14.5949C1.26339 15.0636 1 15.6995 1 16.3624V20.6376C1 21.3005 1.26339 21.9364 1.73214 22.4051C2.20116 22.8741 2.83706 23.1375 3.49999 23.1375H5.88754C6.01254 23.4752 6.1501 23.8125 6.29993 24.1375L4.61244 25.825C4.14313 26.2938 3.87916 26.9302 3.87916 27.5937C3.87916 28.2572 4.1431 28.8937 4.61244 29.3624L7.63756 32.3876C8.10631 32.8569 8.74277 33.1208 9.40627 33.1208C10.0698 33.1208 10.7062 32.8569 11.175 32.3876L12.8625 30.7001C13.1875 30.8502 13.5248 30.9875 13.8625 31.1125V33.5C13.8625 34.163 14.1258 34.7989 14.5949 35.2679C15.0636 35.7366 15.6995 36 16.3624 36H20.6376C21.3005 36 21.9364 35.7366 22.4051 35.2679C22.8741 34.7988 23.1375 34.1629 23.1375 33.5V31.1125C23.4752 30.9875 23.8125 30.8499 24.1375 30.7001L25.825 32.3876C26.2938 32.8569 26.9302 33.1208 27.5937 33.1208C28.2572 33.1208 28.8937 32.8569 29.3624 32.3876L32.3876 29.3624C32.8569 28.8937 33.1208 28.2572 33.1208 27.5937C33.1208 26.9302 32.8569 26.2938 32.3876 25.825L30.7001 24.1375C30.8502 23.8125 30.9875 23.4752 31.1125 23.1375H33.5C34.163 23.1375 34.7989 22.8742 35.2679 22.4051C35.7366 21.9364 36 21.3005 36 20.6376V16.3624C36 15.6995 35.7366 15.0636 35.2679 14.5949C34.7988 14.1259 34.1629 13.8625 33.5 13.8625ZM33.5 20.6376H30.2001C29.9211 20.6264 29.6465 20.709 29.42 20.8722C29.1934 21.0352 29.028 21.2695 28.9501 21.5374C28.7261 22.3156 28.4158 23.0661 28.0252 23.7751C27.8943 24.0125 27.8447 24.286 27.8829 24.5541C27.9211 24.8225 28.0455 25.0711 28.2375 25.2625L30.5626 27.5876L27.5374 30.6127L25.2124 28.2876L25.2127 28.2874C25.0213 28.0957 24.7727 27.9712 24.5042 27.9327C24.2361 27.8945 23.9624 27.9445 23.725 28.075C23.0163 28.4662 22.2657 28.7765 21.4875 29C21.2197 29.0778 20.9853 29.2433 20.8221 29.4698C20.6591 29.6964 20.5766 29.9709 20.5877 30.25V33.4999H16.3626V30.2C16.3738 29.921 16.2912 29.6465 16.1279 29.4199C15.965 29.1933 15.7306 29.0279 15.4628 28.95C14.6846 28.7265 13.9341 28.4163 13.2251 28.0251C12.9876 27.8942 12.7142 27.8446 12.4461 27.8828C12.1777 27.921 11.9291 28.0455 11.7376 28.2374L9.4003 30.6124L6.38775 27.5999L8.71281 25.2748V25.2751C8.90449 25.0837 9.02893 24.8351 9.06743 24.5667C9.10566 24.2985 9.05572 24.0248 8.92513 23.7874C8.53423 23.0784 8.22397 22.3281 8.00021 21.55C7.92237 21.2821 7.75691 21.0477 7.53035 20.8845C7.30379 20.7216 7.02924 20.639 6.75021 20.6501H3.50023V16.3625H6.80014C7.07915 16.3737 7.35371 16.2911 7.58028 16.1279C7.80684 15.9649 7.9723 15.7305 8.05014 15.4627C8.27419 14.6845 8.58446 13.934 8.97506 13.225C9.10592 12.9875 9.15558 12.7141 9.11736 12.446C9.07914 12.1776 8.9547 11.929 8.76274 11.7376L6.38775 9.40022L9.4003 6.38767L11.7254 8.71273H11.7251C11.9165 8.90441 12.1651 9.02885 12.4335 9.06735C12.7016 9.10558 12.9754 9.05564 13.2128 8.92506C13.9215 8.53387 14.6721 8.22361 15.4502 8.00013C15.7181 7.92229 15.9524 7.75683 16.1157 7.53027C16.2786 7.30371 16.3612 7.02916 16.35 6.75013V3.50015H20.6251V6.80006C20.614 7.07907 20.6966 7.35363 20.8598 7.5802C21.0227 7.80676 21.2571 7.97222 21.5253 8.05006C22.3035 8.27355 23.054 8.58382 23.7627 8.97498C24.0001 9.10584 24.2735 9.1555 24.542 9.11728C24.8101 9.07906 25.0587 8.95462 25.2501 8.76266L27.5752 6.4376L30.6003 9.46272L28.2752 11.7878V11.7875C28.0833 11.9789 27.9588 12.2275 27.9203 12.4959C27.8821 12.7641 27.932 13.0378 28.0626 13.2752C28.4535 13.9842 28.7638 14.7345 28.9875 15.5126C29.0657 15.7805 29.2308 16.0148 29.4574 16.1781C29.684 16.341 29.9588 16.4236 30.2375 16.4124H33.5001L33.5 20.6376Z" fill="#005DF2" stroke="#005DF2"/>
<path d="M18.5001 11.0002C16.5109 11.0002 14.6033 11.7904 13.1968 13.1969C11.7903 14.6035 11.0001 16.5111 11.0001 18.5002C11.0001 20.4893 11.7903 22.397 13.1968 23.8035C14.6034 25.2099 16.5109 26.0002 18.5001 26.0002C20.4892 26.0002 22.3968 25.21 23.8033 23.8035C25.2098 22.3969 26 20.4893 26 18.5002C26 16.5111 25.2099 14.6034 23.8033 13.1969C22.3968 11.7905 20.4892 11.0002 18.5001 11.0002ZM18.5001 23.5002C17.1739 23.5002 15.9022 22.9734 14.9647 22.0356C14.0269 21.0981 13.5001 19.8263 13.5001 18.5002C13.5001 17.1741 14.0269 15.9023 14.9647 14.9648C15.9022 14.027 17.1739 13.5002 18.5001 13.5002C19.8262 13.5002 21.098 14.027 22.0355 14.9648C22.9733 15.9023 23.5001 17.1741 23.5001 18.5002C23.5001 19.8263 22.9733 21.0981 22.0355 22.0356C21.098 22.9734 19.8262 23.5002 18.5001 23.5002Z" fill="#005DF2" stroke="#005DF2"/>
</svg>
