<svg width="98" height="76" viewBox="0 0 98 76" fill="none" xmlns="http://www.w3.org/2000/svg">
<g opacity="0.4" filter="url(#filter0_f_1901_7195)">
<path d="M50.9675 20.6332L85.4845 39.9743C87.7075 41.2228 87.7379 44.3943 85.5351 45.683L51.8466 65.4268C50.5533 66.182 48.9466 66.192 47.6432 65.447L12.1662 45.1293C9.91293 43.8405 9.95335 40.5885 12.237 39.3602L46.9257 20.593C48.1888 19.9083 49.7146 19.9184 50.9675 20.6232V20.6332Z" fill="#C1C1C1"/>
<path d="M50.491 20.9393C49.4354 20.4403 48.1997 20.4711 47.164 21.0325L47.1637 21.0327L12.4749 39.7999L12.4738 39.8005C10.5367 40.8424 10.5011 43.6009 12.4145 44.6952L12.4147 44.6954L47.8913 65.0129C49.0391 65.669 50.4549 65.6603 51.5942 64.9952C51.5943 64.9952 51.5944 64.9951 51.5945 64.9951L85.2823 45.2516L85.2826 45.2514C87.1515 44.158 87.1262 41.4702 85.2401 40.4105L50.491 20.9393ZM50.491 20.9393L50.7231 21.0694L85.2397 40.4103L50.491 20.9393Z" stroke="#002C72"/>
</g>
<path d="M87.2179 33.9788L87.1737 41.9768L87.156 42.4478C87.0057 43.212 86.546 43.923 85.7856 44.3762L56.3087 61.8029C55.177 62.4694 53.7713 62.4783 52.6307 61.8207L21.5889 43.8785C20.8021 43.4253 20.3335 42.6966 20.1832 41.9146V41.5236L20.1301 33.4189" fill="#D9ECFF"/>
<path d="M87.2179 33.9788L87.1737 41.9768L87.156 42.4478C87.0057 43.212 86.546 43.923 85.7856 44.3762L56.3087 61.8029C55.177 62.4694 53.7713 62.4783 52.6307 61.8207L21.5889 43.8785C20.8021 43.4253 20.3335 42.6966 20.1832 41.9146V41.5236L20.1301 33.4189" stroke="#002C72"/>
<path d="M55.4799 14.4957L85.7391 31.4937C87.6878 32.5909 87.7144 35.3782 85.7834 36.5108L56.2506 53.8627C55.1167 54.5264 53.7083 54.5352 52.5656 53.8804L21.465 36.033C19.4896 34.9004 19.5251 32.0423 21.527 30.9628L51.9367 14.4691C53.044 13.8674 54.3815 13.8763 55.4799 14.4957Z" fill="white" stroke="#002C72" stroke-linejoin="round"/>
<path d="M39.2806 42.8274L42.4395 44.6176L69.9405 28.4112V2.62437L66.8948 1L39.2806 16.8189V42.8274Z" fill="#005DF2" stroke="#002C72" stroke-linecap="round" stroke-linejoin="round"/>
<path d="M39.2799 42.8274V16.8206L66.8941 1" fill="#005DF2"/>
<path d="M39.2799 42.8274V16.8206L66.8941 1" stroke="#002C72" stroke-linecap="round" stroke-linejoin="round"/>
<path d="M42.5296 44.4524L70.1438 28.6335V2.625L42.5296 18.4439V44.4524Z" fill="white" stroke="#002C72" stroke-linecap="round" stroke-linejoin="round"/>
<path d="M70.144 2.62437L66.8953 1" stroke="#002C72" stroke-linecap="round" stroke-linejoin="round"/>
<path d="M42.5284 18.4623L39.2797 16.8379" stroke="#002C72" stroke-linecap="round" stroke-linejoin="round"/>
<path d="M68.445 26.8573L45.5904 39.7596L45.5904 19.9316" stroke="#002C72" stroke-linecap="round" stroke-linejoin="bevel"/>
<path d="M46.4615 22.0774L51.1297 26.1641L53.4383 21.0853L59.2097 24.779L61.9799 19.7002L67.5205 23.6247" stroke="#002C72" stroke-linecap="round" stroke-linejoin="bevel"/>
<path fill-rule="evenodd" clip-rule="evenodd" d="M67.6997 24.1268C67.8266 24.1224 67.9209 23.9801 67.9062 23.815L67.8296 22.9506C67.8235 22.8816 67.7771 22.829 67.7241 22.8308C67.667 22.8327 67.6246 22.8968 67.6312 22.971L67.7105 23.8658L67.023 23.8895C66.9659 23.8914 66.9235 23.9554 66.9301 24.0297C66.9362 24.0987 66.9825 24.1514 67.0356 24.1496L67.6997 24.1268Z" fill="#002C72" stroke="#002C72"/>
<defs>
<filter id="filter0_f_1901_7195" x="0.5" y="10.0869" width="96.6696" height="65.9131" filterUnits="userSpaceOnUse" color-interpolation-filters="sRGB">
<feFlood flood-opacity="0" result="BackgroundImageFix"/>
<feBlend mode="normal" in="SourceGraphic" in2="BackgroundImageFix" result="shape"/>
<feGaussianBlur stdDeviation="5" result="effect1_foregroundBlur_1901_7195"/>
</filter>
</defs>
</svg>
