<svg width="556" height="219" viewBox="0 0 556 219" fill="none" xmlns="http://www.w3.org/2000/svg">
<rect x="1" y="1" width="554" height="217.492" rx="10" fill="#002C72"/>
<path d="M143.209 82.7695H134.767V132.456H143.209V82.7695Z" fill="white"/>
<path d="M194.327 96.6667C189.82 96.8477 185.487 98.4571 181.955 101.262C180.47 99.7138 178.67 98.5022 176.677 97.7093C174.683 96.9164 172.542 96.5609 170.399 96.6667C164.844 96.8762 159.417 98.3998 154.564 101.113V132.433H163.14V106.508C165.432 105.165 168.027 104.426 170.682 104.36C172.259 104.328 173.792 104.886 174.978 105.925C175.576 106.463 176.046 107.128 176.354 107.872C176.662 108.615 176.801 109.417 176.76 110.221V132.433H185.285V106.957C187.593 105.451 190.246 104.557 192.995 104.36C194.562 104.325 196.085 104.884 197.258 105.925C197.83 106.477 198.276 107.147 198.564 107.889C198.851 108.631 198.974 109.427 198.923 110.221V132.433H207.431V110.52C207.431 105.825 206.271 102.339 203.951 100.064C202.653 98.8863 201.133 97.9796 199.481 97.3964C197.829 96.8131 196.076 96.5651 194.327 96.6667Z" fill="white"/>
<path d="M235.023 96.6577C229.065 96.864 223.226 98.382 217.922 101.104V148.492H226.414V129.727C229.18 132.006 232.608 133.331 236.188 133.507C238.461 133.549 240.716 133.107 242.804 132.208C244.891 131.309 246.763 129.975 248.294 128.295C251.634 124.744 253.431 120.014 253.289 115.14C253.385 112.689 252.981 110.245 252.102 107.955C251.223 105.664 249.888 103.577 248.177 101.82C246.459 100.098 244.404 98.7503 242.14 97.8619C239.876 96.9736 237.453 96.5636 235.023 96.6577ZM241.866 122.717C241.006 123.697 239.941 124.478 238.748 125.004C237.554 125.53 236.26 125.79 234.956 125.764C231.959 125.549 229.044 124.686 226.414 123.233V106.881C228.971 105.274 231.92 104.398 234.939 104.351C236.247 104.327 237.543 104.59 238.737 105.122C239.931 105.655 240.994 106.443 241.85 107.431C243.766 109.514 244.799 112.26 244.73 115.09C244.809 117.909 243.781 120.646 241.866 122.717Z" fill="white"/>
<path d="M277.416 96.6587C275.057 96.5613 272.704 96.9667 270.514 97.8481C268.323 98.7294 266.345 100.066 264.711 101.771C263.068 103.536 261.79 105.608 260.95 107.868C260.11 110.128 259.724 112.532 259.816 114.942C259.732 117.407 260.159 119.863 261.07 122.156C261.981 124.448 263.357 126.527 265.111 128.262C266.955 130.022 269.136 131.391 271.522 132.286C273.908 133.182 276.451 133.586 278.998 133.474C283.703 133.643 288.381 132.678 292.635 130.66V123.334H292.035C288.029 125.421 283.564 126.474 279.048 126.397C276.377 126.502 273.765 125.605 271.721 123.883C270.773 123.096 269.991 122.128 269.419 121.036C268.848 119.944 268.498 118.75 268.391 117.522H293.8C293.943 116.591 294.015 115.651 294.017 114.708C294.244 109.987 292.727 105.346 289.754 101.671C286.968 98.3294 282.855 96.6587 277.416 96.6587ZM277.499 103.685C282.195 103.685 284.892 106.25 285.625 111.278H268.674C269.036 109.396 269.938 107.66 271.272 106.283C272.071 105.439 273.038 104.772 274.11 104.325C275.183 103.878 276.337 103.66 277.499 103.685Z" fill="white"/>
<path d="M317.261 125.346C316.012 125.555 314.748 125.656 313.481 125.646C313.254 125.637 313.032 125.575 312.832 125.465C312.633 125.356 312.462 125.201 312.332 125.013C311.994 124.526 311.824 123.941 311.85 123.348V82.7695H303.341V124.164C303.341 130.136 306.427 133.122 312.599 133.122C314.288 133.158 315.973 132.934 317.594 132.456V125.346H317.261Z" fill="white"/>
<path d="M347.102 132.742C347.104 134.383 347.43 136.007 348.061 137.521C348.692 139.036 349.615 140.411 350.778 141.568C351.942 142.725 353.322 143.641 354.839 144.264C356.357 144.886 357.983 145.204 359.624 145.197H408.911C412.19 145.158 415.321 143.829 417.627 141.498C419.933 139.167 421.228 136.021 421.233 132.742V83.455C421.228 80.1531 419.915 76.9877 417.58 74.6528C415.245 72.318 412.079 71.0044 408.778 71H359.624C356.322 71.0044 353.156 72.318 350.822 74.6528C348.487 76.9877 347.173 80.1531 347.169 83.455L347.102 132.742ZM412.907 83.455V132.742C412.903 133.83 412.467 134.872 411.697 135.64C410.926 136.407 409.882 136.838 408.794 136.838H359.624C359.086 136.838 358.553 136.732 358.056 136.526C357.559 136.321 357.108 136.019 356.727 135.639C356.347 135.258 356.045 134.807 355.839 134.31C355.633 133.813 355.527 133.28 355.527 132.742V83.455C355.527 82.3671 355.959 81.3235 356.726 80.5527C357.494 79.7818 358.536 79.3466 359.624 79.3422H408.911C409.98 79.3767 410.994 79.8247 411.739 80.5918C412.485 81.3589 412.903 82.3854 412.907 83.455Z" fill="white"/>
<path d="M365.586 100.456L377.325 108.133L365.586 115.775V124.101L383.519 112.562V103.703L365.586 92.1309V100.456Z" fill="white"/>
<path d="M385.983 100.456L397.722 108.133L385.983 115.775V124.101L403.917 112.562V103.703L385.983 92.1309V100.456Z" fill="white"/>
<rect x="1" y="1" width="554" height="217.492" rx="10" stroke="#002C72" stroke-linejoin="round"/>
</svg>
