<svg width="21" height="20" viewBox="0 0 21 20" fill="none" xmlns="http://www.w3.org/2000/svg">
<path d="M0.25 16.6427C0.250587 17.0849 0.338425 17.5227 0.508474 17.9309C0.678524 18.3392 0.927448 18.7098 1.24098 19.0217C1.55452 19.3336 1.92651 19.5805 2.33564 19.7484C2.74477 19.9162 3.183 20.0017 3.62522 20H16.9107C17.7945 19.9894 18.6385 19.6311 19.2601 19.0028C19.8818 18.3744 20.2309 17.5266 20.232 16.6427V3.35727C20.2308 2.46723 19.8767 1.61398 19.2474 0.984632C18.618 0.35528 17.7648 0.00118751 16.8748 0H3.62522C2.73518 0.00118751 1.88194 0.35528 1.25259 0.984632C0.623234 1.61398 0.269145 2.46723 0.267957 3.35727L0.25 16.6427ZM17.9879 3.35727V16.6427C17.9867 16.936 17.8693 17.2168 17.6616 17.4237C17.4538 17.6307 17.1725 17.7468 16.8792 17.7468H3.62522C3.48023 17.7468 3.33665 17.7183 3.20269 17.6628C3.06873 17.6073 2.94701 17.526 2.84448 17.4234C2.74196 17.3209 2.66062 17.1992 2.60514 17.0652C2.54965 16.9313 2.52109 16.7877 2.52109 16.6427V3.35727C2.52109 3.06402 2.63727 2.78272 2.84421 2.57494C3.05115 2.36716 3.33198 2.24984 3.62522 2.24865H16.9107C17.1988 2.25795 17.4722 2.3787 17.6731 2.58549C17.874 2.79227 17.9868 3.06895 17.9879 3.35727Z" fill="#002C72"/>
<path d="M5.23242 7.93947L8.39669 10.0086L5.23242 12.0687V14.3129L10.0663 11.2025V8.8147L5.23242 5.69531V7.93947Z" fill="#002C72"/>
<path d="M10.7305 7.93947L13.8947 10.0086L10.7305 12.0687V14.3129L15.5644 11.2025V8.8147L10.7305 5.69531V7.93947Z" fill="#002C72"/>
</svg>
