<svg width="554" height="219" viewBox="0 0 554 219" fill="none" xmlns="http://www.w3.org/2000/svg">
<rect x="1" y="1" width="552" height="217.492" rx="10" fill="white"/>
<path d="M142.209 82.7695H133.767V132.456H142.209V82.7695Z" fill="#002C72"/>
<path d="M193.327 96.6667C188.82 96.8477 184.487 98.4571 180.955 101.262C179.47 99.7138 177.67 98.5022 175.677 97.7093C173.683 96.9164 171.542 96.5609 169.399 96.6667C163.844 96.8762 158.417 98.3998 153.564 101.113V132.433H162.14V106.508C164.432 105.165 167.027 104.426 169.682 104.36C171.259 104.328 172.792 104.886 173.978 105.925C174.576 106.463 175.046 107.128 175.354 107.872C175.662 108.615 175.801 109.417 175.76 110.221V132.433H184.285V106.957C186.593 105.451 189.246 104.557 191.995 104.36C193.562 104.325 195.085 104.884 196.258 105.925C196.83 106.477 197.276 107.147 197.564 107.889C197.851 108.631 197.974 109.427 197.923 110.221V132.433H206.431V110.52C206.431 105.825 205.271 102.339 202.951 100.064C201.653 98.8863 200.133 97.9796 198.481 97.3964C196.829 96.8131 195.076 96.5651 193.327 96.6667Z" fill="#002C72"/>
<path d="M234.023 96.6577C228.065 96.864 222.226 98.382 216.922 101.104V148.492H225.414V129.727C228.18 132.006 231.608 133.331 235.188 133.507C237.461 133.549 239.716 133.107 241.804 132.208C243.891 131.309 245.763 129.975 247.294 128.295C250.634 124.744 252.431 120.014 252.289 115.14C252.385 112.689 251.981 110.245 251.102 107.955C250.223 105.664 248.888 103.577 247.177 101.82C245.459 100.098 243.404 98.7503 241.14 97.8619C238.876 96.9736 236.453 96.5636 234.023 96.6577ZM240.866 122.717C240.006 123.697 238.941 124.478 237.748 125.004C236.554 125.53 235.26 125.79 233.956 125.764C230.959 125.549 228.044 124.686 225.414 123.233V106.881C227.971 105.274 230.92 104.398 233.939 104.351C235.247 104.327 236.543 104.59 237.737 105.122C238.931 105.655 239.994 106.443 240.85 107.431C242.766 109.514 243.799 112.26 243.73 115.09C243.809 117.909 242.781 120.646 240.866 122.717Z" fill="#002C72"/>
<path d="M276.416 96.6587C274.057 96.5613 271.704 96.9667 269.514 97.8481C267.323 98.7294 265.345 100.066 263.711 101.771C262.068 103.536 260.79 105.608 259.95 107.868C259.11 110.128 258.725 112.532 258.816 114.942C258.732 117.407 259.159 119.863 260.07 122.156C260.981 124.448 262.357 126.527 264.111 128.262C265.955 130.022 268.136 131.391 270.522 132.286C272.908 133.182 275.451 133.586 277.998 133.474C282.703 133.643 287.381 132.678 291.635 130.66V123.334H291.036C287.029 125.421 282.565 126.474 278.048 126.397C275.378 126.502 272.765 125.605 270.721 123.883C269.773 123.096 268.991 122.128 268.419 121.036C267.848 119.944 267.498 118.75 267.391 117.522H292.801C292.943 116.591 293.015 115.651 293.017 114.708C293.244 109.987 291.727 105.346 288.754 101.671C285.968 98.3294 281.855 96.6587 276.416 96.6587ZM276.499 103.685C281.195 103.685 283.892 106.25 284.625 111.278H267.674C268.036 109.396 268.939 107.66 270.272 106.283C271.071 105.439 272.038 104.772 273.11 104.325C274.183 103.878 275.337 103.66 276.499 103.685Z" fill="#002C72"/>
<path d="M316.261 125.346C315.012 125.555 313.748 125.656 312.481 125.646C312.254 125.637 312.032 125.575 311.832 125.465C311.633 125.356 311.462 125.201 311.333 125.013C310.994 124.526 310.824 123.941 310.85 123.348V82.7695H302.341V124.164C302.341 130.136 305.427 133.122 311.599 133.122C313.288 133.158 314.973 132.934 316.594 132.456V125.346H316.261Z" fill="#002C72"/>
<path d="M346.102 132.742C346.104 134.383 346.43 136.007 347.061 137.521C347.692 139.036 348.615 140.411 349.778 141.568C350.942 142.725 352.322 143.641 353.839 144.264C355.357 144.886 356.983 145.204 358.624 145.197H407.911C411.19 145.158 414.321 143.829 416.627 141.498C418.933 139.167 420.228 136.021 420.233 132.742V83.455C420.228 80.1531 418.915 76.9877 416.58 74.6528C414.245 72.318 411.079 71.0044 407.778 71H358.624C355.322 71.0044 352.156 72.318 349.822 74.6528C347.487 76.9877 346.173 80.1531 346.169 83.455L346.102 132.742ZM411.907 83.455V132.742C411.903 133.83 411.467 134.872 410.697 135.64C409.926 136.407 408.882 136.838 407.794 136.838H358.624C358.086 136.838 357.553 136.732 357.056 136.526C356.559 136.321 356.108 136.019 355.727 135.639C355.347 135.258 355.045 134.807 354.839 134.31C354.633 133.813 354.527 133.28 354.527 132.742V83.455C354.527 82.3671 354.959 81.3235 355.726 80.5527C356.494 79.7818 357.536 79.3466 358.624 79.3422H407.911C408.98 79.3767 409.994 79.8247 410.739 80.5918C411.485 81.3589 411.903 82.3854 411.907 83.455Z" fill="#005DF2"/>
<path d="M364.586 100.456L376.325 108.133L364.586 115.775V124.101L382.519 112.562V103.703L364.586 92.1309V100.456Z" fill="#005DF2"/>
<path d="M384.983 100.456L396.722 108.133L384.983 115.775V124.101L402.917 112.562V103.703L384.983 92.1309V100.456Z" fill="#005DF2"/>
<rect x="1" y="1" width="552" height="217.492" rx="10" stroke="#005DF2" stroke-linejoin="round"/>
</svg>
