<svg width="16" height="16" viewBox="0 0 16 16" fill="none" xmlns="http://www.w3.org/2000/svg">
<g clip-path="url(#clip0_1911_8312)">
<path d="M14.3896 0.705078H1.60742C0.995117 0.705078 0.5 1.18848 0.5 1.78613V14.6211C0.5 15.2187 0.995117 15.7051 1.60742 15.7051H14.3896C15.002 15.7051 15.5 15.2188 15.5 14.624V1.78613C15.5 1.18848 15.002 0.705078 14.3896 0.705078ZM4.9502 13.4873H2.72363V6.32715H4.9502V13.4873ZM3.83691 5.35156C3.12207 5.35156 2.54492 4.77441 2.54492 4.0625C2.54492 3.35059 3.12207 2.77344 3.83691 2.77344C4.54883 2.77344 5.12598 3.35059 5.12598 4.0625C5.12598 4.77148 4.54883 5.35156 3.83691 5.35156ZM13.2822 13.4873H11.0586V10.0068C11.0586 9.17773 11.0439 8.1084 9.90137 8.1084C8.74414 8.1084 8.56836 9.01367 8.56836 9.94824V13.4873H6.34766V6.32715H8.48047V7.30566H8.50977C8.80566 6.74316 9.53223 6.14844 10.6133 6.14844C12.8662 6.14844 13.2822 7.63086 13.2822 9.55859V13.4873V13.4873Z" fill="#002C72"/>
</g>
<defs>
<clipPath id="clip0_1911_8312">
<rect width="15" height="15" fill="white" transform="translate(0.5 0.705078)"/>
</clipPath>
</defs>
</svg>
