<svg width="21" height="21" viewBox="0 0 21 21" fill="none" xmlns="http://www.w3.org/2000/svg">
<path d="M10.5 20.2871C10.0667 20.2871 9.675 20.1831 9.325 19.9751C8.975 19.7664 8.7 19.4871 8.5 19.1371C7.95 19.1371 7.47933 18.9414 7.088 18.5501C6.696 18.1581 6.5 17.6871 6.5 17.1371V13.5871C5.51667 12.9371 4.72933 12.0788 4.138 11.0121C3.546 9.94544 3.25 8.78711 3.25 7.53711C3.25 5.52044 3.954 3.80778 5.362 2.39911C6.77067 0.991109 8.48333 0.287109 10.5 0.287109C12.5167 0.287109 14.229 0.991109 15.637 2.39911C17.0457 3.80778 17.75 5.52044 17.75 7.53711C17.75 8.82044 17.4543 9.98711 16.863 11.0371C16.271 12.0871 15.4833 12.9371 14.5 13.5871V17.1371C14.5 17.6871 14.3043 18.1581 13.913 18.5501C13.521 18.9414 13.05 19.1371 12.5 19.1371C12.3 19.4871 12.025 19.7664 11.675 19.9751C11.325 20.1831 10.9333 20.2871 10.5 20.2871ZM8.5 17.1371H12.5V16.2371H8.5V17.1371ZM8.5 15.2371H12.5V14.2871H8.5V15.2371ZM8.3 12.2871H9.75V9.58711L7.55 7.38711L8.6 6.33711L10.5 8.23711L12.4 6.33711L13.45 7.38711L11.25 9.58711V12.2871H12.7C13.6 11.8538 14.3333 11.2161 14.9 10.3741C15.4667 9.53278 15.75 8.58711 15.75 7.53711C15.75 6.07044 15.2417 4.82878 14.225 3.81211C13.2083 2.79544 11.9667 2.28711 10.5 2.28711C9.03333 2.28711 7.79167 2.79544 6.775 3.81211C5.75833 4.82878 5.25 6.07044 5.25 7.53711C5.25 8.58711 5.53333 9.53278 6.1 10.3741C6.66667 11.2161 7.4 11.8538 8.3 12.2871Z" fill="#002C72"/>
</svg>
