<svg width="25" height="24" viewBox="0 0 25 24" fill="none" xmlns="http://www.w3.org/2000/svg">
<path fill-rule="evenodd" clip-rule="evenodd" d="M12.2722 0.194336C11.4438 0.194336 10.7722 0.865909 10.7722 1.69434V10.2541H10.7562V10.2721H2.19444C1.36602 10.2721 0.694443 10.9437 0.694443 11.7721V12.2443C0.694443 13.0728 1.36602 13.7443 2.19444 13.7443H10.7562V22.3054C10.7562 23.1339 11.4278 23.8054 12.2562 23.8054H12.7285C13.5569 23.8054 14.2285 23.1339 14.2285 22.3054V13.7443H14.2458V13.7284H22.8062C23.6347 13.7284 24.3062 13.0568 24.3062 12.2284V11.7553C24.3062 10.927 23.6347 10.2554 22.8064 10.2553L14.2451 10.2548L14.2445 1.69423C14.2445 0.865844 13.5729 0.194336 12.7445 0.194336H12.2722Z" fill="#002C72"/>
</svg>
