<svg width="50" height="50" viewBox="0 0 50 50" fill="none" xmlns="http://www.w3.org/2000/svg">
<path d="M50.0007 22.6128C44.2559 -10.6724 0.793993 -4.23133 0.0182589 22.6128C2.52696 23.9145 4.10231 24.7054 4.10231 24.7054C4.10231 24.7054 2.77281 25.5014 0 27.2729C5.0087 59.9045 47.7215 55.1656 49.9923 27.2352C47.2765 25.5705 45.7958 24.6917 45.7958 24.6917C45.7958 24.6917 47.0661 24.0868 50.0007 22.6128ZM28.6165 34.2348L24.5397 27.2262L20.3899 34.2348L17.2597 34.0201L23.156 24.0797L17.8419 15.498L21.0448 15.2117L24.8302 21.5766L28.6162 15.498L31.6008 15.5694L26.6506 24.0081L32.1102 34.1629L28.6165 34.2348Z" fill="#B7B5B1"/>
<path d="M47.9724 21.3077C40.1838 -8.26905 4.48913 -0.267555 2.0442 21.3077C6.99698 24.0943 8.12083 24.7495 8.12083 24.7495C8.12083 24.7495 6.20664 25.9731 2.02734 28.6276C7.3406 57.0617 45.8539 51.597 47.9645 28.5931C44.0777 26.1568 41.785 24.7372 41.785 24.7372C41.785 24.7372 47.0258 21.8078 47.9724 21.3077ZM28.6153 34.2547L24.5391 27.2478L20.3901 34.2547L17.2602 34.0401L23.1556 24.1016L17.8426 15.5222L21.045 15.2359L24.8299 21.5994L28.6153 15.5222L31.5994 15.5936L26.6497 24.0303L32.1087 34.1828L28.6153 34.2547Z" fill="#244B81"/>
</svg>
