<svg width="16" height="16" viewBox="0 0 16 16" fill="none" xmlns="http://www.w3.org/2000/svg">
<g clip-path="url(#clip0_1911_8331)">
<path d="M15.3506 4.70605C15.3506 4.70605 15.2041 3.67188 14.7529 3.21777C14.1816 2.62012 13.543 2.61719 13.25 2.58203C11.1523 2.42969 8.00293 2.42969 8.00293 2.42969H7.99707C7.99707 2.42969 4.84766 2.42969 2.75 2.58203C2.45703 2.61719 1.81836 2.62012 1.24707 3.21777C0.795898 3.67188 0.652344 4.70605 0.652344 4.70605C0.652344 4.70605 0.5 5.92188 0.5 7.13477V8.27148C0.5 9.48437 0.649414 10.7002 0.649414 10.7002C0.649414 10.7002 0.795898 11.7344 1.24414 12.1885C1.81543 12.7861 2.56543 12.7656 2.89941 12.8301C4.10059 12.9443 8 12.9795 8 12.9795C8 12.9795 11.1523 12.9736 13.25 12.8242C13.543 12.7891 14.1816 12.7861 14.7529 12.1885C15.2041 11.7344 15.3506 10.7002 15.3506 10.7002C15.3506 10.7002 15.5 9.4873 15.5 8.27148V7.13477C15.5 5.92188 15.3506 4.70605 15.3506 4.70605ZM6.4502 9.65137V5.43555L10.502 7.55078L6.4502 9.65137Z" fill="#002C72"/>
</g>
<defs>
<clipPath id="clip0_1911_8331">
<rect width="15" height="15" fill="white" transform="translate(0.5 0.205078)"/>
</clipPath>
</defs>
</svg>
